<svg xmlns="http://www.w3.org/2000/svg" xmlns:xlink="http://www.w3.org/1999/xlink" width="1080" zoomAndPan="magnify" viewBox="0 0 810 809.999993" height="1080" preserveAspectRatio="xMidYMid meet" version="1.0"><defs><g/></defs><g fill="#202020" fill-opacity="1"><g transform="translate(137.841076, 499.56983)"><g><path d="M 87.863281 -148.238281 C 73.578125 -148.238281 59.566406 -143.65625 49.863281 -132.605469 L 49.863281 -191.902344 L 7.816406 -191.902344 L 7.816406 0 L 49.863281 0 L 49.863281 -14.554688 C 59.835938 -2.15625 74.386719 1.886719 88.402344 1.886719 C 134.492188 1.886719 158.480469 -34.769531 158.480469 -74.925781 C 158.480469 -114.816406 135.300781 -148.238281 87.863281 -148.238281 Z M 83.28125 -38.8125 C 64.957031 -38.8125 49.863281 -54.445312 49.863281 -73.847656 C 49.863281 -93.253906 64.957031 -109.15625 83.28125 -109.15625 C 105.113281 -109.15625 115.894531 -91.636719 115.894531 -73.847656 C 115.894531 -56.332031 104.84375 -38.8125 83.28125 -38.8125 Z M 83.28125 -38.8125 "/></g></g></g><g fill="#202020" fill-opacity="1"><g transform="translate(270.882444, 499.56983)"><g><path d="M 154.167969 -73.308594 C 154.167969 -123.171875 116.433594 -147.96875 78.96875 -147.96875 C 40.96875 -147.96875 3.503906 -123.171875 3.503906 -73.308594 C 3.503906 -23.449219 40.96875 1.617188 78.699219 1.617188 C 108.886719 1.617188 138.804688 -14.285156 149.855469 -46.089844 L 103.765625 -46.089844 C 97.566406 -39.351562 88.671875 -36.117188 79.238281 -36.117188 C 66.304688 -36.386719 53.097656 -43.125 47.976562 -56.601562 L 152.550781 -56.601562 C 153.628906 -61.992188 154.167969 -67.382812 154.167969 -73.308594 Z M 107.808594 -89.75 L 49.59375 -89.75 C 53.90625 -104.035156 65.496094 -111.042969 78.160156 -111.042969 C 91.90625 -111.042969 103.765625 -104.304688 107.808594 -89.75 Z M 107.808594 -89.75 "/></g></g></g><g fill="#202020" fill-opacity="1"><g transform="translate(401.949303, 499.56983)"><g><path d="M 115.355469 -145.8125 L 3.773438 -145.8125 L 3.773438 -107.269531 L 56.871094 -107.269531 L 3.234375 -25.605469 L 3.234375 0 L 115.894531 0 L 115.894531 -40.160156 L 59.835938 -40.160156 L 115.355469 -122.363281 Z M 115.355469 -145.8125 "/></g></g></g><g fill="#202020" fill-opacity="1"><g transform="translate(508.765176, 497.676753)"><g><path d="M 97.027344 0.269531 L 95.679688 -34.769531 C 91.90625 -33.960938 87.59375 -33.421875 83.550781 -33.421875 C 73.308594 -33.421875 63.878906 -37.464844 63.878906 -50.402344 L 63.878906 -107.808594 L 94.332031 -107.808594 L 94.332031 -144.195312 L 63.878906 -144.195312 L 63.878906 -175.730469 L 21.5625 -171.957031 L 21.5625 -144.195312 L 2.425781 -144.195312 L 2.425781 -107.808594 L 21.5625 -107.808594 L 21.5625 -50.402344 C 21.5625 -12.667969 40.96875 2.425781 73.039062 2.425781 C 80.316406 2.425781 88.402344 1.617188 97.027344 0.269531 Z M 97.027344 0.269531 "/></g></g></g><g fill="#2c80b2" fill-opacity="1"><g transform="translate(603.596745, 499.350595)"><g><path d="M 23.179688 -47.167969 C 9.703125 -47.167969 -1.078125 -37.464844 -1.078125 -23.179688 C -1.078125 -11.320312 9.703125 0.808594 23.179688 0.808594 C 37.734375 0.808594 48.246094 -11.320312 48.246094 -23.179688 C 48.246094 -37.464844 37.734375 -47.167969 23.179688 -47.167969 Z M 23.179688 -47.167969 "/></g></g></g></svg>