<svg xmlns="http://www.w3.org/2000/svg" xmlns:xlink="http://www.w3.org/1999/xlink" width="500" zoomAndPan="magnify" viewBox="0 0 375 374.999991" height="500" preserveAspectRatio="xMidYMid meet" version="1.0"><defs><g/><clipPath id="ec14e118e5"><path d="M 187.5 158.390625 L 293.25 158.390625 L 293.25 306.140625 L 187.5 306.140625 Z M 187.5 158.390625 " clip-rule="nonzero"/></clipPath><clipPath id="b4408b45da"><path d="M 206.589844 199 L 353 199 L 353 284.886719 L 206.589844 284.886719 Z M 206.589844 199 " clip-rule="nonzero"/></clipPath></defs><g fill="#202020" fill-opacity="1"><g transform="translate(-10.752262, 346.953734)"><g><path d="M 26.21875 -316.125 C 29.457031 -317.101562 34.640625 -318.15625 41.765625 -319.28125 C 48.890625 -320.414062 56.171875 -320.984375 63.609375 -320.984375 C 70.734375 -320.984375 77.128906 -320.5 82.796875 -319.53125 C 88.460938 -318.5625 93.238281 -316.617188 97.125 -313.703125 C 101.007812 -310.785156 103.921875 -306.816406 105.859375 -301.796875 C 107.804688 -296.785156 108.78125 -290.234375 108.78125 -282.140625 L 108.78125 -234.546875 C 116.875 -237.785156 124.5625 -240.050781 131.84375 -241.34375 C 139.125 -242.644531 147.132812 -243.296875 155.875 -243.296875 C 171.414062 -243.296875 186.144531 -240.539062 200.0625 -235.03125 C 213.988281 -229.53125 226.289062 -221.519531 236.96875 -211 C 247.65625 -200.476562 256.070312 -187.445312 262.21875 -171.90625 C 268.375 -156.363281 271.453125 -138.394531 271.453125 -118 C 271.453125 -96.957031 268.296875 -78.582031 261.984375 -62.875 C 255.671875 -47.175781 246.847656 -34.144531 235.515625 -23.78125 C 224.191406 -13.425781 210.351562 -5.578125 194 -0.234375 C 177.65625 5.097656 159.609375 7.765625 139.859375 7.765625 C 118.492188 7.765625 100.363281 5.253906 85.46875 0.234375 C 70.570312 -4.773438 57.945312 -11.003906 47.59375 -18.453125 C 33.34375 -28.484375 26.21875 -41.429688 26.21875 -57.296875 Z M 139.859375 -57.296875 C 154.742188 -57.296875 166.3125 -62.394531 174.5625 -72.59375 C 182.820312 -82.789062 186.953125 -97.925781 186.953125 -118 C 186.953125 -138.394531 182.742188 -153.609375 174.328125 -163.640625 C 165.910156 -173.679688 154.582031 -178.703125 140.34375 -178.703125 C 133.863281 -178.703125 128.273438 -178.050781 123.578125 -176.75 C 118.890625 -175.457031 113.796875 -173.519531 108.296875 -170.9375 L 108.296875 -65.078125 C 111.847656 -62.804688 116.132812 -60.941406 121.15625 -59.484375 C 126.175781 -58.023438 132.410156 -57.296875 139.859375 -57.296875 Z M 139.859375 -57.296875 "/></g></g></g><g clip-path="url(#ec14e118e5)"><path fill="#ba5a87" d="M 187.5 158.390625 L 293.25 158.390625 L 293.25 306.140625 L 187.5 306.140625 Z M 187.5 158.390625 " fill-opacity="1" fill-rule="nonzero"/></g><path fill="#000000" d="M 244.398438 173.902344 C 243.703125 177.625 244.152344 181.796875 244.199219 185.621094 C 244.25 189.640625 244.398438 193.566406 244.75 197.539062 C 245.097656 201.363281 251.617188 201.90625 252.414062 198.085938 C 253.359375 193.765625 253.808594 189.742188 253.707031 185.371094 C 253.558594 181.101562 253.410156 176.484375 251.765625 172.511719 C 251.121094 170.972656 249.128906 170.125 247.585938 170.425781 C 245.742188 170.773438 244.75 172.210938 244.398438 173.902344 Z M 244.398438 173.902344 " fill-opacity="1" fill-rule="nonzero"/><path fill="#000000" d="M 298.507812 172.609375 C 297.015625 175.589844 297.613281 180.007812 297.761719 183.285156 C 297.914062 187.109375 298.359375 190.636719 299.355469 194.308594 C 300.699219 199.324219 307.070312 198.582031 308.066406 193.8125 C 308.914062 189.839844 308.964844 186.214844 308.515625 182.195312 C 308.117188 178.570312 307.769531 174.25 305.429688 171.269531 C 303.339844 168.636719 299.753906 170.078125 298.507812 172.609375 Z M 298.507812 172.609375 " fill-opacity="1" fill-rule="nonzero"/><g clip-path="url(#b4408b45da)"><path fill="#000000" d="M 206.867188 235.625 C 206.71875 243.125 210.5 250.175781 214.683594 256.183594 C 218.8125 262.09375 224.089844 267.257812 230.015625 271.378906 C 241.3125 279.226562 255.152344 283.695312 268.890625 284.292969 C 282.828125 284.886719 297.117188 282.007812 309.363281 275.253906 C 321.558594 268.550781 331.863281 258.667969 339.378906 246.949219 C 343.511719 240.492188 346.84375 233.441406 349.183594 226.140625 C 350.429688 222.367188 351.425781 218.445312 352.070312 214.519531 C 352.667969 210.648438 353.464844 206.226562 352.222656 202.453125 C 351.027344 198.878906 346.644531 198.382812 344.953125 201.90625 C 343.609375 204.738281 343.460938 207.867188 342.8125 210.945312 C 342.164062 213.976562 341.46875 217.003906 340.574219 219.984375 C 338.878906 225.695312 336.589844 231.257812 333.652344 236.421875 C 327.730469 246.898438 319.566406 256.285156 309.410156 262.9375 C 289.300781 276.046875 262.121094 277.835938 240.617188 266.8125 C 234.34375 263.582031 228.519531 259.261719 223.742188 254.148438 C 218.316406 248.339844 215.230469 241.585938 211.496094 234.683594 C 210.402344 232.746094 206.917969 233.09375 206.867188 235.625 Z M 206.867188 235.625 " fill-opacity="1" fill-rule="nonzero"/></g></svg>