<svg xmlns="http://www.w3.org/2000/svg" xmlns:xlink="http://www.w3.org/1999/xlink" width="320" zoomAndPan="magnify" viewBox="0 0 240 203.999996" height="272" preserveAspectRatio="xMidYMid meet" version="1.0"><defs><clipPath id="35363f02f3"><path d="M 79.769531 115.4375 L 145 115.4375 L 145 159.929688 L 79.769531 159.929688 Z M 79.769531 115.4375 " clip-rule="nonzero"/></clipPath><clipPath id="5e42c0eb4e"><path d="M 260.234375 137.019531 L 137.609375 -44.601562 L -88.023438 107.742188 L 34.601562 289.359375 Z M 260.234375 137.019531 " clip-rule="nonzero"/></clipPath><clipPath id="fa04371a17"><path d="M 260.234375 137.019531 L 137.609375 -44.601562 L -88.023438 107.742188 L 34.601562 289.359375 Z M 260.234375 137.019531 " clip-rule="nonzero"/></clipPath><clipPath id="13d343beb4"><path d="M 80.042969 132 L 115.3125 132 L 115.3125 156.402344 L 80.042969 156.402344 Z M 80.042969 132 " clip-rule="nonzero"/></clipPath><clipPath id="73d7b369a9"><path d="M 260.234375 137.019531 L 137.609375 -44.601562 L -88.023438 107.742188 L 34.601562 289.359375 Z M 260.234375 137.019531 " clip-rule="nonzero"/></clipPath><clipPath id="136169f7d7"><path d="M 260.234375 137.019531 L 137.609375 -44.601562 L -88.023438 107.742188 L 34.601562 289.359375 Z M 260.234375 137.019531 " clip-rule="nonzero"/></clipPath><clipPath id="6901043823"><path d="M 111.242188 133.613281 L 199 133.613281 L 199 158.300781 L 111.242188 158.300781 Z M 111.242188 133.613281 " clip-rule="nonzero"/></clipPath><clipPath id="aeabdfa440"><path d="M 260.234375 137.019531 L 137.609375 -44.601562 L -88.023438 107.742188 L 34.601562 289.359375 Z M 260.234375 137.019531 " clip-rule="nonzero"/></clipPath><clipPath id="dd01bc3c8d"><path d="M 260.234375 137.019531 L 137.609375 -44.601562 L -88.023438 107.742188 L 34.601562 289.359375 Z M 260.234375 137.019531 " clip-rule="nonzero"/></clipPath><clipPath id="23cfd64810"><path d="M 114.226562 144.464844 L 174.453125 144.464844 L 174.453125 157.488281 L 114.226562 157.488281 Z M 114.226562 144.464844 " clip-rule="nonzero"/></clipPath><clipPath id="7df9bba85d"><path d="M 260.234375 137.019531 L 137.609375 -44.601562 L -88.023438 107.742188 L 34.601562 289.359375 Z M 260.234375 137.019531 " clip-rule="nonzero"/></clipPath><clipPath id="4538cbd0fe"><path d="M 260.234375 137.019531 L 137.609375 -44.601562 L -88.023438 107.742188 L 34.601562 289.359375 Z M 260.234375 137.019531 " clip-rule="nonzero"/></clipPath><clipPath id="d129394ebe"><path d="M 95 115.4375 L 145 115.4375 L 145 158.300781 L 95 158.300781 Z M 95 115.4375 " clip-rule="nonzero"/></clipPath><clipPath id="b7328d34a3"><path d="M 260.234375 137.019531 L 137.609375 -44.601562 L -88.023438 107.742188 L 34.601562 289.359375 Z M 260.234375 137.019531 " clip-rule="nonzero"/></clipPath><clipPath id="855d00cb95"><path d="M 260.234375 137.019531 L 137.609375 -44.601562 L -88.023438 107.742188 L 34.601562 289.359375 Z M 260.234375 137.019531 " clip-rule="nonzero"/></clipPath><clipPath id="c8aac1fdd4"><path d="M 38.261719 44.355469 L 53.726562 44.355469 L 53.726562 134.699219 L 38.261719 134.699219 Z M 38.261719 44.355469 " clip-rule="nonzero"/></clipPath><clipPath id="428a023a50"><path d="M 260.234375 137.019531 L 137.609375 -44.601562 L -88.023438 107.742188 L 34.601562 289.359375 Z M 260.234375 137.019531 " clip-rule="nonzero"/></clipPath><clipPath id="7c4cd7ecdc"><path d="M 260.234375 137.019531 L 137.609375 -44.601562 L -88.023438 107.742188 L 34.601562 289.359375 Z M 260.234375 137.019531 " clip-rule="nonzero"/></clipPath><clipPath id="6812fd2c49"><path d="M 44.230469 22.652344 L 59.695312 22.652344 L 59.695312 106.210938 L 44.230469 106.210938 Z M 44.230469 22.652344 " clip-rule="nonzero"/></clipPath><clipPath id="688bfc1f17"><path d="M 260.234375 137.019531 L 137.609375 -44.601562 L -88.023438 107.742188 L 34.601562 289.359375 Z M 260.234375 137.019531 " clip-rule="nonzero"/></clipPath><clipPath id="d5cebf862d"><path d="M 260.234375 137.019531 L 137.609375 -44.601562 L -88.023438 107.742188 L 34.601562 289.359375 Z M 260.234375 137.019531 " clip-rule="nonzero"/></clipPath><clipPath id="832b75ef72"><path d="M 32.292969 22.652344 L 52.371094 22.652344 L 52.371094 105.667969 L 32.292969 105.667969 Z M 32.292969 22.652344 " clip-rule="nonzero"/></clipPath><clipPath id="d023e99a6a"><path d="M 260.234375 137.019531 L 137.609375 -44.601562 L -88.023438 107.742188 L 34.601562 289.359375 Z M 260.234375 137.019531 " clip-rule="nonzero"/></clipPath><clipPath id="c8fb960d6b"><path d="M 260.234375 137.019531 L 137.609375 -44.601562 L -88.023438 107.742188 L 34.601562 289.359375 Z M 260.234375 137.019531 " clip-rule="nonzero"/></clipPath><clipPath id="a03a3a587b"><path d="M 13.03125 39.203125 L 35.820312 39.203125 L 35.820312 67.960938 L 13.03125 67.960938 Z M 13.03125 39.203125 " clip-rule="nonzero"/></clipPath><clipPath id="e5c954cef0"><path d="M 260.234375 137.019531 L 137.609375 -44.601562 L -88.023438 107.742188 L 34.601562 289.359375 Z M 260.234375 137.019531 " clip-rule="nonzero"/></clipPath><clipPath id="ed18885832"><path d="M 260.234375 137.019531 L 137.609375 -44.601562 L -88.023438 107.742188 L 34.601562 289.359375 Z M 260.234375 137.019531 " clip-rule="nonzero"/></clipPath><clipPath id="5663cc9533"><path d="M 38.722656 65.894531 L 18.351562 35.722656 L 12.496094 39.675781 L 32.867188 69.847656 Z M 38.722656 65.894531 " clip-rule="nonzero"/></clipPath><clipPath id="332ceb37c4"><path d="M 38.722656 65.894531 L 18.566406 36.039062 L 12.710938 39.992188 L 32.867188 69.847656 Z M 38.722656 65.894531 " clip-rule="nonzero"/></clipPath><clipPath id="c18298db20"><path d="M 13.03125 39.203125 L 52.640625 39.203125 L 52.640625 112.453125 L 13.03125 112.453125 Z M 13.03125 39.203125 " clip-rule="nonzero"/></clipPath><clipPath id="0b817974a1"><path d="M 260.234375 137.019531 L 137.609375 -44.601562 L -88.023438 107.742188 L 34.601562 289.359375 Z M 260.234375 137.019531 " clip-rule="nonzero"/></clipPath><clipPath id="a58ad44d8a"><path d="M 260.234375 137.019531 L 137.609375 -44.601562 L -88.023438 107.742188 L 34.601562 289.359375 Z M 260.234375 137.019531 " clip-rule="nonzero"/></clipPath><clipPath id="2be9672b18"><path d="M 60.515625 106.910156 L 14.296875 38.460938 L -1.464844 49.101562 L 44.75 117.550781 Z M 60.515625 106.910156 " clip-rule="nonzero"/></clipPath><clipPath id="f5cc7bc157"><path d="M 60.515625 106.910156 L 14.511719 38.773438 L -1.25 49.417969 L 44.75 117.550781 Z M 60.515625 106.910156 " clip-rule="nonzero"/></clipPath><clipPath id="a889b8b9e6"><path d="M 27.140625 139.308594 L 199 139.308594 L 199 169.425781 L 27.140625 169.425781 Z M 27.140625 139.308594 " clip-rule="nonzero"/></clipPath><clipPath id="f4a544f809"><path d="M 260.234375 137.019531 L 137.609375 -44.601562 L -88.023438 107.742188 L 34.601562 289.359375 Z M 260.234375 137.019531 " clip-rule="nonzero"/></clipPath><clipPath id="83ed6b46e6"><path d="M 260.234375 137.019531 L 137.609375 -44.601562 L -88.023438 107.742188 L 34.601562 289.359375 Z M 260.234375 137.019531 " clip-rule="nonzero"/></clipPath><clipPath id="811e8c205b"><path d="M 62.679688 44.085938 L 80.855469 44.085938 L 80.855469 106 L 62.679688 106 Z M 62.679688 44.085938 " clip-rule="nonzero"/></clipPath><clipPath id="76044b4091"><path d="M 260.234375 137.019531 L 137.609375 -44.601562 L -88.023438 107.742188 L 34.601562 289.359375 Z M 260.234375 137.019531 " clip-rule="nonzero"/></clipPath><clipPath id="959a4b6041"><path d="M 260.234375 137.019531 L 137.609375 -44.601562 L -88.023438 107.742188 L 34.601562 289.359375 Z M 260.234375 137.019531 " clip-rule="nonzero"/></clipPath><clipPath id="71df4a489d"><path d="M 31.207031 104.3125 L 64.578125 104.3125 L 64.578125 168.339844 L 31.207031 168.339844 Z M 31.207031 104.3125 " clip-rule="nonzero"/></clipPath><clipPath id="b2520af84a"><path d="M 260.234375 137.019531 L 137.609375 -44.601562 L -88.023438 107.742188 L 34.601562 289.359375 Z M 260.234375 137.019531 " clip-rule="nonzero"/></clipPath><clipPath id="0ffcd8d8a0"><path d="M 260.234375 137.019531 L 137.609375 -44.601562 L -88.023438 107.742188 L 34.601562 289.359375 Z M 260.234375 137.019531 " clip-rule="nonzero"/></clipPath><clipPath id="e12a799dd5"><path d="M 142 57.378906 L 153.835938 57.378906 L 153.835938 76.640625 L 142 76.640625 Z M 142 57.378906 " clip-rule="nonzero"/></clipPath><clipPath id="b1de4ae3d6"><path d="M 260.234375 137.019531 L 137.609375 -44.601562 L -88.023438 107.742188 L 34.601562 289.359375 Z M 260.234375 137.019531 " clip-rule="nonzero"/></clipPath><clipPath id="77e561ef61"><path d="M 260.234375 137.019531 L 137.609375 -44.601562 L -88.023438 107.742188 L 34.601562 289.359375 Z M 260.234375 137.019531 " clip-rule="nonzero"/></clipPath><clipPath id="80f68b0f6c"><path d="M 142.441406 67.144531 L 162.789062 67.144531 L 162.789062 77.996094 L 142.441406 77.996094 Z M 142.441406 67.144531 " clip-rule="nonzero"/></clipPath><clipPath id="1de3c586e2"><path d="M 260.234375 137.019531 L 137.609375 -44.601562 L -88.023438 107.742188 L 34.601562 289.359375 Z M 260.234375 137.019531 " clip-rule="nonzero"/></clipPath><clipPath id="4c834aeb17"><path d="M 260.234375 137.019531 L 137.609375 -44.601562 L -88.023438 107.742188 L 34.601562 289.359375 Z M 260.234375 137.019531 " clip-rule="nonzero"/></clipPath><clipPath id="35eedfda4c"><path d="M 10.199219 76.097656 L 144.339844 76.097656 L 144.339844 204 L 10.199219 204 Z M 10.199219 76.097656 " clip-rule="nonzero"/></clipPath><clipPath id="a21a497b69"><path d="M 260.234375 137.019531 L 137.609375 -44.601562 L -88.023438 107.742188 L 34.601562 289.359375 Z M 260.234375 137.019531 " clip-rule="nonzero"/></clipPath><clipPath id="e51666704f"><path d="M 260.234375 137.019531 L 137.609375 -44.601562 L -88.023438 107.742188 L 34.601562 289.359375 Z M 260.234375 137.019531 " clip-rule="nonzero"/></clipPath><clipPath id="8850bf34fa"><path d="M 154.621094 91.886719 L 143.675781 75.675781 L -30.613281 193.351562 L -19.667969 209.5625 Z M 154.621094 91.886719 " clip-rule="nonzero"/></clipPath><clipPath id="d5bee99264"><path d="M 154.621094 91.886719 L 143.675781 75.675781 L -30.332031 193.160156 L -19.386719 209.371094 Z M 154.621094 91.886719 " clip-rule="nonzero"/></clipPath><clipPath id="a7036f3064"><path d="M 147.324219 19.398438 L 195.613281 19.398438 L 195.613281 66.332031 L 147.324219 66.332031 Z M 147.324219 19.398438 " clip-rule="nonzero"/></clipPath><clipPath id="3b1df85ea0"><path d="M 260.234375 137.019531 L 137.609375 -44.601562 L -88.023438 107.742188 L 34.601562 289.359375 Z M 260.234375 137.019531 " clip-rule="nonzero"/></clipPath><clipPath id="e5edee33fd"><path d="M 260.234375 137.019531 L 137.609375 -44.601562 L -88.023438 107.742188 L 34.601562 289.359375 Z M 260.234375 137.019531 " clip-rule="nonzero"/></clipPath><clipPath id="c14896eb1c"><path d="M 154.648438 62.535156 L 161.972656 62.535156 L 161.972656 66.332031 L 154.648438 66.332031 Z M 154.648438 62.535156 " clip-rule="nonzero"/></clipPath><clipPath id="fab70b8414"><path d="M 260.234375 137.019531 L 137.609375 -44.601562 L -88.023438 107.742188 L 34.601562 289.359375 Z M 260.234375 137.019531 " clip-rule="nonzero"/></clipPath><clipPath id="97125f84bb"><path d="M 260.234375 137.019531 L 137.609375 -44.601562 L -88.023438 107.742188 L 34.601562 289.359375 Z M 260.234375 137.019531 " clip-rule="nonzero"/></clipPath><clipPath id="fc7c7268e9"><path d="M 159.804688 50.597656 L 211 50.597656 L 211 83.421875 L 159.804688 83.421875 Z M 159.804688 50.597656 " clip-rule="nonzero"/></clipPath><clipPath id="bf83e172ba"><path d="M 260.234375 137.019531 L 137.609375 -44.601562 L -88.023438 107.742188 L 34.601562 289.359375 Z M 260.234375 137.019531 " clip-rule="nonzero"/></clipPath><clipPath id="3a0a3723f2"><path d="M 260.234375 137.019531 L 137.609375 -44.601562 L -88.023438 107.742188 L 34.601562 289.359375 Z M 260.234375 137.019531 " clip-rule="nonzero"/></clipPath><clipPath id="6be8867a04"><path d="M 122.636719 11.800781 L 152 11.800781 L 152 62.535156 L 122.636719 62.535156 Z M 122.636719 11.800781 " clip-rule="nonzero"/></clipPath><clipPath id="235ee9d97d"><path d="M 260.234375 137.019531 L 137.609375 -44.601562 L -88.023438 107.742188 L 34.601562 289.359375 Z M 260.234375 137.019531 " clip-rule="nonzero"/></clipPath><clipPath id="f3347ed747"><path d="M 260.234375 137.019531 L 137.609375 -44.601562 L -88.023438 107.742188 L 34.601562 289.359375 Z M 260.234375 137.019531 " clip-rule="nonzero"/></clipPath><clipPath id="89a7e476a2"><path d="M 155.734375 53.582031 L 172.28125 53.582031 L 172.28125 64.433594 L 155.734375 64.433594 Z M 155.734375 53.582031 " clip-rule="nonzero"/></clipPath><clipPath id="f01fc23adf"><path d="M 260.234375 137.019531 L 137.609375 -44.601562 L -88.023438 107.742188 L 34.601562 289.359375 Z M 260.234375 137.019531 " clip-rule="nonzero"/></clipPath><clipPath id="75ba5cac6f"><path d="M 260.234375 137.019531 L 137.609375 -44.601562 L -88.023438 107.742188 L 34.601562 289.359375 Z M 260.234375 137.019531 " clip-rule="nonzero"/></clipPath><clipPath id="bf3f7970ee"><path d="M 154.648438 62.535156 L 157.632812 62.535156 L 157.632812 64.433594 L 154.648438 64.433594 Z M 154.648438 62.535156 " clip-rule="nonzero"/></clipPath><clipPath id="2051b039a2"><path d="M 260.234375 137.019531 L 137.609375 -44.601562 L -88.023438 107.742188 L 34.601562 289.359375 Z M 260.234375 137.019531 " clip-rule="nonzero"/></clipPath><clipPath id="6912158ec1"><path d="M 260.234375 137.019531 L 137.609375 -44.601562 L -88.023438 107.742188 L 34.601562 289.359375 Z M 260.234375 137.019531 " clip-rule="nonzero"/></clipPath><clipPath id="91990386b9"><path d="M 154.378906 40.558594 L 161.703125 40.558594 L 161.703125 63.890625 L 154.378906 63.890625 Z M 154.378906 40.558594 " clip-rule="nonzero"/></clipPath><clipPath id="ad7a1c834b"><path d="M 260.234375 137.019531 L 137.609375 -44.601562 L -88.023438 107.742188 L 34.601562 289.359375 Z M 260.234375 137.019531 " clip-rule="nonzero"/></clipPath><clipPath id="7282226e8a"><path d="M 260.234375 137.019531 L 137.609375 -44.601562 L -88.023438 107.742188 L 34.601562 289.359375 Z M 260.234375 137.019531 " clip-rule="nonzero"/></clipPath><clipPath id="dc804e8309"><path d="M 154.648438 62 L 156.820312 62 L 156.820312 64.433594 L 154.648438 64.433594 Z M 154.648438 62 " clip-rule="nonzero"/></clipPath><clipPath id="57657888de"><path d="M 260.234375 137.019531 L 137.609375 -44.601562 L -88.023438 107.742188 L 34.601562 289.359375 Z M 260.234375 137.019531 " clip-rule="nonzero"/></clipPath><clipPath id="23ce6bb9d0"><path d="M 260.234375 137.019531 L 137.609375 -44.601562 L -88.023438 107.742188 L 34.601562 289.359375 Z M 260.234375 137.019531 " clip-rule="nonzero"/></clipPath><clipPath id="595e3c7cc9"><path d="M 160.074219 64 L 195.34375 64 L 195.34375 69 L 160.074219 69 Z M 160.074219 64 " clip-rule="nonzero"/></clipPath><clipPath id="06ad06a780"><path d="M 260.234375 137.019531 L 137.609375 -44.601562 L -88.023438 107.742188 L 34.601562 289.359375 Z M 260.234375 137.019531 " clip-rule="nonzero"/></clipPath><clipPath id="a4a588bfed"><path d="M 260.234375 137.019531 L 137.609375 -44.601562 L -88.023438 107.742188 L 34.601562 289.359375 Z M 260.234375 137.019531 " clip-rule="nonzero"/></clipPath><clipPath id="aef6023997"><path d="M 160.074219 64.433594 L 188.289062 64.433594 L 188.289062 76 L 160.074219 76 Z M 160.074219 64.433594 " clip-rule="nonzero"/></clipPath><clipPath id="057d4f47b7"><path d="M 260.234375 137.019531 L 137.609375 -44.601562 L -88.023438 107.742188 L 34.601562 289.359375 Z M 260.234375 137.019531 " clip-rule="nonzero"/></clipPath><clipPath id="e7b59643b9"><path d="M 260.234375 137.019531 L 137.609375 -44.601562 L -88.023438 107.742188 L 34.601562 289.359375 Z M 260.234375 137.019531 " clip-rule="nonzero"/></clipPath><clipPath id="38db7c84cb"><path d="M 62.679688 84 L 99.304688 84 L 99.304688 106 L 62.679688 106 Z M 62.679688 84 " clip-rule="nonzero"/></clipPath><clipPath id="9a6565ddc8"><path d="M 260.234375 137.019531 L 137.609375 -44.601562 L -88.023438 107.742188 L 34.601562 289.359375 Z M 260.234375 137.019531 " clip-rule="nonzero"/></clipPath><clipPath id="c6547ba7ff"><path d="M 260.234375 137.019531 L 137.609375 -44.601562 L -88.023438 107.742188 L 34.601562 289.359375 Z M 260.234375 137.019531 " clip-rule="nonzero"/></clipPath><clipPath id="58ffa22ebf"><path d="M 57.253906 63.617188 L 125.890625 63.617188 L 125.890625 122.21875 L 57.253906 122.21875 Z M 57.253906 63.617188 " clip-rule="nonzero"/></clipPath><clipPath id="a181a9924d"><path d="M 260.234375 137.019531 L 137.609375 -44.601562 L -88.023438 107.742188 L 34.601562 289.359375 Z M 260.234375 137.019531 " clip-rule="nonzero"/></clipPath><clipPath id="6608567297"><path d="M 260.234375 137.019531 L 137.609375 -44.601562 L -88.023438 107.742188 L 34.601562 289.359375 Z M 260.234375 137.019531 " clip-rule="nonzero"/></clipPath><clipPath id="c2dde1b5ec"><path d="M 67.019531 63.617188 L 125.890625 63.617188 L 125.890625 89.933594 L 67.019531 89.933594 Z M 67.019531 63.617188 " clip-rule="nonzero"/></clipPath><clipPath id="17ac2671bd"><path d="M 260.234375 137.019531 L 137.609375 -44.601562 L -88.023438 107.742188 L 34.601562 289.359375 Z M 260.234375 137.019531 " clip-rule="nonzero"/></clipPath><clipPath id="de7ab662d2"><path d="M 260.234375 137.019531 L 137.609375 -44.601562 L -88.023438 107.742188 L 34.601562 289.359375 Z M 260.234375 137.019531 " clip-rule="nonzero"/></clipPath><clipPath id="f835c0fa47"><path d="M 61.050781 160.472656 L 178.523438 160.472656 L 178.523438 200.894531 L 61.050781 200.894531 Z M 61.050781 160.472656 " clip-rule="nonzero"/></clipPath><clipPath id="4f0ff7a716"><path d="M 260.234375 137.019531 L 137.609375 -44.601562 L -88.023438 107.742188 L 34.601562 289.359375 Z M 260.234375 137.019531 " clip-rule="nonzero"/></clipPath><clipPath id="45f1b4854e"><path d="M 260.234375 137.019531 L 137.609375 -44.601562 L -88.023438 107.742188 L 34.601562 289.359375 Z M 260.234375 137.019531 " clip-rule="nonzero"/></clipPath><clipPath id="328222571c"><path d="M 77.871094 161.554688 L 178.523438 161.554688 L 178.523438 192.214844 L 77.871094 192.214844 Z M 77.871094 161.554688 " clip-rule="nonzero"/></clipPath><clipPath id="7468b43e99"><path d="M 260.234375 137.019531 L 137.609375 -44.601562 L -88.023438 107.742188 L 34.601562 289.359375 Z M 260.234375 137.019531 " clip-rule="nonzero"/></clipPath><clipPath id="bb7ac54c6e"><path d="M 260.234375 137.019531 L 137.609375 -44.601562 L -88.023438 107.742188 L 34.601562 289.359375 Z M 260.234375 137.019531 " clip-rule="nonzero"/></clipPath><clipPath id="e490a2fc94"><path d="M 86.011719 169 L 149.492188 169 L 149.492188 188.6875 L 86.011719 188.6875 Z M 86.011719 169 " clip-rule="nonzero"/></clipPath><clipPath id="21ecc02732"><path d="M 260.234375 137.019531 L 137.609375 -44.601562 L -88.023438 107.742188 L 34.601562 289.359375 Z M 260.234375 137.019531 " clip-rule="nonzero"/></clipPath><clipPath id="bd58539ba2"><path d="M 260.234375 137.019531 L 137.609375 -44.601562 L -88.023438 107.742188 L 34.601562 289.359375 Z M 260.234375 137.019531 " clip-rule="nonzero"/></clipPath><clipPath id="d9d5a0b4d0"><path d="M 83.027344 8.816406 L 98.761719 8.816406 L 98.761719 36.21875 L 83.027344 36.21875 Z M 83.027344 8.816406 " clip-rule="nonzero"/></clipPath><clipPath id="5840a1538e"><path d="M 260.234375 137.019531 L 137.609375 -44.601562 L -88.023438 107.742188 L 34.601562 289.359375 Z M 260.234375 137.019531 " clip-rule="nonzero"/></clipPath><clipPath id="4f841f8e78"><path d="M 260.234375 137.019531 L 137.609375 -44.601562 L -88.023438 107.742188 L 34.601562 289.359375 Z M 260.234375 137.019531 " clip-rule="nonzero"/></clipPath><clipPath id="ed27e708c5"><path d="M 77.328125 31.605469 L 91.4375 31.605469 L 91.4375 45.984375 L 77.328125 45.984375 Z M 77.328125 31.605469 " clip-rule="nonzero"/></clipPath><clipPath id="8263dc8ca3"><path d="M 260.234375 137.019531 L 137.609375 -44.601562 L -88.023438 107.742188 L 34.601562 289.359375 Z M 260.234375 137.019531 " clip-rule="nonzero"/></clipPath><clipPath id="870e0ba6e4"><path d="M 260.234375 137.019531 L 137.609375 -44.601562 L -88.023438 107.742188 L 34.601562 289.359375 Z M 260.234375 137.019531 " clip-rule="nonzero"/></clipPath><clipPath id="b509db0747"><path d="M 100.117188 8.273438 L 102.289062 8.273438 L 102.289062 13.429688 L 100.117188 13.429688 Z M 100.117188 8.273438 " clip-rule="nonzero"/></clipPath><clipPath id="b34e5b7cfa"><path d="M 260.234375 137.019531 L 137.609375 -44.601562 L -88.023438 107.742188 L 34.601562 289.359375 Z M 260.234375 137.019531 " clip-rule="nonzero"/></clipPath><clipPath id="49f77f46b3"><path d="M 260.234375 137.019531 L 137.609375 -44.601562 L -88.023438 107.742188 L 34.601562 289.359375 Z M 260.234375 137.019531 " clip-rule="nonzero"/></clipPath><clipPath id="a8468e28df"><path d="M 84.652344 11.53125 L 103.917969 11.53125 L 103.917969 37 L 84.652344 37 Z M 84.652344 11.53125 " clip-rule="nonzero"/></clipPath><clipPath id="7e3c078391"><path d="M 260.234375 137.019531 L 137.609375 -44.601562 L -88.023438 107.742188 L 34.601562 289.359375 Z M 260.234375 137.019531 " clip-rule="nonzero"/></clipPath><clipPath id="5c91cde76b"><path d="M 260.234375 137.019531 L 137.609375 -44.601562 L -88.023438 107.742188 L 34.601562 289.359375 Z M 260.234375 137.019531 " clip-rule="nonzero"/></clipPath><clipPath id="33a90795ed"><path d="M 85.738281 11.53125 L 102.289062 11.53125 L 102.289062 35.945312 L 85.738281 35.945312 Z M 85.738281 11.53125 " clip-rule="nonzero"/></clipPath><clipPath id="62313c9899"><path d="M 260.234375 137.019531 L 137.609375 -44.601562 L -88.023438 107.742188 L 34.601562 289.359375 Z M 260.234375 137.019531 " clip-rule="nonzero"/></clipPath><clipPath id="e887ed8a37"><path d="M 260.234375 137.019531 L 137.609375 -44.601562 L -88.023438 107.742188 L 34.601562 289.359375 Z M 260.234375 137.019531 " clip-rule="nonzero"/></clipPath><clipPath id="7d13e6e3ce"><path d="M 84.652344 8.546875 L 100.933594 8.546875 L 100.933594 35.945312 L 84.652344 35.945312 Z M 84.652344 8.546875 " clip-rule="nonzero"/></clipPath><clipPath id="c033a8b571"><path d="M 260.234375 137.019531 L 137.609375 -44.601562 L -88.023438 107.742188 L 34.601562 289.359375 Z M 260.234375 137.019531 " clip-rule="nonzero"/></clipPath><clipPath id="ea004c27d5"><path d="M 260.234375 137.019531 L 137.609375 -44.601562 L -88.023438 107.742188 L 34.601562 289.359375 Z M 260.234375 137.019531 " clip-rule="nonzero"/></clipPath><clipPath id="a08a041743"><path d="M 76.242188 8.273438 L 102.015625 8.273438 L 102.015625 35.675781 L 76.242188 35.675781 Z M 76.242188 8.273438 " clip-rule="nonzero"/></clipPath><clipPath id="5346ecfd69"><path d="M 260.234375 137.019531 L 137.609375 -44.601562 L -88.023438 107.742188 L 34.601562 289.359375 Z M 260.234375 137.019531 " clip-rule="nonzero"/></clipPath><clipPath id="ebb9f9f3b1"><path d="M 260.234375 137.019531 L 137.609375 -44.601562 L -88.023438 107.742188 L 34.601562 289.359375 Z M 260.234375 137.019531 " clip-rule="nonzero"/></clipPath><clipPath id="b9da65996d"><path d="M 27.410156 77.453125 L 52 77.453125 L 52 106.753906 L 27.410156 106.753906 Z M 27.410156 77.453125 " clip-rule="nonzero"/></clipPath><clipPath id="577cb5413f"><path d="M 260.234375 137.019531 L 137.609375 -44.601562 L -88.023438 107.742188 L 34.601562 289.359375 Z M 260.234375 137.019531 " clip-rule="nonzero"/></clipPath><clipPath id="2e9b91edb7"><path d="M 260.234375 137.019531 L 137.609375 -44.601562 L -88.023438 107.742188 L 34.601562 289.359375 Z M 260.234375 137.019531 " clip-rule="nonzero"/></clipPath><clipPath id="0ad9331c89"><path d="M 78.6875 30.792969 L 85.46875 30.792969 L 85.46875 45.441406 L 78.6875 45.441406 Z M 78.6875 30.792969 " clip-rule="nonzero"/></clipPath><clipPath id="56f7bfbf5f"><path d="M 260.234375 137.019531 L 137.609375 -44.601562 L -88.023438 107.742188 L 34.601562 289.359375 Z M 260.234375 137.019531 " clip-rule="nonzero"/></clipPath><clipPath id="4b2f95e7fb"><path d="M 260.234375 137.019531 L 137.609375 -44.601562 L -88.023438 107.742188 L 34.601562 289.359375 Z M 260.234375 137.019531 " clip-rule="nonzero"/></clipPath><clipPath id="335518e9bb"><path d="M 136.742188 30.25 L 151.394531 30.25 L 151.394531 60.363281 L 136.742188 60.363281 Z M 136.742188 30.25 " clip-rule="nonzero"/></clipPath><clipPath id="047a142ce1"><path d="M 260.234375 137.019531 L 137.609375 -44.601562 L -88.023438 107.742188 L 34.601562 289.359375 Z M 260.234375 137.019531 " clip-rule="nonzero"/></clipPath><clipPath id="5f45044942"><path d="M 260.234375 137.019531 L 137.609375 -44.601562 L -88.023438 107.742188 L 34.601562 289.359375 Z M 260.234375 137.019531 " clip-rule="nonzero"/></clipPath><clipPath id="c45199cade"><path d="M 142 74.742188 L 144.339844 74.742188 L 144.339844 77.996094 L 142 77.996094 Z M 142 74.742188 " clip-rule="nonzero"/></clipPath><clipPath id="b3b27c57da"><path d="M 260.234375 137.019531 L 137.609375 -44.601562 L -88.023438 107.742188 L 34.601562 289.359375 Z M 260.234375 137.019531 " clip-rule="nonzero"/></clipPath><clipPath id="af69202fa7"><path d="M 260.234375 137.019531 L 137.609375 -44.601562 L -88.023438 107.742188 L 34.601562 289.359375 Z M 260.234375 137.019531 " clip-rule="nonzero"/></clipPath></defs><g clip-path="url(#35363f02f3)"><g clip-path="url(#5e42c0eb4e)"><g clip-path="url(#fa04371a17)"><path fill="#000000" d="M 80.011719 159.339844 C 80.152344 159.546875 80.386719 159.691406 80.65625 159.699219 C 81.097656 159.714844 81.472656 159.382812 81.496094 158.941406 C 81.496094 158.921875 81.5 158.851562 81.496094 158.835938 C 81.488281 157.773438 81.578125 156.761719 81.777344 155.691406 C 82.738281 150.441406 86.101562 145.640625 88.921875 142.046875 C 97.242188 131.484375 105.78125 124.804688 115.03125 121.625 C 121.03125 119.558594 127.625 118.929688 134.003906 118.316406 C 137.398438 117.996094 140.902344 117.660156 144.277344 117.109375 C 144.71875 117.039062 145.023438 116.621094 144.949219 116.179688 C 144.878906 115.730469 144.460938 115.429688 144.015625 115.503906 C 140.695312 116.039062 137.214844 116.371094 133.847656 116.695312 C 127.375 117.3125 120.683594 117.957031 114.5 120.082031 C 104.945312 123.367188 96.160156 130.222656 87.640625 141.039062 C 84.703125 144.78125 81.199219 149.792969 80.171875 155.394531 C 79.957031 156.566406 79.855469 157.683594 79.867188 158.800781 L 80.683594 158.875 L 79.867188 158.863281 C 79.863281 159.039062 79.917969 159.203125 80.011719 159.339844 " fill-opacity="1" fill-rule="nonzero"/></g></g></g><g clip-path="url(#13d343beb4)"><g clip-path="url(#73d7b369a9)"><g clip-path="url(#136169f7d7)"><path fill="#000000" d="M 80.300781 156 C 80.492188 156.289062 80.859375 156.429688 81.214844 156.320312 C 94.398438 152.296875 106.421875 144.210938 115.066406 133.550781 C 115.351562 133.199219 115.300781 132.6875 114.949219 132.40625 C 114.597656 132.121094 114.085938 132.171875 113.800781 132.523438 C 105.359375 142.933594 93.617188 150.832031 80.738281 154.761719 C 80.308594 154.894531 80.0625 155.351562 80.195312 155.78125 C 80.222656 155.859375 80.253906 155.933594 80.300781 156 " fill-opacity="1" fill-rule="nonzero"/></g></g></g><g clip-path="url(#6901043823)"><g clip-path="url(#aeabdfa440)"><g clip-path="url(#dd01bc3c8d)"><path fill="#000000" d="M 111.621094 157.683594 C 111.871094 158.054688 112.375 158.152344 112.75 157.90625 C 113.785156 157.214844 114.699219 156.625 115.542969 156.101562 C 130.132812 146.921875 146.046875 140.441406 162.847656 136.84375 C 167.808594 135.785156 173.640625 134.808594 179.25 135.613281 C 182.914062 136.136719 186.660156 137.40625 190.285156 138.632812 C 192.78125 139.480469 195.359375 140.351562 197.878906 140.972656 C 198.316406 141.078125 198.757812 140.8125 198.867188 140.375 C 198.972656 139.9375 198.707031 139.496094 198.269531 139.386719 C 195.816406 138.785156 193.269531 137.921875 190.808594 137.089844 C 187.113281 135.835938 183.292969 134.542969 179.480469 133.996094 C 173.617188 133.160156 167.609375 134.160156 162.507812 135.25 C 145.519531 138.886719 129.425781 145.441406 114.679688 154.722656 C 113.828125 155.246094 112.898438 155.84375 111.84375 156.546875 C 111.46875 156.796875 111.367188 157.304688 111.617188 157.679688 C 111.617188 157.679688 111.617188 157.683594 111.621094 157.683594 " fill-opacity="1" fill-rule="nonzero"/></g></g></g><g clip-path="url(#23cfd64810)"><g clip-path="url(#7df9bba85d)"><g clip-path="url(#4538cbd0fe)"><path fill="#000000" d="M 114.4375 155.863281 C 114.554688 156.035156 114.726562 156.160156 114.941406 156.207031 C 122.835938 157.929688 131.945312 157.71875 142.023438 155.585938 C 149.328125 154.03125 156.527344 151.660156 163.480469 149.363281 C 166.796875 148.269531 170.230469 147.140625 173.621094 146.113281 C 174.054688 145.984375 174.296875 145.527344 174.167969 145.097656 C 174.039062 144.667969 173.582031 144.425781 173.148438 144.554688 C 169.738281 145.585938 166.296875 146.71875 162.972656 147.816406 C 156.054688 150.097656 148.902344 152.457031 141.6875 153.988281 C 131.835938 156.074219 122.953125 156.285156 115.289062 154.613281 C 114.847656 154.519531 114.414062 154.796875 114.320312 155.234375 C 114.269531 155.460938 114.320312 155.6875 114.4375 155.863281 " fill-opacity="1" fill-rule="nonzero"/></g></g></g><g clip-path="url(#d129394ebe)"><g clip-path="url(#b7328d34a3)"><g clip-path="url(#855d00cb95)"><path fill="#000000" d="M 95.214844 157.851562 C 95.433594 158.175781 95.859375 158.304688 96.226562 158.136719 C 101.351562 155.808594 106.222656 152.929688 110.703125 149.578125 C 117.890625 144.207031 124.207031 137.550781 130.316406 131.113281 C 134.902344 126.28125 139.648438 121.277344 144.679688 116.921875 C 145.023438 116.628906 145.058594 116.113281 144.761719 115.773438 C 144.46875 115.433594 143.953125 115.394531 143.609375 115.691406 C 138.519531 120.097656 133.746094 125.128906 129.132812 129.992188 C 123.070312 136.382812 116.804688 142.988281 109.730469 148.273438 C 105.339844 151.554688 100.574219 154.375 95.550781 156.652344 C 95.140625 156.839844 94.960938 157.320312 95.148438 157.734375 C 95.167969 157.773438 95.191406 157.816406 95.214844 157.851562 " fill-opacity="1" fill-rule="nonzero"/></g></g></g><g clip-path="url(#c8aac1fdd4)"><g clip-path="url(#428a023a50)"><g clip-path="url(#7c4cd7ecdc)"><path fill="#000000" d="M 52.132812 134.320312 C 52.277344 134.535156 52.523438 134.675781 52.804688 134.679688 C 53.253906 134.683594 53.621094 134.320312 53.625 133.867188 C 53.675781 126.398438 53.324219 118.828125 52.585938 111.359375 C 52.394531 109.425781 52.183594 107.53125 51.957031 105.738281 L 51.9375 105.585938 C 51.925781 105.472656 51.910156 105.363281 51.894531 105.257812 C 51.839844 104.8125 51.777344 104.335938 51.710938 103.863281 C 50.320312 93.476562 48.164062 83.167969 45.296875 73.1875 C 44.96875 72.039062 44.628906 70.890625 44.289062 69.738281 C 41.949219 61.8125 39.53125 53.617188 40.304688 45.445312 C 40.347656 44.996094 40.019531 44.597656 39.570312 44.554688 C 39.125 44.511719 38.726562 44.84375 38.683594 45.289062 C 37.878906 53.777344 40.34375 62.125 42.726562 70.199219 C 43.0625 71.347656 43.402344 72.492188 43.730469 73.636719 C 46.574219 83.539062 48.714844 93.769531 50.09375 104.039062 C 50.160156 104.546875 50.226562 105.011719 50.277344 105.472656 C 50.296875 105.59375 50.308594 105.691406 50.320312 105.785156 L 50.339844 105.949219 C 50.5625 107.722656 50.773438 109.597656 50.960938 111.519531 C 51.699219 118.929688 52.042969 126.445312 51.992188 133.859375 C 51.992188 134.03125 52.042969 134.1875 52.132812 134.320312 " fill-opacity="1" fill-rule="nonzero"/></g></g></g><g clip-path="url(#6812fd2c49)"><g clip-path="url(#688bfc1f17)"><g clip-path="url(#d5cebf862d)"><path fill="#000000" d="M 50.429688 105.828125 C 50.507812 105.941406 50.609375 106.035156 50.742188 106.097656 C 51.144531 106.292969 51.628906 106.140625 51.820312 105.734375 L 51.839844 105.703125 C 51.945312 105.472656 52.058594 105.242188 52.171875 105.019531 L 52.792969 103.757812 C 55.3125 98.636719 57.917969 93.339844 58.976562 87.601562 C 61.140625 75.871094 56.699219 64.34375 52.40625 53.199219 C 51.816406 51.664062 51.226562 50.136719 50.660156 48.621094 C 46.992188 38.789062 45.453125 30.625 45.957031 23.660156 C 45.988281 23.210938 45.652344 22.820312 45.203125 22.789062 C 44.753906 22.753906 44.363281 23.09375 44.332031 23.542969 C 43.8125 30.746094 45.378906 39.132812 49.132812 49.191406 C 49.703125 50.714844 50.292969 52.246094 50.882812 53.785156 C 55.097656 64.71875 59.453125 76.027344 57.371094 87.304688 C 56.355469 92.824219 53.800781 98.019531 51.328125 103.042969 L 50.714844 104.292969 C 50.601562 104.515625 50.484375 104.753906 50.371094 104.992188 C 50.238281 105.269531 50.269531 105.589844 50.429688 105.828125 " fill-opacity="1" fill-rule="nonzero"/></g></g></g><g clip-path="url(#832b75ef72)"><g clip-path="url(#d023e99a6a)"><g clip-path="url(#c8fb960d6b)"><path fill="#000000" d="M 47.417969 100.472656 C 48.324219 101.816406 49.269531 103.136719 50.25 104.425781 C 50.425781 104.664062 50.613281 104.90625 50.800781 105.148438 C 51.078125 105.503906 51.589844 105.570312 51.945312 105.292969 C 52.300781 105.019531 52.363281 104.503906 52.089844 104.152344 C 51.910156 103.917969 51.730469 103.6875 51.554688 103.449219 C 43.328125 92.628906 37.714844 79.839844 35.304688 66.433594 C 34.90625 64.214844 34.589844 61.925781 34.363281 59.625 C 33.457031 50.296875 34.371094 42.699219 37.152344 36.390625 C 38.953125 32.3125 41.761719 28.316406 45.734375 24.167969 C 46.046875 23.839844 46.035156 23.324219 45.707031 23.011719 C 45.382812 22.703125 44.867188 22.710938 44.554688 23.039062 C 40.449219 27.324219 37.539062 31.480469 35.664062 35.734375 C 32.761719 42.300781 31.804688 50.167969 32.742188 59.785156 C 32.96875 62.128906 33.292969 64.464844 33.699219 66.726562 C 35.867188 78.777344 40.582031 90.351562 47.417969 100.472656 " fill-opacity="1" fill-rule="nonzero"/></g></g></g><g clip-path="url(#a03a3a587b)"><g clip-path="url(#e5c954cef0)"><g clip-path="url(#ed18885832)"><g clip-path="url(#5663cc9533)"><g clip-path="url(#332ceb37c4)"><path fill="#000000" d="M 13.363281 40.535156 C 13.390625 40.578125 13.421875 40.617188 13.460938 40.65625 C 15.4375 42.628906 17.621094 44.480469 19.949219 46.15625 C 20.417969 46.496094 20.894531 46.824219 21.371094 47.152344 C 22.960938 48.257812 24.605469 49.398438 25.941406 50.777344 C 28.855469 53.78125 30.292969 57.726562 31.8125 61.90625 C 32.414062 63.558594 33.035156 65.273438 33.753906 66.910156 C 33.828125 67.074219 33.90625 67.253906 33.988281 67.429688 C 34.175781 67.84375 34.664062 68.035156 35.074219 67.847656 C 35.484375 67.664062 35.671875 67.195312 35.484375 66.789062 C 35.484375 66.785156 35.472656 66.753906 35.472656 66.753906 C 35.398438 66.589844 35.324219 66.429688 35.253906 66.265625 C 34.550781 64.667969 33.9375 62.980469 33.34375 61.347656 C 31.835938 57.191406 30.273438 52.894531 27.113281 49.640625 C 25.664062 48.148438 23.953125 46.960938 22.300781 45.8125 C 21.828125 45.488281 21.363281 45.164062 20.898438 44.832031 C 18.644531 43.207031 16.527344 41.414062 14.613281 39.5 C 14.292969 39.183594 13.777344 39.1875 13.460938 39.503906 C 13.179688 39.785156 13.148438 40.21875 13.363281 40.535156 " fill-opacity="1" fill-rule="nonzero"/></g></g></g></g></g><g clip-path="url(#c18298db20)"><g clip-path="url(#0b817974a1)"><g clip-path="url(#a58ad44d8a)"><g clip-path="url(#2be9672b18)"><g clip-path="url(#f5cc7bc157)"><path fill="#000000" d="M 27.644531 91.328125 C 33.296875 99.699219 40.484375 106.449219 48.542969 110.753906 C 49.515625 111.273438 50.488281 111.753906 51.4375 112.183594 C 51.847656 112.371094 52.332031 112.1875 52.515625 111.777344 C 52.703125 111.367188 52.515625 110.882812 52.109375 110.695312 C 51.195312 110.285156 50.253906 109.820312 49.3125 109.316406 C 36.734375 102.597656 26.320312 89.71875 20.75 73.980469 C 17.3125 64.261719 15.382812 53.164062 14.851562 40.046875 C 14.832031 39.597656 14.453125 39.246094 14.003906 39.265625 C 13.554688 39.28125 13.203125 39.664062 13.222656 40.113281 C 13.761719 53.394531 15.722656 64.652344 19.210938 74.523438 C 21.363281 80.597656 24.222656 86.261719 27.644531 91.328125 " fill-opacity="1" fill-rule="nonzero"/></g></g></g></g></g><g clip-path="url(#a889b8b9e6)"><g clip-path="url(#f4a544f809)"><g clip-path="url(#83ed6b46e6)"><path fill="#000000" d="M 27.535156 169.007812 C 27.734375 169.304688 28.117188 169.441406 28.472656 169.324219 C 29.765625 168.878906 31.105469 168.460938 32.453125 168.074219 C 38.761719 166.253906 45.253906 165.027344 53.0625 163.746094 C 54.015625 163.585938 54.96875 163.433594 55.917969 163.28125 C 58.003906 162.941406 60.097656 162.605469 62.183594 162.273438 C 67.742188 161.390625 74.296875 160.378906 80.78125 159.601562 C 86.21875 158.941406 91.175781 158.484375 95.9375 158.210938 C 101.71875 157.871094 107.058594 157.816406 112.261719 158.039062 C 112.292969 158.042969 112.324219 158.042969 112.355469 158.039062 C 112.359375 158.039062 112.425781 158.042969 112.433594 158.042969 C 116.757812 158.234375 121.175781 158.636719 125.449219 159.023438 C 134.082031 159.804688 143.007812 160.617188 151.800781 159.75 C 166.65625 158.289062 181.503906 152.285156 198.53125 140.855469 C 198.902344 140.605469 199.003906 140.101562 198.753906 139.726562 C 198.75 139.722656 198.75 139.722656 198.75 139.722656 C 198.5 139.351562 197.992188 139.253906 197.621094 139.503906 C 180.828125 150.777344 166.214844 156.695312 151.640625 158.128906 C 143 158.980469 134.152344 158.175781 125.597656 157.398438 C 121.304688 157.007812 116.867188 156.605469 112.488281 156.414062 C 112.40625 156.410156 112.351562 156.410156 112.296875 156.410156 C 107.050781 156.1875 101.667969 156.242188 95.84375 156.582031 C 91.046875 156.859375 86.054688 157.320312 80.582031 157.984375 C 74.074219 158.765625 67.5 159.777344 61.929688 160.664062 C 59.839844 160.996094 57.742188 161.332031 55.65625 161.671875 C 54.703125 161.824219 53.753906 161.980469 52.796875 162.136719 C 44.933594 163.429688 38.386719 164.667969 32.003906 166.507812 C 30.632812 166.898438 29.265625 167.328125 27.945312 167.777344 C 27.519531 167.925781 27.292969 168.386719 27.4375 168.8125 C 27.460938 168.882812 27.496094 168.949219 27.535156 169.007812 " fill-opacity="1" fill-rule="nonzero"/></g></g></g><g clip-path="url(#811e8c205b)"><g clip-path="url(#76044b4091)"><g clip-path="url(#959a4b6041)"><path fill="#000000" d="M 62.945312 105.617188 C 63.042969 105.765625 63.195312 105.882812 63.382812 105.941406 C 63.8125 106.070312 64.269531 105.824219 64.398438 105.394531 C 65.957031 100.226562 67.40625 94.769531 68.710938 89.171875 C 70.273438 82.449219 71.652344 75.414062 72.808594 68.257812 C 74.085938 60.371094 75.539062 51.429688 80.625 45.53125 C 80.921875 45.191406 80.882812 44.675781 80.539062 44.382812 C 80.199219 44.089844 79.6875 44.125 79.390625 44.46875 C 74 50.714844 72.511719 59.898438 71.199219 67.996094 C 70.046875 75.117188 68.675781 82.117188 67.121094 88.804688 C 65.828125 94.363281 64.386719 99.789062 62.839844 104.921875 C 62.765625 105.167969 62.8125 105.417969 62.945312 105.617188 " fill-opacity="1" fill-rule="nonzero"/></g></g></g><g clip-path="url(#71df4a489d)"><g clip-path="url(#b2520af84a)"><g clip-path="url(#0ffcd8d8a0)"><path fill="#000000" d="M 31.554688 167.746094 C 31.601562 167.808594 31.652344 167.871094 31.714844 167.921875 C 32.0625 168.207031 32.574219 168.15625 32.863281 167.804688 C 33.28125 167.296875 33.832031 166.617188 34.371094 165.910156 C 41.625 156.644531 48.082031 145.976562 53.546875 134.207031 C 55.386719 130.261719 57.183594 126.019531 58.886719 121.59375 C 60.886719 116.371094 62.742188 110.925781 64.402344 105.398438 C 64.53125 104.96875 64.289062 104.511719 63.859375 104.382812 C 63.425781 104.253906 62.972656 104.5 62.84375 104.929688 C 61.191406 110.417969 59.347656 115.828125 57.367188 121.011719 C 55.671875 125.398438 53.894531 129.605469 52.070312 133.519531 C 46.65625 145.175781 40.265625 155.738281 33.082031 164.914062 C 32.550781 165.609375 32.011719 166.273438 31.601562 166.773438 C 31.367188 167.058594 31.359375 167.453125 31.554688 167.746094 " fill-opacity="1" fill-rule="nonzero"/></g></g></g><g clip-path="url(#e12a799dd5)"><g clip-path="url(#b1de4ae3d6)"><g clip-path="url(#77e561ef61)"><path fill="#000000" d="M 142.257812 76.21875 C 142.328125 76.320312 142.417969 76.40625 142.535156 76.472656 C 142.925781 76.691406 143.421875 76.550781 143.644531 76.160156 C 144.316406 74.960938 144.355469 73.402344 144.390625 72.035156 L 144.402344 71.652344 C 144.507812 68.195312 146.085938 64.699219 148.722656 62.058594 C 149.410156 61.378906 150.164062 60.757812 150.957031 60.222656 C 151.652344 59.753906 152.378906 59.355469 153.121094 59.035156 C 153.535156 58.855469 153.726562 58.375 153.550781 57.960938 C 153.375 57.550781 152.890625 57.359375 152.476562 57.535156 C 151.640625 57.898438 150.820312 58.347656 150.046875 58.871094 C 149.167969 59.464844 148.335938 60.148438 147.570312 60.90625 C 144.640625 63.835938 142.894531 67.734375 142.773438 71.601562 L 142.761719 71.992188 C 142.734375 73.175781 142.695312 74.515625 142.222656 75.363281 C 142.066406 75.640625 142.089844 75.96875 142.257812 76.21875 " fill-opacity="1" fill-rule="nonzero"/></g></g></g><g clip-path="url(#80f68b0f6c)"><g clip-path="url(#1de3c586e2)"><g clip-path="url(#4c834aeb17)"><path fill="#000000" d="M 142.585938 77.425781 C 142.71875 77.617188 142.925781 77.75 143.171875 77.777344 C 143.238281 77.78125 143.296875 77.785156 143.363281 77.785156 C 147.445312 77.925781 151.269531 75.613281 154.472656 73.328125 L 154.917969 73.011719 C 157.21875 71.367188 159.597656 69.664062 162.128906 68.746094 C 162.550781 68.59375 162.769531 68.125 162.613281 67.699219 C 162.460938 67.277344 161.992188 67.058594 161.570312 67.210938 C 158.832031 68.207031 156.359375 69.976562 153.96875 71.6875 L 153.527344 72 C 150.542969 74.125 147.015625 76.28125 143.4375 76.15625 L 143.34375 76.15625 C 142.894531 76.117188 142.496094 76.445312 142.453125 76.890625 C 142.433594 77.085938 142.484375 77.277344 142.585938 77.425781 " fill-opacity="1" fill-rule="nonzero"/></g></g></g><g clip-path="url(#35eedfda4c)"><g clip-path="url(#a21a497b69)"><g clip-path="url(#e51666704f)"><g clip-path="url(#8850bf34fa)"><g clip-path="url(#d5bee99264)"><path fill="#000000" d="M -20.003906 208.453125 C -19.949219 208.539062 -19.875 208.613281 -19.789062 208.667969 C -19.417969 208.925781 -18.910156 208.828125 -18.65625 208.457031 C -6.808594 191.070312 11.066406 179.339844 28.617188 169.257812 C 30.445312 168.203125 32.285156 167.167969 34.121094 166.128906 C 36.234375 164.941406 38.355469 163.761719 40.480469 162.578125 C 51.078125 156.683594 62.03125 150.585938 71.988281 143.632812 C 88.804688 131.890625 103.519531 117.113281 117.753906 102.820312 C 126.144531 94.394531 134.820312 85.679688 143.832031 77.6875 L 143.953125 77.582031 C 144.289062 77.285156 144.324219 76.769531 144.019531 76.433594 C 143.722656 76.09375 143.207031 76.0625 142.871094 76.363281 L 142.757812 76.460938 C 133.703125 84.496094 125.007812 93.226562 116.597656 101.671875 C 102.414062 115.910156 87.75 130.636719 71.054688 142.296875 C 61.167969 149.203125 50.25 155.277344 39.6875 161.15625 C 37.5625 162.335938 35.441406 163.519531 33.324219 164.707031 C 31.476562 165.75 29.632812 166.789062 27.804688 167.84375 C 10.085938 178.023438 -7.96875 189.878906 -20.003906 207.539062 C -20.195312 207.820312 -20.1875 208.1875 -20.003906 208.453125 " fill-opacity="1" fill-rule="nonzero"/></g></g></g></g></g><g clip-path="url(#a7036f3064)"><g clip-path="url(#3b1df85ea0)"><g clip-path="url(#e5edee33fd)"><path fill="#000000" d="M 154.054688 62.324219 C 154.347656 62.757812 154.679688 63.171875 155.066406 63.523438 C 155.398438 63.832031 155.917969 63.804688 156.21875 63.472656 C 156.523438 63.140625 156.5 62.625 156.167969 62.320312 C 155.621094 61.824219 155.191406 61.113281 154.808594 60.417969 C 154.34375 59.574219 153.917969 58.738281 153.539062 57.9375 C 148.917969 48.207031 147.796875 36.683594 150.457031 26.3125 C 150.765625 25.125 151.25 23.996094 151.8125 23.136719 C 152.703125 21.792969 153.714844 21.175781 154.824219 21.292969 C 155.394531 21.355469 155.957031 21.621094 156.550781 21.90625 C 156.957031 22.101562 157.375 22.300781 157.828125 22.449219 C 159.8125 23.113281 161.828125 22.703125 163.78125 22.304688 L 164.167969 22.222656 C 169.320312 21.175781 173.265625 21.195312 176.59375 22.285156 C 180.070312 23.425781 183.820312 26.46875 184.355469 30.6875 C 184.507812 31.894531 184.398438 33.121094 184.28125 34.421875 C 184.191406 35.414062 184.101562 36.4375 184.132812 37.472656 C 184.207031 39.84375 185.261719 42.910156 188.003906 43.761719 C 188.742188 43.988281 189.480469 44.007812 190.195312 44.027344 C 190.894531 44.042969 191.558594 44.0625 192.121094 44.285156 C 193.511719 44.832031 194.0625 46.566406 193.875 47.917969 C 193.730469 48.96875 193.234375 50.039062 192.367188 51.191406 C 192.132812 51.5 191.867188 51.816406 191.53125 52.191406 C 185.035156 59.445312 175.195312 61.914062 163.945312 64.183594 C 162.898438 64.394531 161.972656 64.511719 161.117188 64.542969 C 160.667969 64.5625 160.320312 64.941406 160.335938 65.390625 C 160.351562 65.839844 160.730469 66.191406 161.179688 66.171875 C 162.121094 66.136719 163.132812 66.007812 164.265625 65.78125 C 173.167969 63.984375 185.359375 61.527344 192.746094 53.28125 C 193.117188 52.871094 193.40625 52.519531 193.667969 52.171875 C 194.707031 50.792969 195.304688 49.472656 195.488281 48.140625 C 195.769531 46.125 194.910156 43.632812 192.71875 42.769531 C 191.890625 42.4375 191.050781 42.417969 190.238281 42.394531 C 189.609375 42.382812 189.011719 42.363281 188.484375 42.203125 C 186.6875 41.648438 185.820312 39.398438 185.761719 37.421875 C 185.730469 36.488281 185.816406 35.554688 185.902344 34.566406 C 186.023438 33.238281 186.148438 31.863281 185.972656 30.484375 C 185.433594 26.21875 181.867188 22.300781 177.101562 20.734375 C 172.359375 19.183594 167.265625 19.929688 163.84375 20.628906 L 163.457031 20.707031 C 161.714844 21.0625 159.914062 21.429688 158.347656 20.902344 C 157.988281 20.785156 157.628906 20.613281 157.253906 20.433594 C 156.558594 20.105469 155.84375 19.757812 154.992188 19.671875 C 153.257812 19.484375 151.6875 20.371094 150.453125 22.238281 C 149.789062 23.238281 149.230469 24.542969 148.878906 25.90625 C 146.125 36.640625 147.285156 48.566406 152.066406 58.632812 C 152.457031 59.464844 152.898438 60.332031 153.382812 61.207031 C 153.585938 61.578125 153.808594 61.957031 154.054688 62.324219 " fill-opacity="1" fill-rule="nonzero"/></g></g></g><g clip-path="url(#c14896eb1c)"><g clip-path="url(#fab70b8414)"><g clip-path="url(#97125f84bb)"><path fill="#000000" d="M 155.039062 63.964844 L 155.078125 64.027344 C 156.226562 65.519531 158.148438 66.226562 160.824219 66.183594 C 160.882812 66.183594 160.980469 66.183594 161.074219 66.179688 L 161.160156 66.179688 C 161.609375 66.167969 161.96875 65.796875 161.957031 65.347656 C 161.949219 64.898438 161.578125 64.539062 161.128906 64.546875 L 161.027344 64.550781 C 160.960938 64.550781 160.898438 64.554688 160.832031 64.554688 C 158.664062 64.589844 157.1875 64.09375 156.398438 63.074219 L 156.390625 63.054688 C 156.136719 62.683594 155.632812 62.582031 155.257812 62.835938 C 154.886719 63.085938 154.789062 63.59375 155.039062 63.964844 " fill-opacity="1" fill-rule="nonzero"/></g></g></g><g clip-path="url(#fc7c7268e9)"><g clip-path="url(#bf83e172ba)"><g clip-path="url(#3a0a3723f2)"><path fill="#000000" d="M 161.96875 69.757812 C 162.929688 71.183594 164.160156 72.503906 165.585938 73.632812 C 168.878906 76.246094 172.859375 77.722656 176.3125 78.820312 C 182.730469 80.871094 189.410156 82.253906 196.167969 82.9375 C 199.648438 83.292969 203.296875 83.398438 206.40625 81.796875 C 209.652344 80.113281 212.019531 75.957031 210.378906 72.441406 C 209.710938 71.011719 208.546875 70.007812 207.425781 69.039062 C 206.46875 68.214844 205.5625 67.441406 205.003906 66.449219 C 204.214844 65.046875 204.160156 63.324219 204.101562 61.5 C 204.03125 59.308594 203.960938 57.042969 202.542969 55.222656 C 201.113281 53.386719 198.890625 52.757812 196.742188 52.152344 C 195.527344 51.808594 194.382812 51.488281 193.398438 50.960938 C 193.003906 50.75 192.507812 50.902344 192.296875 51.300781 C 192.085938 51.695312 192.234375 52.191406 192.632812 52.402344 C 193.769531 53.007812 195.054688 53.367188 196.296875 53.722656 C 198.28125 54.28125 200.15625 54.8125 201.257812 56.226562 C 202.347656 57.628906 202.40625 59.53125 202.472656 61.554688 C 202.535156 63.492188 202.597656 65.5 203.585938 67.25 C 204.28125 68.488281 205.339844 69.394531 206.359375 70.277344 C 207.398438 71.171875 208.382812 72.015625 208.902344 73.128906 C 210.128906 75.757812 208.175781 79.042969 205.660156 80.347656 C 202.925781 81.753906 199.5625 81.644531 196.332031 81.316406 C 189.6875 80.644531 183.117188 79.28125 176.808594 77.265625 C 173.492188 76.210938 169.683594 74.804688 166.597656 72.351562 C 164.894531 71.007812 163.5 69.363281 162.570312 67.597656 C 162.226562 66.953125 161.945312 66.296875 161.742188 65.640625 L 161.710938 65.550781 C 161.671875 65.421875 161.632812 65.289062 161.597656 65.15625 C 161.480469 64.722656 161.03125 64.464844 160.597656 64.578125 C 160.164062 64.695312 159.90625 65.140625 160.023438 65.578125 C 160.0625 65.726562 160.109375 65.878906 160.152344 66.027344 L 160.183594 66.121094 C 160.421875 66.882812 160.738281 67.632812 161.128906 68.363281 C 161.382812 68.835938 161.660156 69.304688 161.96875 69.757812 " fill-opacity="1" fill-rule="nonzero"/></g></g></g><g clip-path="url(#6be8867a04)"><g clip-path="url(#235ee9d97d)"><g clip-path="url(#f3347ed747)"><path fill="#000000" d="M 139.542969 51.71875 C 141.984375 55.335938 144.632812 58.808594 147.539062 62.027344 C 147.839844 62.363281 148.355469 62.390625 148.691406 62.089844 C 149.027344 61.789062 149.054688 61.277344 148.75 60.9375 C 138.34375 49.390625 131.25 34.488281 124.996094 21.335938 C 124.546875 20.398438 124.152344 19.347656 124.585938 18.691406 C 124.988281 18.089844 125.808594 18.105469 127.113281 18.175781 C 128.054688 18.226562 129.027344 18.28125 129.945312 17.972656 C 131.238281 17.53125 132.132812 16.421875 132.921875 15.449219 C 133.902344 14.238281 134.5625 13.503906 135.472656 13.546875 C 136.195312 13.582031 136.863281 14.15625 137.566406 14.765625 L 137.789062 14.957031 C 139.726562 16.613281 141.96875 17.847656 144.132812 19.046875 C 145.140625 19.601562 146.179688 20.175781 147.164062 20.777344 C 148.511719 21.609375 149.632812 22.429688 150.585938 23.292969 C 150.921875 23.597656 151.4375 23.570312 151.742188 23.234375 C 152.039062 22.898438 152.015625 22.386719 151.679688 22.082031 C 150.648438 21.152344 149.453125 20.273438 148.015625 19.390625 C 147 18.765625 145.945312 18.183594 144.921875 17.617188 C 142.828125 16.460938 140.660156 15.265625 138.847656 13.714844 L 138.628906 13.53125 C 137.789062 12.804688 136.835938 11.984375 135.554688 11.917969 C 133.746094 11.832031 132.632812 13.207031 131.65625 14.421875 C 130.941406 15.304688 130.269531 16.140625 129.417969 16.425781 C 128.804688 16.636719 127.992188 16.59375 127.207031 16.546875 C 125.78125 16.46875 124.171875 16.378906 123.226562 17.789062 C 122.226562 19.300781 123.132812 21.21875 123.519531 22.035156 C 128.09375 31.644531 133.105469 42.179688 139.542969 51.71875 " fill-opacity="1" fill-rule="nonzero"/></g></g></g><g clip-path="url(#89a7e476a2)"><g clip-path="url(#f01fc23adf)"><g clip-path="url(#75ba5cac6f)"><path fill="#000000" d="M 155.902344 64.019531 C 156.054688 64.246094 156.316406 64.390625 156.605469 64.382812 C 157.964844 64.335938 159.246094 63.808594 160.433594 63.242188 C 164.664062 61.207031 168.488281 58.472656 171.796875 55.113281 C 172.113281 54.792969 172.109375 54.277344 171.785156 53.960938 C 171.464844 53.644531 170.953125 53.648438 170.632812 53.96875 C 167.460938 57.191406 163.789062 59.816406 159.730469 61.769531 C 158.707031 62.257812 157.613281 62.714844 156.550781 62.75 C 156.101562 62.765625 155.746094 63.140625 155.761719 63.59375 C 155.769531 63.753906 155.820312 63.898438 155.902344 64.019531 " fill-opacity="1" fill-rule="nonzero"/></g></g></g><g clip-path="url(#bf3f7970ee)"><g clip-path="url(#2051b039a2)"><g clip-path="url(#6912158ec1)"><path fill="#000000" d="M 155.039062 63.96875 C 155.109375 64.070312 155.199219 64.15625 155.316406 64.21875 C 155.40625 64.269531 155.515625 64.308594 155.621094 64.320312 C 155.921875 64.375 156.246094 64.390625 156.613281 64.375 C 157.0625 64.351562 157.410156 63.972656 157.386719 63.523438 C 157.367188 63.074219 156.988281 62.722656 156.535156 62.746094 C 156.285156 62.757812 156.074219 62.746094 155.890625 62.714844 C 155.550781 62.640625 155.183594 62.789062 155.003906 63.109375 C 154.847656 63.386719 154.875 63.71875 155.039062 63.96875 " fill-opacity="1" fill-rule="nonzero"/></g></g></g><g clip-path="url(#91990386b9)"><g clip-path="url(#ad7a1c834b)"><g clip-path="url(#7282226e8a)"><path fill="#000000" d="M 154.941406 63.378906 C 155.117188 63.640625 155.433594 63.785156 155.761719 63.726562 C 156.203125 63.644531 156.5 63.222656 156.421875 62.78125 C 156.179688 61.433594 156.171875 59.84375 156.394531 57.917969 L 156.410156 57.777344 C 156.421875 57.6875 156.429688 57.59375 156.445312 57.507812 C 157.128906 52.089844 158.898438 46.730469 161.570312 41.980469 C 161.792969 41.585938 161.652344 41.089844 161.257812 40.871094 C 160.867188 40.648438 160.371094 40.789062 160.152344 41.183594 C 157.375 46.113281 155.539062 51.679688 154.832031 57.273438 C 154.816406 57.359375 154.804688 57.46875 154.792969 57.582031 L 154.773438 57.71875 C 154.53125 59.816406 154.546875 61.5625 154.816406 63.066406 C 154.835938 63.183594 154.878906 63.289062 154.941406 63.378906 " fill-opacity="1" fill-rule="nonzero"/></g></g></g><g clip-path="url(#dc804e8309)"><g clip-path="url(#57657888de)"><g clip-path="url(#23ce6bb9d0)"><path fill="#000000" d="M 156.433594 63.117188 Z M 155.078125 64.027344 C 155.332031 64.398438 155.839844 64.496094 156.210938 64.246094 C 156.511719 64.042969 156.632812 63.679688 156.539062 63.351562 C 156.539062 63.339844 156.535156 63.324219 156.53125 63.3125 C 156.492188 63.148438 156.453125 62.972656 156.425781 62.800781 C 156.355469 62.351562 155.9375 62.050781 155.492188 62.125 C 155.046875 62.195312 154.746094 62.613281 154.816406 63.058594 C 154.847656 63.261719 154.890625 63.46875 154.9375 63.660156 C 154.957031 63.792969 155.003906 63.917969 155.078125 64.027344 " fill-opacity="1" fill-rule="nonzero"/></g></g></g><g clip-path="url(#595e3c7cc9)"><g clip-path="url(#06ad06a780)"><g clip-path="url(#a4a588bfed)"><path fill="#000000" d="M 160.289062 66.339844 C 160.394531 66.5 160.554688 66.621094 160.75 66.671875 C 161.019531 66.746094 161.292969 66.800781 161.566406 66.859375 C 167.320312 68.160156 172.058594 68.828125 176.480469 68.960938 C 183.394531 69.171875 189.574219 68.042969 194.851562 65.601562 C 195.257812 65.414062 195.4375 64.925781 195.246094 64.519531 C 195.058594 64.113281 194.574219 63.933594 194.167969 64.121094 C 189.121094 66.457031 183.1875 67.535156 176.53125 67.335938 C 172.21875 67.203125 167.578125 66.546875 161.933594 65.273438 C 161.65625 65.214844 161.410156 65.164062 161.171875 65.097656 C 160.738281 64.980469 160.292969 65.238281 160.175781 65.675781 C 160.113281 65.914062 160.160156 66.152344 160.289062 66.339844 " fill-opacity="1" fill-rule="nonzero"/></g></g></g><g clip-path="url(#aef6023997)"><g clip-path="url(#057d4f47b7)"><g clip-path="url(#e7b59643b9)"><path fill="#000000" d="M 160.472656 65.816406 C 160.5 65.859375 160.527344 65.894531 160.5625 65.929688 C 160.757812 66.167969 160.949219 66.394531 161.152344 66.617188 C 161.601562 67.125 162.105469 67.644531 162.640625 68.152344 C 169.25 74.429688 178.757812 77.167969 187.449219 75.289062 C 187.886719 75.191406 188.167969 74.757812 188.070312 74.320312 C 187.976562 73.882812 187.542969 73.597656 187.105469 73.695312 C 178.933594 75.460938 169.988281 72.886719 163.765625 66.96875 C 163.261719 66.492188 162.792969 66.007812 162.363281 65.527344 C 162.15625 65.300781 161.96875 65.078125 161.785156 64.847656 C 161.519531 64.519531 161.046875 64.445312 160.695312 64.683594 C 160.320312 64.9375 160.21875 65.445312 160.472656 65.816406 " fill-opacity="1" fill-rule="nonzero"/></g></g></g><g clip-path="url(#38db7c84cb)"><g clip-path="url(#9a6565ddc8)"><g clip-path="url(#c6547ba7ff)"><path fill="#000000" d="M 62.945312 105.617188 C 62.992188 105.6875 63.054688 105.753906 63.128906 105.808594 C 63.488281 106.082031 64 106.007812 64.269531 105.648438 C 72.527344 94.722656 85.285156 87.257812 98.386719 85.675781 C 98.835938 85.621094 99.152344 85.214844 99.101562 84.769531 C 99.046875 84.320312 98.640625 84.003906 98.195312 84.058594 C 84.453125 85.714844 71.617188 93.226562 62.96875 104.664062 C 62.753906 104.953125 62.753906 105.332031 62.945312 105.617188 " fill-opacity="1" fill-rule="nonzero"/></g></g></g><g clip-path="url(#58ffa22ebf)"><g clip-path="url(#a181a9924d)"><g clip-path="url(#6608567297)"><path fill="#000000" d="M 57.449219 121.757812 C 57.503906 121.839844 57.570312 121.910156 57.65625 121.96875 C 58.023438 122.230469 58.53125 122.140625 58.789062 121.773438 C 62.296875 116.800781 67.867188 112.832031 76.316406 109.28125 C 78.566406 108.339844 80.898438 107.460938 83.152344 106.609375 C 87.90625 104.820312 92.820312 102.96875 97.316406 100.386719 C 109.097656 93.628906 118.359375 82.007812 125.632812 64.863281 C 125.808594 64.445312 125.613281 63.96875 125.203125 63.792969 C 124.785156 63.617188 124.308594 63.808594 124.132812 64.226562 C 117.003906 81.03125 107.96875 92.398438 96.507812 98.972656 C 92.121094 101.488281 87.265625 103.316406 82.578125 105.085938 C 80.308594 105.941406 77.960938 106.824219 75.6875 107.78125 C 66.941406 111.453125 61.148438 115.601562 57.460938 120.832031 C 57.257812 121.117188 57.265625 121.484375 57.449219 121.757812 " fill-opacity="1" fill-rule="nonzero"/></g></g></g><g clip-path="url(#c2dde1b5ec)"><g clip-path="url(#17ac2671bd)"><g clip-path="url(#de7ab662d2)"><path fill="#000000" d="M 67.238281 89.445312 C 67.269531 89.488281 67.304688 89.53125 67.347656 89.570312 C 67.667969 89.886719 68.183594 89.882812 68.5 89.558594 C 76.753906 81.117188 87.445312 75.136719 98.609375 72.714844 C 100.996094 72.191406 103.46875 71.8125 105.855469 71.441406 C 109.183594 70.929688 112.625 70.398438 115.949219 69.476562 C 119.585938 68.476562 122.75 67.039062 125.351562 65.210938 C 125.714844 64.953125 125.808594 64.453125 125.558594 64.085938 C 125.558594 64.082031 125.558594 64.082031 125.554688 64.078125 C 125.300781 63.710938 124.800781 63.613281 124.433594 63.863281 L 124.425781 63.867188 C 121.96875 65.597656 118.972656 66.957031 115.511719 67.90625 C 112.28125 68.804688 108.886719 69.328125 105.605469 69.832031 C 103.195312 70.203125 100.699219 70.589844 98.261719 71.121094 C 86.792969 73.609375 75.808594 79.753906 67.332031 88.417969 C 67.058594 88.699219 67.027344 89.132812 67.238281 89.445312 " fill-opacity="1" fill-rule="nonzero"/></g></g></g><g clip-path="url(#f835c0fa47)"><g clip-path="url(#4f0ff7a716)"><g clip-path="url(#45f1b4854e)"><path fill="#000000" d="M 61.382812 161.925781 C 61.527344 162.140625 61.773438 162.285156 62.054688 162.285156 C 65.289062 162.296875 68.632812 162.820312 72 163.835938 C 74.09375 164.476562 76.261719 165.316406 78.4375 166.335938 C 80.945312 167.503906 83.609375 168.96875 86.589844 170.8125 C 87.832031 171.585938 89.15625 172.433594 90.640625 173.417969 C 93.378906 175.230469 96.136719 177.128906 98.804688 178.964844 C 105.738281 183.738281 112.910156 188.679688 120.527344 192.625 C 132.851562 199.003906 144.46875 201.644531 155.066406 200.46875 C 162.519531 199.632812 170.058594 196.886719 178.121094 192.0625 C 178.507812 191.832031 178.632812 191.332031 178.402344 190.945312 C 178.179688 190.558594 177.671875 190.433594 177.285156 190.664062 C 169.425781 195.363281 162.101562 198.039062 154.886719 198.84375 C 144.617188 199.988281 133.308594 197.40625 121.277344 191.175781 C 113.75 187.277344 106.621094 182.371094 99.730469 177.625 C 97.054688 175.785156 94.292969 173.878906 91.539062 172.0625 C 90.046875 171.066406 88.707031 170.207031 87.445312 169.429688 C 84.414062 167.546875 81.691406 166.054688 79.128906 164.863281 C 76.882812 163.808594 74.644531 162.9375 72.472656 162.277344 C 68.953125 161.210938 65.449219 160.664062 62.058594 160.652344 C 61.609375 160.652344 61.242188 161.015625 61.242188 161.464844 C 61.242188 161.636719 61.292969 161.792969 61.382812 161.925781 " fill-opacity="1" fill-rule="nonzero"/></g></g></g><g clip-path="url(#328222571c)"><g clip-path="url(#7468b43e99)"><g clip-path="url(#bb7ac54c6e)"><path fill="#000000" d="M 78.109375 166.054688 C 78.324219 166.371094 78.738281 166.503906 79.101562 166.351562 C 83.703125 164.40625 88.996094 163.367188 94.40625 163.339844 C 104.621094 163.273438 114.457031 166.511719 121.878906 169.335938 C 128.289062 171.777344 134.59375 174.589844 140.621094 177.6875 C 142.632812 178.722656 144.667969 179.820312 146.636719 180.875 C 152.433594 183.992188 158.425781 187.214844 164.765625 189.433594 C 169.195312 190.980469 173.53125 191.90625 177.648438 192.175781 C 178.097656 192.207031 178.488281 191.867188 178.515625 191.414062 C 178.546875 190.96875 178.207031 190.578125 177.757812 190.550781 C 173.785156 190.289062 169.59375 189.394531 165.304688 187.890625 C 159.085938 185.71875 153.148438 182.527344 147.410156 179.4375 C 145.433594 178.378906 143.394531 177.28125 141.367188 176.238281 C 135.285156 173.113281 128.925781 170.277344 122.460938 167.8125 C 114.902344 164.9375 104.882812 161.644531 94.394531 161.710938 C 88.777344 161.738281 83.265625 162.820312 78.46875 164.847656 C 78.054688 165.023438 77.859375 165.5 78.035156 165.917969 C 78.054688 165.964844 78.082031 166.011719 78.109375 166.054688 " fill-opacity="1" fill-rule="nonzero"/></g></g></g><g clip-path="url(#e490a2fc94)"><g clip-path="url(#21ecc02732)"><g clip-path="url(#bd58539ba2)"><path fill="#000000" d="M 86.34375 170.578125 C 86.503906 170.820312 86.792969 170.964844 87.101562 170.933594 C 93.796875 170.230469 100.570312 171.09375 106.6875 173.429688 C 111.011719 175.074219 115.105469 177.453125 119.066406 179.757812 C 121.480469 181.160156 123.976562 182.613281 126.515625 183.898438 C 134.945312 188.160156 142.4375 189.453125 148.789062 187.734375 C 149.222656 187.617188 149.480469 187.171875 149.363281 186.734375 C 149.246094 186.300781 148.796875 186.042969 148.363281 186.160156 C 142.414062 187.765625 135.308594 186.515625 127.253906 182.441406 C 124.753906 181.179688 122.28125 179.742188 119.882812 178.347656 C 115.867188 176.011719 111.714844 173.597656 107.269531 171.90625 C 100.914062 169.480469 93.882812 168.582031 86.933594 169.3125 C 86.484375 169.355469 86.160156 169.757812 86.207031 170.207031 C 86.222656 170.34375 86.269531 170.472656 86.34375 170.578125 " fill-opacity="1" fill-rule="nonzero"/></g></g></g><g clip-path="url(#d9d5a0b4d0)"><g clip-path="url(#5840a1538e)"><g clip-path="url(#4f841f8e78)"><path fill="#000000" d="M 85.242188 35.683594 C 85.457031 36.003906 85.882812 36.136719 86.25 35.96875 C 86.65625 35.785156 86.84375 35.304688 86.660156 34.894531 L 86.628906 34.820312 C 86.578125 34.710938 86.527344 34.601562 86.480469 34.488281 C 86.046875 33.527344 85.703125 32.539062 85.4375 31.519531 C 84.804688 29.082031 84.683594 26.546875 85.09375 24.1875 C 85.867188 19.667969 88.582031 15.65625 92.359375 13.449219 C 93.242188 12.933594 94.164062 12.519531 95.140625 12.078125 C 95.648438 11.847656 96.152344 11.621094 96.65625 11.375 C 97.304688 11.058594 97.835938 10.78125 98.324219 10.5 C 98.714844 10.277344 98.847656 9.777344 98.628906 9.390625 C 98.402344 9 97.90625 8.859375 97.515625 9.085938 C 97.054688 9.34375 96.554688 9.609375 95.9375 9.910156 C 95.457031 10.144531 94.960938 10.367188 94.46875 10.589844 C 93.496094 11.03125 92.492188 11.484375 91.539062 12.042969 C 87.351562 14.488281 84.339844 18.925781 83.484375 23.910156 C 83.039062 26.496094 83.171875 29.269531 83.863281 31.925781 C 84.144531 33.035156 84.523438 34.113281 84.984375 35.132812 C 85.027344 35.234375 85.085938 35.363281 85.140625 35.488281 L 85.171875 35.558594 C 85.191406 35.605469 85.214844 35.644531 85.242188 35.683594 " fill-opacity="1" fill-rule="nonzero"/></g></g></g><g clip-path="url(#ed27e708c5)"><g clip-path="url(#8263dc8ca3)"><g clip-path="url(#870e0ba6e4)"><path fill="#000000" d="M 78.910156 45.117188 C 79.03125 45.292969 79.195312 45.457031 79.390625 45.59375 C 79.492188 45.65625 79.597656 45.714844 79.722656 45.761719 C 80.183594 45.960938 80.691406 45.917969 81.066406 45.886719 C 83.386719 45.644531 86.328125 45.144531 88.597656 43.359375 C 90.699219 41.707031 92.191406 38.570312 90.992188 35.761719 C 90.964844 35.6875 90.929688 35.609375 90.894531 35.558594 C 90.640625 35.183594 90.136719 35.085938 89.761719 35.339844 C 89.433594 35.558594 89.320312 35.976562 89.464844 36.328125 C 89.472656 36.347656 89.480469 36.367188 89.488281 36.386719 C 90.367188 38.421875 89.167969 40.839844 87.589844 42.082031 C 85.648438 43.605469 83 44.046875 80.910156 44.265625 C 80.734375 44.277344 80.449219 44.300781 80.332031 44.25 C 80.273438 44.21875 80.261719 44.199219 80.253906 44.1875 C 80.140625 43.976562 80.128906 43.566406 80.121094 43.230469 C 80.117188 43.117188 80.113281 43 80.109375 42.890625 C 80.066406 42.058594 79.8125 41.308594 79.566406 40.582031 C 79.351562 39.945312 79.148438 39.347656 79.109375 38.757812 C 79.035156 37.59375 79.558594 36.425781 80.710938 35.183594 C 81.402344 34.421875 82.238281 33.738281 82.972656 33.167969 C 83.328125 32.890625 83.390625 32.371094 83.113281 32.023438 C 82.835938 31.667969 82.320312 31.605469 81.96875 31.882812 C 81.183594 32.496094 80.28125 33.234375 79.511719 34.078125 C 78.042969 35.660156 77.375 37.230469 77.480469 38.867188 C 77.535156 39.671875 77.785156 40.402344 78.019531 41.101562 C 78.242188 41.753906 78.449219 42.367188 78.480469 42.972656 C 78.488281 43.066406 78.488281 43.167969 78.492188 43.273438 C 78.503906 43.808594 78.519531 44.417969 78.8125 44.949219 C 78.839844 45.003906 78.875 45.058594 78.910156 45.117188 " fill-opacity="1" fill-rule="nonzero"/></g></g></g><g clip-path="url(#b509db0747)"><g clip-path="url(#b34e5b7cfa)"><g clip-path="url(#49f77f46b3)"><path fill="#000000" d="M 100.769531 12.847656 C 100.9375 13.097656 101.238281 13.242188 101.554688 13.199219 C 102 13.140625 102.3125 12.730469 102.253906 12.285156 C 102.113281 11.230469 102.03125 10.191406 102.007812 9.199219 C 101.996094 8.75 101.621094 8.394531 101.175781 8.40625 C 100.722656 8.414062 100.367188 8.789062 100.375 9.238281 C 100.402344 10.289062 100.488281 11.386719 100.636719 12.5 C 100.65625 12.628906 100.703125 12.746094 100.769531 12.847656 " fill-opacity="1" fill-rule="nonzero"/></g></g></g><g clip-path="url(#a8468e28df)"><g clip-path="url(#7e3c078391)"><g clip-path="url(#5c91cde76b)"><path fill="#000000" d="M 84.902344 35.542969 C 84.976562 35.65625 85.082031 35.75 85.210938 35.816406 C 85.347656 35.882812 85.496094 35.941406 85.636719 35.992188 C 86.027344 36.148438 86.441406 36.285156 86.847656 36.398438 C 87.96875 36.707031 89.101562 36.871094 90.230469 36.878906 C 92.058594 36.914062 93.882812 36.574219 95.496094 35.902344 C 99.144531 34.394531 101.988281 31.222656 103.101562 27.425781 C 104.238281 23.527344 103.507812 19.480469 102.800781 15.566406 C 102.667969 14.824219 102.535156 14.082031 102.414062 13.339844 C 102.355469 12.992188 102.304688 12.636719 102.25 12.28125 C 102.183594 11.839844 101.769531 11.53125 101.324219 11.59375 C 100.882812 11.660156 100.574219 12.078125 100.640625 12.519531 C 100.691406 12.882812 100.746094 13.246094 100.804688 13.605469 C 100.925781 14.351562 101.0625 15.101562 101.195312 15.859375 C 101.871094 19.585938 102.566406 23.4375 101.539062 26.96875 C 100.574219 30.246094 98.019531 33.09375 94.871094 34.394531 C 93.460938 34.984375 91.863281 35.277344 90.25 35.25 C 89.261719 35.238281 88.261719 35.097656 87.285156 34.828125 C 86.929688 34.730469 86.570312 34.609375 86.214844 34.46875 C 86.109375 34.429688 86.019531 34.398438 85.941406 34.359375 C 85.539062 34.15625 85.050781 34.320312 84.847656 34.722656 C 84.710938 34.992188 84.742188 35.304688 84.902344 35.542969 " fill-opacity="1" fill-rule="nonzero"/></g></g></g><g clip-path="url(#33a90795ed)"><g clip-path="url(#62313c9899)"><g clip-path="url(#e887ed8a37)"><path fill="#000000" d="M 85.976562 35.375 C 86.160156 35.648438 86.496094 35.789062 86.835938 35.714844 C 90.707031 34.828125 94.25 32.167969 96.804688 28.230469 C 99.257812 24.425781 100.429688 20.042969 101.179688 16.644531 L 101.210938 16.507812 C 101.488281 15.226562 101.78125 13.894531 102.214844 12.675781 C 102.230469 12.628906 102.242188 12.582031 102.25 12.535156 C 102.285156 12.335938 102.246094 12.117188 102.121094 11.9375 C 101.871094 11.5625 101.363281 11.464844 100.988281 11.71875 C 100.828125 11.828125 100.714844 11.988281 100.664062 12.164062 C 100.203125 13.472656 99.90625 14.839844 99.617188 16.160156 L 99.585938 16.296875 C 98.871094 19.558594 97.75 23.761719 95.4375 27.34375 C 93.148438 30.871094 89.878906 33.34375 86.46875 34.125 C 86.03125 34.226562 85.757812 34.660156 85.855469 35.101562 C 85.882812 35.199219 85.921875 35.292969 85.976562 35.375 " fill-opacity="1" fill-rule="nonzero"/></g></g></g><g clip-path="url(#7d13e6e3ce)"><g clip-path="url(#c033a8b571)"><g clip-path="url(#ea004c27d5)"><path fill="#000000" d="M 84.902344 35.542969 C 84.972656 35.648438 85.074219 35.742188 85.195312 35.808594 C 85.59375 36.015625 86.085938 35.867188 86.296875 35.46875 L 86.449219 35.179688 C 87.324219 33.441406 88.1875 31.71875 89.050781 29.996094 C 89.871094 28.367188 90.691406 26.734375 91.511719 25.105469 C 94.363281 19.449219 97.007812 14.410156 100.503906 10.035156 C 100.78125 9.683594 100.726562 9.171875 100.375 8.890625 C 100.019531 8.605469 99.507812 8.667969 99.226562 9.019531 C 95.640625 13.511719 92.84375 18.84375 90.054688 24.371094 C 89.234375 26.003906 88.414062 27.632812 87.597656 29.261719 C 86.730469 30.984375 85.867188 32.707031 85 34.429688 L 84.855469 34.703125 C 84.710938 34.980469 84.738281 35.300781 84.902344 35.542969 " fill-opacity="1" fill-rule="nonzero"/></g></g></g><g clip-path="url(#a08a041743)"><g clip-path="url(#5346ecfd69)"><g clip-path="url(#ebb9f9f3b1)"><path fill="#000000" d="M 79.210938 34.761719 C 79.289062 34.875 79.367188 34.988281 79.449219 35.097656 C 79.710938 35.464844 80.21875 35.554688 80.585938 35.292969 C 80.945312 35.035156 81.035156 34.539062 80.789062 34.171875 C 80.785156 34.164062 80.78125 34.160156 80.777344 34.15625 C 78.421875 30.84375 77.449219 26.808594 78.058594 23.03125 C 78.925781 17.671875 83.125 12.953125 88.273438 11.5625 C 90.296875 11.015625 92.519531 10.914062 94.675781 10.8125 C 95.769531 10.765625 96.902344 10.710938 98 10.601562 C 98.65625 10.542969 99.332031 10.449219 100.011719 10.328125 C 100.480469 10.242188 100.949219 10.132812 101.410156 10.003906 C 101.84375 9.882812 102.097656 9.433594 101.976562 9 C 101.855469 8.566406 101.40625 8.3125 100.972656 8.4375 C 100.5625 8.550781 100.136719 8.648438 99.71875 8.722656 C 99.089844 8.839844 98.460938 8.921875 97.84375 8.980469 C 96.78125 9.085938 95.671875 9.136719 94.601562 9.1875 C 92.359375 9.289062 90.042969 9.394531 87.847656 9.988281 C 82.101562 11.542969 77.417969 16.800781 76.453125 22.769531 C 75.792969 26.839844 76.796875 31.1875 79.210938 34.761719 " fill-opacity="1" fill-rule="nonzero"/></g></g></g><g clip-path="url(#b9da65996d)"><g clip-path="url(#577cb5413f)"><g clip-path="url(#2e9b91edb7)"><path fill="#000000" d="M 32.917969 90.582031 C 34.242188 92.546875 35.777344 94.445312 37.503906 96.253906 C 40.949219 99.851562 45.199219 103.171875 50.5 106.40625 L 50.613281 106.472656 C 50.660156 106.5 50.703125 106.527344 50.75 106.554688 C 51.140625 106.773438 51.636719 106.632812 51.859375 106.242188 C 52.078125 105.847656 51.941406 105.355469 51.546875 105.132812 L 51.460938 105.082031 C 51.417969 105.050781 51.371094 105.027344 51.324219 105 C 46.171875 101.855469 42.027344 98.621094 38.683594 95.125 C 33.765625 89.980469 30.492188 84.097656 29.226562 78.117188 C 29.132812 77.683594 28.703125 77.398438 28.261719 77.492188 C 27.820312 77.585938 27.539062 78.019531 27.632812 78.457031 C 28.511719 82.617188 30.3125 86.722656 32.917969 90.582031 " fill-opacity="1" fill-rule="nonzero"/></g></g></g><g clip-path="url(#0ad9331c89)"><g clip-path="url(#56f7bfbf5f)"><g clip-path="url(#4b2f95e7fb)"><path fill="#000000" d="M 78.851562 45.011719 C 79.085938 45.359375 79.554688 45.472656 79.929688 45.261719 C 81.152344 44.566406 82.199219 43.597656 82.957031 42.457031 C 83.65625 41.394531 84.15625 40.152344 84.492188 38.648438 C 84.789062 37.359375 84.9375 36.011719 85.082031 34.707031 C 85.183594 33.761719 85.292969 32.785156 85.453125 31.863281 C 85.53125 31.417969 85.234375 30.996094 84.789062 30.917969 C 84.347656 30.839844 83.925781 31.136719 83.847656 31.582031 C 83.679688 32.554688 83.566406 33.558594 83.460938 34.53125 C 83.320312 35.789062 83.179688 37.089844 82.902344 38.289062 C 82.609375 39.597656 82.183594 40.664062 81.59375 41.554688 C 80.980469 42.484375 80.125 43.277344 79.125 43.847656 C 78.730469 44.066406 78.59375 44.566406 78.816406 44.957031 C 78.828125 44.976562 78.839844 44.996094 78.851562 45.011719 " fill-opacity="1" fill-rule="nonzero"/></g></g></g><g clip-path="url(#335518e9bb)"><g clip-path="url(#047a142ce1)"><g clip-path="url(#5f45044942)"><path fill="#000000" d="M 146.78125 55.859375 C 147.75 57.296875 148.78125 58.695312 149.867188 60.054688 C 150.148438 60.40625 150.660156 60.464844 151.011719 60.183594 C 151.363281 59.898438 151.417969 59.378906 151.140625 59.035156 C 144.640625 50.914062 140.234375 41.25 138.398438 31.085938 C 138.316406 30.644531 137.894531 30.347656 137.453125 30.429688 C 137.007812 30.507812 136.714844 30.933594 136.792969 31.375 C 138.371094 40.105469 141.792969 48.472656 146.78125 55.859375 " fill-opacity="1" fill-rule="nonzero"/></g></g></g><g clip-path="url(#c45199cade)"><g clip-path="url(#b3b27c57da)"><g clip-path="url(#af69202fa7)"><path fill="#000000" d="M 144.035156 76.738281 C 144.035156 76.738281 144.035156 76.738281 144.035156 76.742188 C 144.035156 76.738281 144.035156 76.738281 144.035156 76.738281 Z M 144.035156 76.742188 Z M 142.617188 77.53125 C 142.835938 77.855469 143.261719 77.984375 143.628906 77.816406 C 144.027344 77.636719 144.210938 77.179688 144.050781 76.777344 C 144.042969 76.753906 144.035156 76.714844 144.03125 76.707031 C 143.910156 76.355469 143.8125 75.976562 143.730469 75.59375 C 143.640625 75.152344 143.207031 74.871094 142.761719 74.964844 C 142.324219 75.054688 142.042969 75.488281 142.136719 75.929688 C 142.226562 76.375 142.347656 76.8125 142.484375 77.226562 C 142.496094 77.277344 142.519531 77.34375 142.550781 77.414062 C 142.570312 77.457031 142.59375 77.496094 142.617188 77.53125 " fill-opacity="1" fill-rule="nonzero"/></g></g></g></svg>