<svg xmlns="http://www.w3.org/2000/svg" xmlns:xlink="http://www.w3.org/1999/xlink" width="1080" zoomAndPan="magnify" viewBox="0 0 810 809.999993" height="1080" preserveAspectRatio="xMidYMid meet" version="1.0"><defs><clipPath id="72e730257b"><path d="M 140 296 L 265 296 L 265 365 L 140 365 Z M 140 296 " clip-rule="nonzero"/></clipPath><clipPath id="d2b84acdd4"><path d="M 646.082031 825.699219 L -15.308594 637.121094 L 182.933594 -58.167969 L 844.328125 130.410156 Z M 646.082031 825.699219 " clip-rule="nonzero"/></clipPath><clipPath id="4b1006f9bd"><path d="M -15.027344 637.203125 L 646.363281 825.78125 L 844.609375 130.492188 L 183.21875 -58.089844 Z M -15.027344 637.203125 " clip-rule="nonzero"/></clipPath><clipPath id="ba6104162a"><path d="M 138 155 L 286 155 L 286 267 L 138 267 Z M 138 155 " clip-rule="nonzero"/></clipPath><clipPath id="3ecad409de"><path d="M 646.082031 825.699219 L -15.308594 637.121094 L 182.933594 -58.167969 L 844.328125 130.410156 Z M 646.082031 825.699219 " clip-rule="nonzero"/></clipPath><clipPath id="a752b42d26"><path d="M -15.027344 637.203125 L 646.363281 825.78125 L 844.609375 130.492188 L 183.21875 -58.089844 Z M -15.027344 637.203125 " clip-rule="nonzero"/></clipPath><clipPath id="3603434d4f"><path d="M 200 227 L 248 227 L 248 261 L 200 261 Z M 200 227 " clip-rule="nonzero"/></clipPath><clipPath id="04b0a670b7"><path d="M 646.082031 825.699219 L -15.308594 637.121094 L 182.933594 -58.167969 L 844.328125 130.410156 Z M 646.082031 825.699219 " clip-rule="nonzero"/></clipPath><clipPath id="77cf37e3fe"><path d="M -15.027344 637.203125 L 646.363281 825.78125 L 844.609375 130.492188 L 183.21875 -58.089844 Z M -15.027344 637.203125 " clip-rule="nonzero"/></clipPath><clipPath id="919c93b4f4"><path d="M 102 216 L 154 216 L 154 232 L 102 232 Z M 102 216 " clip-rule="nonzero"/></clipPath><clipPath id="4cedfdc073"><path d="M 646.082031 825.699219 L -15.308594 637.121094 L 182.933594 -58.167969 L 844.328125 130.410156 Z M 646.082031 825.699219 " clip-rule="nonzero"/></clipPath><clipPath id="96764d271c"><path d="M -15.027344 637.203125 L 646.363281 825.78125 L 844.609375 130.492188 L 183.21875 -58.089844 Z M -15.027344 637.203125 " clip-rule="nonzero"/></clipPath><clipPath id="b5c482bb6c"><path d="M 401 150 L 553 150 L 553 235 L 401 235 Z M 401 150 " clip-rule="nonzero"/></clipPath><clipPath id="e9649ba996"><path d="M 646.082031 825.699219 L -15.308594 637.121094 L 182.933594 -58.167969 L 844.328125 130.410156 Z M 646.082031 825.699219 " clip-rule="nonzero"/></clipPath><clipPath id="fa91e7dff6"><path d="M -15.027344 637.203125 L 646.363281 825.78125 L 844.609375 130.492188 L 183.21875 -58.089844 Z M -15.027344 637.203125 " clip-rule="nonzero"/></clipPath><clipPath id="de98037b70"><path d="M 330 319 L 406 319 L 406 428 L 330 428 Z M 330 319 " clip-rule="nonzero"/></clipPath><clipPath id="727113db3a"><path d="M 646.082031 825.699219 L -15.308594 637.121094 L 182.933594 -58.167969 L 844.328125 130.410156 Z M 646.082031 825.699219 " clip-rule="nonzero"/></clipPath><clipPath id="4155cba12c"><path d="M -15.027344 637.203125 L 646.363281 825.78125 L 844.609375 130.492188 L 183.21875 -58.089844 Z M -15.027344 637.203125 " clip-rule="nonzero"/></clipPath><clipPath id="fd3b09b4bb"><path d="M 339 200 L 378 200 L 378 301 L 339 301 Z M 339 200 " clip-rule="nonzero"/></clipPath><clipPath id="99fd2257b7"><path d="M 646.082031 825.699219 L -15.308594 637.121094 L 182.933594 -58.167969 L 844.328125 130.410156 Z M 646.082031 825.699219 " clip-rule="nonzero"/></clipPath><clipPath id="253cecad7a"><path d="M -15.027344 637.203125 L 646.363281 825.78125 L 844.609375 130.492188 L 183.21875 -58.089844 Z M -15.027344 637.203125 " clip-rule="nonzero"/></clipPath><clipPath id="60eed5a3e3"><path d="M 367 229 L 497 229 L 497 276 L 367 276 Z M 367 229 " clip-rule="nonzero"/></clipPath><clipPath id="72885146bc"><path d="M 646.082031 825.699219 L -15.308594 637.121094 L 182.933594 -58.167969 L 844.328125 130.410156 Z M 646.082031 825.699219 " clip-rule="nonzero"/></clipPath><clipPath id="84a1964034"><path d="M -15.027344 637.203125 L 646.363281 825.78125 L 844.609375 130.492188 L 183.21875 -58.089844 Z M -15.027344 637.203125 " clip-rule="nonzero"/></clipPath><clipPath id="95f31fd71c"><path d="M 253 394 L 259 394 L 259 400 L 253 400 Z M 253 394 " clip-rule="nonzero"/></clipPath><clipPath id="33ac019dd8"><path d="M 646.082031 825.699219 L -15.308594 637.121094 L 182.933594 -58.167969 L 844.328125 130.410156 Z M 646.082031 825.699219 " clip-rule="nonzero"/></clipPath><clipPath id="b4d66c2bda"><path d="M -15.027344 637.203125 L 646.363281 825.78125 L 844.609375 130.492188 L 183.21875 -58.089844 Z M -15.027344 637.203125 " clip-rule="nonzero"/></clipPath><clipPath id="f0e2aa521e"><path d="M 163 399 L 230 399 L 230 539 L 163 539 Z M 163 399 " clip-rule="nonzero"/></clipPath><clipPath id="fd6cf41764"><path d="M 646.082031 825.699219 L -15.308594 637.121094 L 182.933594 -58.167969 L 844.328125 130.410156 Z M 646.082031 825.699219 " clip-rule="nonzero"/></clipPath><clipPath id="713b09e484"><path d="M -15.027344 637.203125 L 646.363281 825.78125 L 844.609375 130.492188 L 183.21875 -58.089844 Z M -15.027344 637.203125 " clip-rule="nonzero"/></clipPath><clipPath id="e5510feb9c"><path d="M 251 372 L 308 372 L 308 572 L 251 572 Z M 251 372 " clip-rule="nonzero"/></clipPath><clipPath id="e128fc2238"><path d="M 646.082031 825.699219 L -15.308594 637.121094 L 182.933594 -58.167969 L 844.328125 130.410156 Z M 646.082031 825.699219 " clip-rule="nonzero"/></clipPath><clipPath id="0a52d18eb6"><path d="M -15.027344 637.203125 L 646.363281 825.78125 L 844.609375 130.492188 L 183.21875 -58.089844 Z M -15.027344 637.203125 " clip-rule="nonzero"/></clipPath><clipPath id="699f939d5f"><path d="M 235 410 L 308 410 L 308 572 L 235 572 Z M 235 410 " clip-rule="nonzero"/></clipPath><clipPath id="31e9282d60"><path d="M 646.082031 825.699219 L -15.308594 637.121094 L 182.933594 -58.167969 L 844.328125 130.410156 Z M 646.082031 825.699219 " clip-rule="nonzero"/></clipPath><clipPath id="2474882bfd"><path d="M -15.027344 637.203125 L 646.363281 825.78125 L 844.609375 130.492188 L 183.21875 -58.089844 Z M -15.027344 637.203125 " clip-rule="nonzero"/></clipPath><clipPath id="98b0ce528a"><path d="M 482 607 L 617 607 L 617 639 L 482 639 Z M 482 607 " clip-rule="nonzero"/></clipPath><clipPath id="97da276f31"><path d="M 646.082031 825.699219 L -15.308594 637.121094 L 182.933594 -58.167969 L 844.328125 130.410156 Z M 646.082031 825.699219 " clip-rule="nonzero"/></clipPath><clipPath id="f5520fc990"><path d="M -15.027344 637.203125 L 646.363281 825.78125 L 844.609375 130.492188 L 183.21875 -58.089844 Z M -15.027344 637.203125 " clip-rule="nonzero"/></clipPath><clipPath id="5104f69f73"><path d="M 498 680 L 579 680 L 579 759 L 498 759 Z M 498 680 " clip-rule="nonzero"/></clipPath><clipPath id="29cd494571"><path d="M 646.082031 825.699219 L -15.308594 637.121094 L 182.933594 -58.167969 L 844.328125 130.410156 Z M 646.082031 825.699219 " clip-rule="nonzero"/></clipPath><clipPath id="eaf99ebb9c"><path d="M -15.027344 637.203125 L 646.363281 825.78125 L 844.609375 130.492188 L 183.21875 -58.089844 Z M -15.027344 637.203125 " clip-rule="nonzero"/></clipPath><clipPath id="6a439cbe60"><path d="M 288 0 L 669 0 L 669 748 L 288 748 Z M 288 0 " clip-rule="nonzero"/></clipPath><clipPath id="7eccaf1b1c"><path d="M 646.082031 825.699219 L -15.308594 637.121094 L 182.933594 -58.167969 L 844.328125 130.410156 Z M 646.082031 825.699219 " clip-rule="nonzero"/></clipPath><clipPath id="50420433b9"><path d="M -15.027344 637.203125 L 646.363281 825.78125 L 844.609375 130.492188 L 183.21875 -58.089844 Z M -15.027344 637.203125 " clip-rule="nonzero"/></clipPath><clipPath id="8945139e94"><path d="M 154.769531 603.328125 L 668.652344 749.847656 L 845.195312 130.65625 L 331.316406 -15.863281 Z M 154.769531 603.328125 " clip-rule="nonzero"/></clipPath><clipPath id="37a55b8e84"><path d="M 154.769531 603.328125 L 667.667969 749.566406 L 844.207031 130.40625 L 331.308594 -15.835938 Z M 154.769531 603.328125 " clip-rule="nonzero"/></clipPath><clipPath id="89c29559ff"><path d="M 548 662 L 669 662 L 669 748 L 548 748 Z M 548 662 " clip-rule="nonzero"/></clipPath><clipPath id="f3713ad789"><path d="M 646.082031 825.699219 L -15.308594 637.121094 L 182.933594 -58.167969 L 844.328125 130.410156 Z M 646.082031 825.699219 " clip-rule="nonzero"/></clipPath><clipPath id="97e9e96d04"><path d="M -15.027344 637.203125 L 646.363281 825.78125 L 844.609375 130.492188 L 183.21875 -58.089844 Z M -15.027344 637.203125 " clip-rule="nonzero"/></clipPath><clipPath id="dbcdd786df"><path d="M 535.265625 711.816406 L 668.652344 749.847656 L 683.0625 699.300781 L 549.679688 661.269531 Z M 535.265625 711.816406 " clip-rule="nonzero"/></clipPath><clipPath id="19c0f9dca3"><path d="M 535.265625 711.816406 L 667.667969 749.566406 L 682.082031 699.023438 L 549.679688 661.269531 Z M 535.265625 711.816406 " clip-rule="nonzero"/></clipPath><clipPath id="b0d754b494"><path d="M 433 592 L 617 592 L 617 622 L 433 622 Z M 433 592 " clip-rule="nonzero"/></clipPath><clipPath id="27d99c5a29"><path d="M 646.082031 825.699219 L -15.308594 637.121094 L 182.933594 -58.167969 L 844.328125 130.410156 Z M 646.082031 825.699219 " clip-rule="nonzero"/></clipPath><clipPath id="97b72dbb9e"><path d="M -15.027344 637.203125 L 646.363281 825.78125 L 844.609375 130.492188 L 183.21875 -58.089844 Z M -15.027344 637.203125 " clip-rule="nonzero"/></clipPath><clipPath id="45a9f571cb"><path d="M 477 636 L 579 636 L 579 759 L 477 759 Z M 477 636 " clip-rule="nonzero"/></clipPath><clipPath id="2d7f6bd917"><path d="M 646.082031 825.699219 L -15.308594 637.121094 L 182.933594 -58.167969 L 844.328125 130.410156 Z M 646.082031 825.699219 " clip-rule="nonzero"/></clipPath><clipPath id="fee5bf4db7"><path d="M -15.027344 637.203125 L 646.363281 825.78125 L 844.609375 130.492188 L 183.21875 -58.089844 Z M -15.027344 637.203125 " clip-rule="nonzero"/></clipPath><clipPath id="5943ccba03"><path d="M 342 85 L 553 85 L 553 235 L 342 235 Z M 342 85 " clip-rule="nonzero"/></clipPath><clipPath id="1b6a02cc52"><path d="M 646.082031 825.699219 L -15.308594 637.121094 L 182.933594 -58.167969 L 844.328125 130.410156 Z M 646.082031 825.699219 " clip-rule="nonzero"/></clipPath><clipPath id="c3af7707ea"><path d="M -15.027344 637.203125 L 646.363281 825.78125 L 844.609375 130.492188 L 183.21875 -58.089844 Z M -15.027344 637.203125 " clip-rule="nonzero"/></clipPath><clipPath id="bd539faf7d"><path d="M 138 112 L 346 112 L 346 267 L 138 267 Z M 138 112 " clip-rule="nonzero"/></clipPath><clipPath id="546429e8e4"><path d="M 646.082031 825.699219 L -15.308594 637.121094 L 182.933594 -58.167969 L 844.328125 130.410156 Z M 646.082031 825.699219 " clip-rule="nonzero"/></clipPath><clipPath id="c4186d11d7"><path d="M -15.027344 637.203125 L 646.363281 825.78125 L 844.609375 130.492188 L 183.21875 -58.089844 Z M -15.027344 637.203125 " clip-rule="nonzero"/></clipPath><clipPath id="875d774fc4"><path d="M 158 238 L 315 238 L 315 264 L 158 264 Z M 158 238 " clip-rule="nonzero"/></clipPath><clipPath id="8e9639cf73"><path d="M 646.082031 825.699219 L -15.308594 637.121094 L 182.933594 -58.167969 L 844.328125 130.410156 Z M 646.082031 825.699219 " clip-rule="nonzero"/></clipPath><clipPath id="9a08ad9bfe"><path d="M -15.027344 637.203125 L 646.363281 825.78125 L 844.609375 130.492188 L 183.21875 -58.089844 Z M -15.027344 637.203125 " clip-rule="nonzero"/></clipPath><clipPath id="acaed80d96"><path d="M 102 227 L 146 227 L 146 248 L 102 248 Z M 102 227 " clip-rule="nonzero"/></clipPath><clipPath id="46c39caedf"><path d="M 646.082031 825.699219 L -15.308594 637.121094 L 182.933594 -58.167969 L 844.328125 130.410156 Z M 646.082031 825.699219 " clip-rule="nonzero"/></clipPath><clipPath id="d864d10b20"><path d="M -15.027344 637.203125 L 646.363281 825.78125 L 844.609375 130.492188 L 183.21875 -58.089844 Z M -15.027344 637.203125 " clip-rule="nonzero"/></clipPath><clipPath id="c676d03e81"><path d="M 330 174 L 497 174 L 497 282 L 330 282 Z M 330 174 " clip-rule="nonzero"/></clipPath><clipPath id="0c82fdba10"><path d="M 646.082031 825.699219 L -15.308594 637.121094 L 182.933594 -58.167969 L 844.328125 130.410156 Z M 646.082031 825.699219 " clip-rule="nonzero"/></clipPath><clipPath id="d8a3dedfa3"><path d="M -15.027344 637.203125 L 646.363281 825.78125 L 844.609375 130.492188 L 183.21875 -58.089844 Z M -15.027344 637.203125 " clip-rule="nonzero"/></clipPath><clipPath id="1138f14888"><path d="M 361 223 L 378 223 L 378 301 L 361 301 Z M 361 223 " clip-rule="nonzero"/></clipPath><clipPath id="fe28b00ff7"><path d="M 646.082031 825.699219 L -15.308594 637.121094 L 182.933594 -58.167969 L 844.328125 130.410156 Z M 646.082031 825.699219 " clip-rule="nonzero"/></clipPath><clipPath id="cfc7aa5c54"><path d="M -15.027344 637.203125 L 646.363281 825.78125 L 844.609375 130.492188 L 183.21875 -58.089844 Z M -15.027344 637.203125 " clip-rule="nonzero"/></clipPath><clipPath id="d83f1d99bb"><path d="M 299 271 L 396 271 L 396 428 L 299 428 Z M 299 271 " clip-rule="nonzero"/></clipPath><clipPath id="851b1e4594"><path d="M 646.082031 825.699219 L -15.308594 637.121094 L 182.933594 -58.167969 L 844.328125 130.410156 Z M 646.082031 825.699219 " clip-rule="nonzero"/></clipPath><clipPath id="b20f41a79e"><path d="M -15.027344 637.203125 L 646.363281 825.78125 L 844.609375 130.492188 L 183.21875 -58.089844 Z M -15.027344 637.203125 " clip-rule="nonzero"/></clipPath><clipPath id="2dba7c20e0"><path d="M 140 278 L 303 278 L 303 365 L 140 365 Z M 140 278 " clip-rule="nonzero"/></clipPath><clipPath id="0b6408aabc"><path d="M 646.082031 825.699219 L -15.308594 637.121094 L 182.933594 -58.167969 L 844.328125 130.410156 Z M 646.082031 825.699219 " clip-rule="nonzero"/></clipPath><clipPath id="32a05e5fa8"><path d="M -15.027344 637.203125 L 646.363281 825.78125 L 844.609375 130.492188 L 183.21875 -58.089844 Z M -15.027344 637.203125 " clip-rule="nonzero"/></clipPath><clipPath id="151d99a5af"><path d="M 180 316 L 296 316 L 296 539 L 180 539 Z M 180 316 " clip-rule="nonzero"/></clipPath><clipPath id="10ebe8d3bc"><path d="M 646.082031 825.699219 L -15.308594 637.121094 L 182.933594 -58.167969 L 844.328125 130.410156 Z M 646.082031 825.699219 " clip-rule="nonzero"/></clipPath><clipPath id="23109aa296"><path d="M -15.027344 637.203125 L 646.363281 825.78125 L 844.609375 130.492188 L 183.21875 -58.089844 Z M -15.027344 637.203125 " clip-rule="nonzero"/></clipPath><clipPath id="87f1275e7f"><path d="M 289 380 L 362 380 L 362 463 L 289 463 Z M 289 380 " clip-rule="nonzero"/></clipPath><clipPath id="db4dbf380d"><path d="M 646.082031 825.699219 L -15.308594 637.121094 L 182.933594 -58.167969 L 844.328125 130.410156 Z M 646.082031 825.699219 " clip-rule="nonzero"/></clipPath><clipPath id="08b807e9c7"><path d="M -15.027344 637.203125 L 646.363281 825.78125 L 844.609375 130.492188 L 183.21875 -58.089844 Z M -15.027344 637.203125 " clip-rule="nonzero"/></clipPath><clipPath id="23ff97e92e"><path d="M 293 389 L 362 389 L 362 463 L 293 463 Z M 293 389 " clip-rule="nonzero"/></clipPath><clipPath id="a482fec62b"><path d="M 646.082031 825.699219 L -15.308594 637.121094 L 182.933594 -58.167969 L 844.328125 130.410156 Z M 646.082031 825.699219 " clip-rule="nonzero"/></clipPath><clipPath id="a56dd13439"><path d="M -15.027344 637.203125 L 646.363281 825.78125 L 844.609375 130.492188 L 183.21875 -58.089844 Z M -15.027344 637.203125 " clip-rule="nonzero"/></clipPath><clipPath id="7eda4f5491"><path d="M 300 447 L 450 447 L 450 544 L 300 544 Z M 300 447 " clip-rule="nonzero"/></clipPath><clipPath id="acf0f911b2"><path d="M 646.082031 825.699219 L -15.308594 637.121094 L 182.933594 -58.167969 L 844.328125 130.410156 Z M 646.082031 825.699219 " clip-rule="nonzero"/></clipPath><clipPath id="f3a71b8674"><path d="M -15.027344 637.203125 L 646.363281 825.78125 L 844.609375 130.492188 L 183.21875 -58.089844 Z M -15.027344 637.203125 " clip-rule="nonzero"/></clipPath><clipPath id="9dc919fff5"><path d="M 350 483 L 450 483 L 450 544 L 350 544 Z M 350 483 " clip-rule="nonzero"/></clipPath><clipPath id="63a94c151b"><path d="M 646.082031 825.699219 L -15.308594 637.121094 L 182.933594 -58.167969 L 844.328125 130.410156 Z M 646.082031 825.699219 " clip-rule="nonzero"/></clipPath><clipPath id="b5b08df39f"><path d="M -15.027344 637.203125 L 646.363281 825.78125 L 844.609375 130.492188 L 183.21875 -58.089844 Z M -15.027344 637.203125 " clip-rule="nonzero"/></clipPath><clipPath id="14fbaaa64e"><path d="M 311 479 L 389 479 L 389 692 L 311 692 Z M 311 479 " clip-rule="nonzero"/></clipPath><clipPath id="7f91f79b49"><path d="M 646.082031 825.699219 L -15.308594 637.121094 L 182.933594 -58.167969 L 844.328125 130.410156 Z M 646.082031 825.699219 " clip-rule="nonzero"/></clipPath><clipPath id="2b34f2b963"><path d="M -15.027344 637.203125 L 646.363281 825.78125 L 844.609375 130.492188 L 183.21875 -58.089844 Z M -15.027344 637.203125 " clip-rule="nonzero"/></clipPath><clipPath id="853df2d45c"><path d="M 323 570 L 389 570 L 389 692 L 323 692 Z M 323 570 " clip-rule="nonzero"/></clipPath><clipPath id="f475a0cff2"><path d="M 646.082031 825.699219 L -15.308594 637.121094 L 182.933594 -58.167969 L 844.328125 130.410156 Z M 646.082031 825.699219 " clip-rule="nonzero"/></clipPath><clipPath id="8423933393"><path d="M -15.027344 637.203125 L 646.363281 825.78125 L 844.609375 130.492188 L 183.21875 -58.089844 Z M -15.027344 637.203125 " clip-rule="nonzero"/></clipPath><clipPath id="0e81e5cf24"><path d="M 359 535 L 532 535 L 532 564 L 359 564 Z M 359 535 " clip-rule="nonzero"/></clipPath><clipPath id="c3e49f57f6"><path d="M 646.082031 825.699219 L -15.308594 637.121094 L 182.933594 -58.167969 L 844.328125 130.410156 Z M 646.082031 825.699219 " clip-rule="nonzero"/></clipPath><clipPath id="319848819c"><path d="M -15.027344 637.203125 L 646.363281 825.78125 L 844.609375 130.492188 L 183.21875 -58.089844 Z M -15.027344 637.203125 " clip-rule="nonzero"/></clipPath><clipPath id="e72213cff0"><path d="M 399 545 L 532 545 L 532 575 L 399 575 Z M 399 545 " clip-rule="nonzero"/></clipPath><clipPath id="4b0b940006"><path d="M 646.082031 825.699219 L -15.308594 637.121094 L 182.933594 -58.167969 L 844.328125 130.410156 Z M 646.082031 825.699219 " clip-rule="nonzero"/></clipPath><clipPath id="4ba606d32e"><path d="M -15.027344 637.203125 L 646.363281 825.78125 L 844.609375 130.492188 L 183.21875 -58.089844 Z M -15.027344 637.203125 " clip-rule="nonzero"/></clipPath><clipPath id="aeb6023455"><path d="M 400 595 L 449 595 L 449 768 L 400 768 Z M 400 595 " clip-rule="nonzero"/></clipPath><clipPath id="56a522d283"><path d="M 646.082031 825.699219 L -15.308594 637.121094 L 182.933594 -58.167969 L 844.328125 130.410156 Z M 646.082031 825.699219 " clip-rule="nonzero"/></clipPath><clipPath id="12ade20dce"><path d="M -15.027344 637.203125 L 646.363281 825.78125 L 844.609375 130.492188 L 183.21875 -58.089844 Z M -15.027344 637.203125 " clip-rule="nonzero"/></clipPath><clipPath id="953a14abc6"><path d="M 408 650 L 447 650 L 447 768 L 408 768 Z M 408 650 " clip-rule="nonzero"/></clipPath><clipPath id="44750597af"><path d="M 646.082031 825.699219 L -15.308594 637.121094 L 182.933594 -58.167969 L 844.328125 130.410156 Z M 646.082031 825.699219 " clip-rule="nonzero"/></clipPath><clipPath id="b755dace31"><path d="M -15.027344 637.203125 L 646.363281 825.78125 L 844.609375 130.492188 L 183.21875 -58.089844 Z M -15.027344 637.203125 " clip-rule="nonzero"/></clipPath></defs><g clip-path="url(#72e730257b)"><g clip-path="url(#d2b84acdd4)"><g clip-path="url(#4b1006f9bd)"><path fill="#202020" d="M 262.582031 296.535156 C 261.730469 296.292969 260.78125 296.578125 260.226562 297.328125 C 250.992188 309.675781 235.980469 320.363281 223.910156 328.949219 L 221 331.03125 C 208.480469 339.957031 197.0625 347.691406 184.148438 351.910156 C 178.019531 353.902344 171.585938 354.46875 165.363281 355.019531 C 160.320312 355.46875 155.105469 355.925781 149.984375 357.128906 C 147.230469 357.78125 144.617188 358.707031 141.988281 359.96875 C 140.894531 360.488281 140.433594 361.796875 140.953125 362.886719 C 141.476562 363.980469 142.785156 364.441406 143.875 363.914062 C 146.21875 362.800781 148.550781 361.976562 150.992188 361.394531 C 155.804688 360.261719 160.636719 359.835938 165.746094 359.382812 C 172.210938 358.8125 178.898438 358.222656 185.507812 356.074219 C 198.996094 351.664062 211.191406 343.398438 223.539062 334.597656 L 226.453125 332.519531 C 238.765625 323.753906 254.09375 312.847656 263.734375 299.953125 C 264.457031 298.984375 264.253906 297.609375 263.289062 296.882812 C 263.066406 296.71875 262.828125 296.605469 262.582031 296.535156 " fill-opacity="1" fill-rule="nonzero"/></g></g></g><g clip-path="url(#ba6104162a)"><g clip-path="url(#3ecad409de)"><g clip-path="url(#a752b42d26)"><path fill="#202020" d="M 284.089844 155.625 C 283.167969 155.363281 282.148438 155.730469 281.621094 156.578125 C 273.199219 170.1875 258.890625 182.246094 247.394531 191.929688 C 245.769531 193.296875 244.203125 194.621094 242.703125 195.902344 C 227.847656 208.542969 214.28125 218.914062 201.226562 227.605469 C 199.367188 228.84375 197.511719 230.046875 195.632812 231.242188 C 188.316406 235.898438 180.210938 239.71875 172.371094 243.414062 C 168.222656 245.367188 163.9375 247.390625 159.789062 249.523438 C 153.652344 252.667969 148.773438 255.570312 144.460938 258.644531 C 142.855469 259.792969 141.207031 261.117188 139.566406 262.59375 C 138.664062 263.398438 138.589844 264.78125 139.402344 265.683594 C 140.207031 266.589844 141.589844 266.664062 142.492188 265.851562 C 144.011719 264.488281 145.53125 263.261719 147.003906 262.210938 C 151.140625 259.261719 155.84375 256.464844 161.792969 253.421875 C 165.871094 251.324219 170.125 249.316406 174.238281 247.375 C 182.199219 243.625 190.433594 239.742188 197.984375 234.9375 C 199.890625 233.722656 201.773438 232.503906 203.65625 231.25 C 216.851562 222.464844 230.558594 211.996094 245.542969 199.230469 C 247.039062 197.957031 248.601562 196.640625 250.214844 195.28125 C 261.953125 185.394531 276.558594 173.085938 285.347656 158.886719 C 285.984375 157.855469 285.667969 156.511719 284.640625 155.871094 C 284.457031 155.761719 284.273438 155.679688 284.089844 155.625 " fill-opacity="1" fill-rule="nonzero"/></g></g></g><g clip-path="url(#3603434d4f)"><g clip-path="url(#04b0a670b7)"><g clip-path="url(#77cf37e3fe)"><path fill="#202020" d="M 203.039062 227.320312 C 201.988281 227.023438 200.855469 227.542969 200.421875 228.574219 C 199.949219 229.683594 200.464844 230.972656 201.582031 231.445312 C 218.140625 238.472656 232.945312 248.445312 243.265625 259.53125 C 244.09375 260.414062 245.480469 260.464844 246.363281 259.644531 C 247.246094 258.816406 247.296875 257.429688 246.472656 256.542969 C 235.742188 245.019531 220.410156 234.675781 203.296875 227.414062 C 203.207031 227.375 203.121094 227.34375 203.039062 227.320312 " fill-opacity="1" fill-rule="nonzero"/></g></g></g><g clip-path="url(#919c93b4f4)"><g clip-path="url(#4cedfdc073)"><g clip-path="url(#96764d271c)"><path fill="#202020" d="M 152.070312 216.761719 C 151.867188 216.703125 151.65625 216.675781 151.429688 216.675781 C 138.976562 216.90625 127.101562 218.789062 117.089844 222.113281 C 114.328125 223.027344 111.648438 224.148438 109.0625 225.226562 C 107.136719 226.03125 105.320312 226.789062 103.457031 227.472656 C 102.324219 227.890625 101.746094 229.148438 102.164062 230.289062 C 102.582031 231.421875 103.84375 232 104.980469 231.582031 C 106.921875 230.863281 108.867188 230.050781 110.742188 229.269531 C 113.261719 228.222656 115.859375 227.136719 118.472656 226.273438 C 127.933594 223.128906 139.664062 221.273438 151.507812 221.054688 C 152.71875 221.035156 153.679688 220.03125 153.660156 218.824219 C 153.640625 217.839844 152.972656 217.019531 152.070312 216.761719 " fill-opacity="1" fill-rule="nonzero"/></g></g></g><g clip-path="url(#b5c482bb6c)"><g clip-path="url(#e9649ba996)"><g clip-path="url(#fa91e7dff6)"><path fill="#202020" d="M 466.984375 153.054688 C 463.652344 152.105469 460.394531 151.394531 457.261719 150.945312 C 439.519531 148.421875 420.527344 152.410156 402.640625 157.09375 C 401.464844 157.402344 400.769531 158.597656 401.078125 159.769531 C 401.382812 160.9375 402.585938 161.632812 403.75 161.332031 C 421.191406 156.761719 439.671875 152.867188 456.640625 155.28125 C 474.082031 157.769531 492.734375 168.472656 504.375 177.664062 C 516.046875 186.875 525.140625 199.28125 532.75 210.1875 L 532.84375 210.332031 C 538.035156 217.789062 543.402344 225.507812 548.144531 233.644531 C 548.75 234.683594 550.089844 235.039062 551.140625 234.433594 C 552.179688 233.820312 552.539062 232.484375 551.929688 231.4375 C 547.101562 223.144531 541.683594 215.359375 536.441406 207.828125 L 536.339844 207.6875 C 528.558594 196.519531 519.230469 183.808594 507.09375 174.222656 C 494.582031 164.355469 480.1875 156.816406 466.984375 153.054688 " fill-opacity="1" fill-rule="nonzero"/></g></g></g><g clip-path="url(#de98037b70)"><g clip-path="url(#727113db3a)"><g clip-path="url(#4155cba12c)"><path fill="#202020" d="M 356.273438 326.21875 C 353.1875 325.339844 350.089844 324.632812 347.03125 323.941406 C 344.859375 323.445312 342.675781 322.949219 340.492188 322.390625 C 337.914062 321.726562 335.632812 320.96875 333.53125 320.054688 C 332.433594 319.570312 331.132812 320.089844 330.652344 321.199219 C 330.175781 322.308594 330.683594 323.597656 331.792969 324.078125 C 334.113281 325.078125 336.597656 325.921875 339.414062 326.632812 C 341.632812 327.199219 343.851562 327.707031 346.058594 328.207031 C 353.375 329.875 360.28125 331.449219 366.742188 335.140625 C 379.363281 342.371094 390.585938 354.324219 396.757812 367.117188 C 403.710938 381.488281 401.308594 392.726562 396.515625 409.53125 C 395.878906 411.761719 394.960938 414.460938 393.992188 417.316406 C 393.234375 419.542969 392.433594 421.917969 391.648438 424.375 C 391.285156 425.527344 391.925781 426.753906 393.078125 427.125 C 394.222656 427.496094 395.460938 426.847656 395.824219 425.695312 C 396.59375 423.269531 397.394531 420.921875 398.140625 418.722656 C 399.125 415.8125 400.0625 413.066406 400.726562 410.730469 C 405.65625 393.449219 408.3125 380.941406 400.699219 365.210938 C 394.0625 351.453125 382.472656 339.105469 368.914062 331.34375 C 364.828125 329.003906 360.5625 327.441406 356.273438 326.21875 " fill-opacity="1" fill-rule="nonzero"/></g></g></g><g clip-path="url(#fd3b09b4bb)"><g clip-path="url(#99fd2257b7)"><g clip-path="url(#253cecad7a)"><path fill="#202020" d="M 351.375 200.574219 C 350.503906 200.324219 349.535156 200.636719 348.988281 201.417969 C 344.792969 207.355469 340.917969 213.386719 339.6875 221.757812 C 337.332031 237.796875 341.3125 264.316406 373.664062 299.574219 C 374.476562 300.457031 375.863281 300.523438 376.757812 299.703125 C 377.648438 298.890625 377.707031 297.5 376.886719 296.609375 C 362.796875 281.253906 339.792969 251.191406 344.019531 222.394531 C 345.109375 214.976562 348.679688 209.4375 352.5625 203.941406 C 353.261719 202.957031 353.023438 201.589844 352.035156 200.890625 C 351.828125 200.746094 351.605469 200.640625 351.375 200.574219 " fill-opacity="1" fill-rule="nonzero"/></g></g></g><g clip-path="url(#60eed5a3e3)"><g clip-path="url(#72885146bc)"><g clip-path="url(#84a1964034)"><path fill="#202020" d="M 435.050781 232.960938 C 427.78125 230.886719 420.078125 229.65625 411.765625 229.476562 C 405.425781 229.339844 399.285156 230.609375 393.34375 231.832031 C 386.390625 233.265625 379.816406 234.617188 372.945312 233.914062 C 372.164062 233.839844 371.210938 233.710938 370.167969 233.539062 C 368.980469 233.335938 367.851562 234.140625 367.652344 235.335938 C 367.453125 236.53125 368.261719 237.667969 369.453125 237.855469 C 370.585938 238.046875 371.648438 238.1875 372.511719 238.273438 C 380.039062 239.042969 387.253906 237.554688 394.230469 236.117188 C 400.195312 234.894531 405.828125 233.730469 411.675781 233.855469 C 444.558594 234.566406 467.957031 252.726562 492.996094 274.589844 C 493.90625 275.382812 495.292969 275.292969 496.085938 274.378906 C 496.886719 273.46875 496.785156 272.089844 495.875 271.289062 C 476.398438 254.285156 457.851562 239.460938 435.050781 232.960938 " fill-opacity="1" fill-rule="nonzero"/></g></g></g><g clip-path="url(#95f31fd71c)"><g clip-path="url(#33ac019dd8)"><g clip-path="url(#b4d66c2bda)"><path fill="#202020" d="M 256.820312 394.84375 C 256.507812 394.753906 256.164062 394.734375 255.824219 394.796875 L 255.492188 394.855469 C 254.304688 395.089844 253.523438 396.234375 253.753906 397.421875 C 253.976562 398.613281 255.132812 399.386719 256.3125 399.160156 L 256.617188 399.105469 C 257.808594 398.886719 258.589844 397.746094 258.371094 396.554688 C 258.214844 395.703125 257.59375 395.0625 256.820312 394.84375 " fill-opacity="1" fill-rule="nonzero"/></g></g></g><g clip-path="url(#f0e2aa521e)"><g clip-path="url(#fd6cf41764)"><g clip-path="url(#713b09e484)"><path fill="#202020" d="M 227.867188 399.496094 C 227.554688 399.40625 227.21875 399.386719 226.871094 399.453125 C 207.773438 403 186.742188 409.367188 175.539062 429.691406 C 168.554688 442.351562 164.164062 459.902344 163.796875 476.640625 C 163.460938 492.457031 167.652344 511.371094 174.992188 527.246094 C 176.484375 530.484375 178.484375 533.621094 180.417969 536.652344 L 181.261719 537.972656 C 181.910156 538.992188 183.265625 539.296875 184.285156 538.644531 C 185.304688 538 185.609375 536.644531 184.964844 535.625 L 184.113281 534.296875 C 182.171875 531.25 180.339844 528.378906 178.964844 525.414062 C 171.890625 510.109375 167.855469 491.914062 168.175781 476.738281 C 168.523438 460.914062 172.816406 443.695312 179.375 431.804688 C 189.667969 413.128906 208.675781 407.289062 227.675781 403.757812 C 228.863281 403.539062 229.648438 402.390625 229.429688 401.203125 C 229.265625 400.355469 228.648438 399.714844 227.867188 399.496094 " fill-opacity="1" fill-rule="nonzero"/></g></g></g><g clip-path="url(#e5510feb9c)"><g clip-path="url(#e128fc2238)"><g clip-path="url(#0a52d18eb6)"><path fill="#202020" d="M 254.253906 373.070312 C 253.980469 372.992188 253.679688 372.96875 253.378906 373.003906 C 252.179688 373.160156 251.332031 374.261719 251.488281 375.460938 C 251.941406 378.976562 252.234375 382.351562 252.464844 385.054688 C 252.554688 386.125 252.640625 387.082031 252.71875 387.886719 C 252.75 388.273438 252.796875 388.710938 252.847656 389.132812 C 253.109375 391.894531 253.410156 394.636719 253.730469 397.273438 C 254.46875 403.632812 255.289062 408.777344 256.300781 413.449219 C 257.832031 420.519531 259.792969 426.636719 262.308594 432.140625 C 266.148438 440.542969 270.84375 448.6875 275.386719 456.574219 C 277.058594 459.46875 278.730469 462.363281 280.363281 465.273438 C 298.273438 497.300781 305.773438 532.210938 302.644531 569.039062 C 302.542969 570.246094 303.433594 571.304688 304.640625 571.40625 C 305.847656 571.511719 306.902344 570.617188 307.007812 569.414062 C 310.210938 531.695312 302.527344 495.9375 284.179688 463.136719 C 282.546875 460.210938 280.867188 457.300781 279.183594 454.382812 C 274.695312 446.589844 270.046875 438.535156 266.292969 430.316406 C 263.910156 425.105469 262.042969 419.285156 260.582031 412.515625 C 259.601562 407.988281 258.804688 402.984375 258.078125 396.757812 C 257.753906 394.066406 257.464844 391.375 257.207031 388.699219 C 257.152344 388.25 257.109375 387.871094 257.078125 387.492188 C 256.996094 386.667969 256.917969 385.734375 256.828125 384.679688 C 256.59375 381.933594 256.296875 378.511719 255.828125 374.894531 C 255.714844 374.003906 255.074219 373.304688 254.253906 373.070312 " fill-opacity="1" fill-rule="nonzero"/></g></g></g><g clip-path="url(#699f939d5f)"><g clip-path="url(#31e9282d60)"><g clip-path="url(#2474882bfd)"><path fill="#202020" d="M 259.042969 410.875 C 258.988281 410.859375 258.933594 410.847656 258.871094 410.835938 C 257.6875 410.601562 256.53125 411.367188 256.296875 412.550781 C 255.054688 418.757812 252.4375 424.8125 248.921875 429.609375 C 238.1875 444.234375 234.511719 456.714844 235.796875 474.128906 C 236.820312 488.210938 241.957031 502.703125 251.066406 517.210938 C 259.078125 529.972656 270.632812 540.199219 281.808594 550.09375 C 289.171875 556.613281 296.785156 563.351562 303.175781 570.667969 C 303.972656 571.578125 305.351562 571.667969 306.265625 570.875 C 307.179688 570.078125 307.269531 568.699219 306.476562 567.785156 C 299.902344 560.257812 292.179688 553.425781 284.714844 546.8125 C 273.769531 537.128906 262.453125 527.109375 254.777344 514.882812 C 246.054688 500.988281 241.132812 487.167969 240.164062 473.804688 C 238.945312 457.34375 242.28125 446.066406 252.457031 432.195312 C 256.339844 426.898438 259.222656 420.230469 260.585938 413.414062 C 260.8125 412.285156 260.128906 411.183594 259.042969 410.875 " fill-opacity="1" fill-rule="nonzero"/></g></g></g><g clip-path="url(#98b0ce528a)"><g clip-path="url(#97da276f31)"><g clip-path="url(#f5520fc990)"><path fill="#202020" d="M 614.597656 616.988281 C 613.996094 616.816406 613.316406 616.902344 612.757812 617.289062 C 598.328125 627.164062 575.207031 632.390625 558.382812 633.988281 C 549.898438 634.808594 541.121094 633.023438 531.53125 628.53125 C 526.921875 626.371094 522.371094 624.113281 517.972656 621.925781 C 506.96875 616.457031 496.582031 611.296875 485.253906 607.597656 C 484.039062 607.222656 482.867188 607.855469 482.492188 609.003906 C 482.117188 610.15625 482.742188 611.390625 483.894531 611.765625 C 494.917969 615.359375 505.171875 620.453125 516.023438 625.847656 C 520.445312 628.046875 525.019531 630.316406 529.675781 632.5 C 539.988281 637.324219 549.511719 639.238281 558.800781 638.347656 C 576.167969 636.699219 600.117188 631.25 615.234375 620.902344 C 616.234375 620.21875 616.484375 618.855469 615.804688 617.859375 C 615.5 617.417969 615.070312 617.125 614.597656 616.988281 " fill-opacity="1" fill-rule="nonzero"/></g></g></g><g clip-path="url(#5104f69f73)"><g clip-path="url(#29cd494571)"><g clip-path="url(#eaf99ebb9c)"><path fill="#202020" d="M 500.796875 680.359375 C 499.753906 680.0625 498.632812 680.574219 498.191406 681.59375 C 497.703125 682.699219 498.210938 683.988281 499.320312 684.46875 C 503.867188 686.460938 508.675781 688.28125 513.332031 690.050781 C 529.308594 696.109375 545.828125 702.378906 554.785156 716.378906 C 558.519531 722.214844 561.246094 729.039062 563.882812 735.640625 C 564.847656 738.0625 565.855469 740.566406 566.878906 742.957031 L 567.136719 743.554688 C 568.714844 747.210938 571.101562 752.742188 574.148438 757.816406 C 574.773438 758.855469 576.117188 759.191406 577.15625 758.566406 C 578.191406 757.941406 578.527344 756.597656 577.90625 755.558594 C 575.003906 750.734375 572.691406 745.367188 571.160156 741.816406 L 570.902344 741.226562 C 569.894531 738.890625 568.90625 736.40625 567.953125 734.011719 C 565.238281 727.226562 562.433594 720.203125 558.480469 714.015625 C 548.734375 698.796875 531.523438 692.269531 514.886719 685.957031 C 510.285156 684.210938 505.519531 682.402344 501.074219 680.457031 C 500.980469 680.417969 500.886719 680.386719 500.796875 680.359375 " fill-opacity="1" fill-rule="nonzero"/></g></g></g><g clip-path="url(#6a439cbe60)"><g clip-path="url(#7eccaf1b1c)"><g clip-path="url(#50420433b9)"><g clip-path="url(#8945139e94)"><g clip-path="url(#37a55b8e84)"><path fill="#202020" d="M 334.011719 -15.0625 C 333.664062 -15.164062 333.273438 -15.171875 332.890625 -15.082031 C 331.71875 -14.792969 331 -13.605469 331.289062 -12.429688 C 339.363281 20.273438 343.109375 54.082031 342.421875 88.070312 C 342.246094 96.933594 341.765625 105.882812 340.976562 114.675781 C 339.152344 135.464844 335.640625 156.167969 330.535156 176.210938 C 329.375 180.785156 328.117188 185.390625 326.777344 189.902344 C 323.113281 202.332031 318.753906 214.796875 314.53125 226.855469 C 313.015625 231.191406 311.5 235.527344 310.011719 239.863281 C 306.019531 251.441406 303.199219 260.34375 300.851562 268.726562 C 300.386719 270.34375 299.953125 271.992188 299.515625 273.628906 C 298.976562 275.628906 298.429688 277.777344 297.75 280.597656 C 294.734375 293.070312 292.414062 305.738281 290.855469 318.253906 C 288.140625 339.816406 287.523438 361.640625 289.015625 383.113281 C 290.59375 405.945312 294.585938 428.425781 300.890625 449.9375 C 302.988281 457.136719 305.347656 464.25 307.914062 471.058594 C 309.328125 474.832031 310.882812 478.714844 312.535156 482.617188 C 324.414062 510.59375 340.480469 536.464844 360.289062 559.5 C 372.855469 574.125 386.816406 587.414062 401.773438 598.984375 C 412.386719 607.179688 423.570312 614.574219 435 620.953125 C 436.570312 621.84375 438.167969 622.703125 439.769531 623.5625 C 451.160156 629.628906 463.558594 635.203125 478.796875 641.097656 C 491.972656 646.179688 505.582031 650.828125 518.734375 655.320312 C 529.132812 658.863281 539.886719 662.535156 550.34375 666.402344 C 563.085938 671.09375 573.488281 675.359375 583.074219 679.8125 C 619.246094 696.574219 648.214844 720.351562 664.648438 746.785156 C 665.289062 747.808594 666.636719 748.128906 667.667969 747.492188 C 668.691406 746.851562 669.007812 745.5 668.367188 744.472656 C 651.484375 717.324219 621.851562 692.949219 584.921875 675.839844 C 575.222656 671.335938 564.714844 667.027344 551.859375 662.289062 C 541.355469 658.410156 530.574219 654.730469 520.152344 651.175781 C 507.03125 646.691406 493.464844 642.066406 480.378906 637.011719 C 465.304688 631.175781 453.058594 625.679688 441.835938 619.699219 C 440.273438 618.863281 438.703125 618.023438 437.148438 617.136719 C 425.890625 610.855469 414.894531 603.585938 404.457031 595.519531 C 389.730469 584.128906 375.988281 571.046875 363.613281 556.648438 C 344.097656 533.949219 328.269531 508.46875 316.5625 480.902344 C 314.9375 477.066406 313.410156 473.230469 312.015625 469.523438 C 309.488281 462.808594 307.15625 455.804688 305.09375 448.710938 C 298.878906 427.496094 294.9375 405.328125 293.382812 382.808594 C 291.914062 361.617188 292.527344 340.078125 295.199219 318.800781 C 296.738281 306.445312 299.027344 293.9375 302.003906 281.628906 C 302.5625 279.332031 303.132812 277.039062 303.75 274.757812 C 304.179688 273.140625 304.609375 271.515625 305.066406 269.914062 C 307.390625 261.613281 310.191406 252.785156 314.152344 241.289062 C 315.640625 236.957031 317.152344 232.632812 318.667969 228.308594 C 322.902344 216.195312 327.285156 203.667969 330.976562 191.140625 C 332.332031 186.574219 333.609375 181.914062 334.777344 177.289062 C 339.945312 157.023438 343.496094 136.085938 345.339844 115.0625 C 346.136719 106.171875 346.625 97.121094 346.796875 88.152344 C 347.492188 53.789062 343.707031 19.59375 335.542969 -13.480469 C 335.347656 -14.269531 334.742188 -14.855469 334.011719 -15.0625 " fill-opacity="1" fill-rule="nonzero"/></g></g></g></g></g><g clip-path="url(#89c29559ff)"><g clip-path="url(#f3713ad789)"><g clip-path="url(#97e9e96d04)"><g clip-path="url(#dbcdd786df)"><g clip-path="url(#19c0f9dca3)"><path fill="#202020" d="M 551.703125 662.238281 C 550.933594 662.019531 550.070312 662.230469 549.492188 662.859375 C 548.671875 663.753906 548.730469 665.140625 549.621094 665.957031 C 557.960938 673.613281 565.285156 682.894531 572.375 691.867188 C 578.546875 699.6875 584.933594 707.777344 591.957031 714.742188 C 603.1875 725.894531 619.226562 730.78125 634.726562 735.507812 C 645.414062 738.769531 656.46875 742.140625 665.378906 747.503906 C 666.410156 748.128906 667.757812 747.796875 668.386719 746.761719 C 669.007812 745.722656 668.671875 744.378906 667.636719 743.753906 C 658.261719 738.109375 646.945312 734.65625 636.003906 731.316406 C 621.007812 726.746094 605.503906 722.015625 595.039062 711.632812 C 588.207031 704.855469 581.90625 696.875 575.8125 689.152344 C 568.617188 680.042969 561.179688 670.628906 552.582031 662.726562 C 552.324219 662.492188 552.019531 662.332031 551.703125 662.238281 " fill-opacity="1" fill-rule="nonzero"/></g></g></g></g></g><g clip-path="url(#b0d754b494)"><g clip-path="url(#27d99c5a29)"><g clip-path="url(#97b72dbb9e)"><path fill="#202020" d="M 574.65625 595.921875 C 566.582031 593.621094 557.867188 592.363281 548.429688 592.683594 C 536.53125 593.085938 524.324219 596.171875 512.523438 599.148438 C 508.699219 600.113281 505.082031 601.027344 501.464844 601.859375 C 495.367188 603.257812 489.625 605.390625 483.789062 607.636719 L 481.902344 608.363281 C 475.117188 610.988281 468.105469 613.703125 461.03125 615.074219 C 451.921875 616.847656 444.039062 617.410156 436.222656 616.851562 C 435.019531 616.765625 433.96875 617.675781 433.882812 618.878906 C 433.792969 620.085938 434.714844 621.136719 435.910156 621.222656 C 444.121094 621.804688 452.371094 621.21875 461.863281 619.371094 C 469.320312 617.929688 476.519531 615.140625 483.484375 612.449219 L 485.363281 611.726562 C 491.046875 609.539062 496.632812 607.460938 502.449219 606.125 C 506.113281 605.285156 509.914062 604.328125 513.59375 603.394531 C 525.175781 600.472656 537.148438 597.449219 548.582031 597.0625 C 575.078125 596.15625 595.058594 607.964844 612.707031 620.863281 C 613.679688 621.578125 615.046875 621.363281 615.765625 620.386719 C 616.476562 619.410156 616.269531 618.039062 615.289062 617.328125 C 603.773438 608.910156 590.441406 600.421875 574.65625 595.921875 " fill-opacity="1" fill-rule="nonzero"/></g></g></g><g clip-path="url(#45a9f571cb)"><g clip-path="url(#2d7f6bd917)"><g clip-path="url(#fee5bf4db7)"><path fill="#202020" d="M 480.1875 636.945312 C 479.421875 636.726562 478.558594 636.9375 477.976562 637.566406 C 477.152344 638.457031 477.210938 639.835938 478.101562 640.660156 C 483.074219 645.25 486.585938 650.476562 489.484375 657.59375 C 491.582031 662.742188 493.195312 667.898438 494.75 672.882812 C 495.808594 676.277344 496.910156 679.785156 498.132812 683.207031 C 500.859375 690.808594 503.71875 696.621094 507.421875 702.039062 C 518.171875 717.734375 530.90625 735.351562 546.015625 745.671875 C 553.457031 750.761719 562.792969 754.925781 575.386719 758.78125 C 575.402344 758.785156 575.414062 758.789062 575.429688 758.792969 C 576.570312 759.117188 577.773438 758.46875 578.125 757.332031 C 578.476562 756.175781 577.824219 754.945312 576.667969 754.589844 C 564.511719 750.875 555.554688 746.886719 548.480469 742.058594 C 533.996094 732.164062 521.5625 714.9375 511.039062 699.566406 C 507.558594 694.46875 504.847656 688.964844 502.257812 681.726562 C 501.058594 678.390625 500.027344 675.082031 498.929688 671.578125 C 497.34375 666.5 495.703125 661.257812 493.535156 655.945312 C 490.429688 648.304688 486.46875 642.421875 481.070312 637.445312 C 480.8125 637.207031 480.507812 637.035156 480.1875 636.945312 " fill-opacity="1" fill-rule="nonzero"/></g></g></g><g clip-path="url(#5943ccba03)"><g clip-path="url(#1b6a02cc52)"><g clip-path="url(#c3af7707ea)"><path fill="#202020" d="M 345.214844 86.007812 C 344.5 85.804688 343.707031 85.96875 343.128906 86.503906 C 342.234375 87.324219 342.179688 88.707031 343 89.597656 L 344.082031 90.773438 C 356.769531 104.542969 369.898438 118.785156 381.304688 134.039062 C 383.027344 136.332031 384.730469 138.621094 386.429688 140.902344 C 391.285156 147.433594 396.308594 154.191406 401.492188 160.59375 C 408.714844 169.503906 415.175781 176.480469 421.839844 182.542969 C 433.257812 192.976562 443.945312 201.957031 458.960938 206.238281 C 459.042969 206.261719 459.132812 206.289062 459.21875 206.3125 C 466.1875 208.269531 473.339844 208.511719 480.257812 208.753906 C 484.617188 208.898438 489.117188 209.054688 493.460938 209.640625 C 516.859375 212.816406 534.355469 220.597656 548.527344 234.121094 C 548.539062 234.136719 548.558594 234.152344 548.570312 234.167969 C 549.246094 234.792969 550.277344 234.945312 551.128906 234.476562 C 552.1875 233.886719 552.566406 232.554688 551.976562 231.5 C 551.859375 231.285156 551.703125 231.09375 551.519531 230.929688 C 536.65625 216.746094 518.394531 208.601562 494.046875 205.300781 C 489.488281 204.683594 484.875 204.523438 480.410156 204.375 C 473.445312 204.136719 466.867188 203.910156 460.398438 202.09375 C 460.320312 202.074219 460.246094 202.050781 460.164062 202.027344 C 446.0625 198.007812 435.796875 189.355469 424.789062 179.308594 C 418.292969 173.394531 411.976562 166.570312 404.894531 157.832031 C 399.769531 151.503906 394.773438 144.78125 389.945312 138.289062 C 388.242188 136.003906 386.535156 133.703125 384.808594 131.414062 C 373.269531 115.984375 360.066406 101.65625 347.304688 87.808594 L 346.214844 86.632812 C 345.9375 86.320312 345.585938 86.113281 345.214844 86.007812 " fill-opacity="1" fill-rule="nonzero"/></g></g></g><g clip-path="url(#bd539faf7d)"><g clip-path="url(#546429e8e4)"><g clip-path="url(#c4186d11d7)"><path fill="#202020" d="M 343.757812 112.765625 C 343.050781 112.5625 342.257812 112.722656 341.679688 113.257812 C 339.476562 115.28125 337.253906 117.351562 335.015625 119.445312 C 320.191406 133.296875 304.863281 147.613281 286.804688 154.390625 C 285.59375 154.84375 284.289062 155.257812 282.929688 155.617188 C 273.910156 157.980469 264.734375 157.117188 255.015625 156.210938 L 252.832031 156.007812 C 235.171875 154.386719 209.667969 155.121094 188.480469 167.820312 C 171.863281 177.773438 158.726562 194.679688 149.433594 218.058594 C 148.386719 220.742188 147.386719 223.476562 146.464844 226.1875 C 144.554688 231.800781 142.964844 238.066406 141.601562 245.34375 C 140.597656 250.792969 139.726562 256.707031 138.855469 263.960938 C 138.714844 265.160156 139.574219 266.246094 140.769531 266.394531 C 141.972656 266.539062 143.0625 265.683594 143.203125 264.476562 C 144.0625 257.320312 144.917969 251.492188 145.910156 246.148438 C 147.230469 239.074219 148.769531 233.015625 150.609375 227.601562 C 151.507812 224.945312 152.492188 222.273438 153.507812 219.664062 C 162.4375 197.207031 174.957031 181.027344 190.730469 171.578125 C 210.902344 159.488281 235.417969 158.8125 252.433594 160.363281 L 254.609375 160.570312 C 264.277344 161.476562 274.269531 162.417969 284.039062 159.851562 C 285.546875 159.457031 286.992188 159 288.34375 158.488281 C 307.214844 151.410156 322.867188 136.785156 338.003906 122.648438 C 340.234375 120.5625 342.445312 118.492188 344.636719 116.484375 C 345.527344 115.671875 345.589844 114.285156 344.769531 113.390625 C 344.484375 113.085938 344.136719 112.875 343.757812 112.765625 " fill-opacity="1" fill-rule="nonzero"/></g></g></g><g clip-path="url(#875d774fc4)"><g clip-path="url(#8e9639cf73)"><g clip-path="url(#9a08ad9bfe)"><path fill="#202020" d="M 312.679688 238.472656 C 312.320312 238.371094 311.925781 238.359375 311.539062 238.457031 C 300.78125 241.222656 289.910156 244.125 279.40625 246.929688 C 271.238281 249.109375 263.074219 251.292969 254.859375 253.441406 C 251.300781 254.371094 247.792969 255.199219 244.429688 255.886719 C 227.164062 259.453125 211.671875 260.164062 198.386719 258.019531 C 185.820312 255.980469 173.734375 253.15625 161.433594 249.375 C 160.320312 249.039062 159.054688 249.667969 158.699219 250.828125 C 158.34375 251.980469 158.992188 253.210938 160.148438 253.5625 C 172.648438 257.402344 184.925781 260.273438 197.6875 262.347656 C 211.5 264.574219 227.523438 263.847656 245.308594 260.183594 C 248.75 259.46875 252.335938 258.628906 255.964844 257.675781 C 264.183594 255.53125 272.363281 253.34375 280.535156 251.167969 C 291.035156 248.359375 301.890625 245.460938 312.628906 242.699219 C 313.800781 242.398438 314.503906 241.203125 314.203125 240.035156 C 314.003906 239.253906 313.40625 238.679688 312.679688 238.472656 " fill-opacity="1" fill-rule="nonzero"/></g></g></g><g clip-path="url(#acaed80d96)"><g clip-path="url(#46c39caedf)"><g clip-path="url(#d864d10b20)"><path fill="#202020" d="M 104.820312 227.421875 C 103.726562 227.109375 102.558594 227.691406 102.164062 228.769531 C 101.742188 229.90625 102.328125 231.164062 103.460938 231.582031 C 109.867188 233.945312 116.269531 236.71875 122.457031 239.394531 C 128.179688 241.875 134.089844 244.4375 140.070312 246.699219 L 142.992188 247.800781 C 144.136719 248.25 145.394531 247.644531 145.8125 246.511719 C 146.230469 245.371094 145.652344 244.117188 144.515625 243.699219 L 141.605469 242.601562 C 135.742188 240.378906 129.871094 237.832031 124.203125 235.378906 C 117.957031 232.675781 111.503906 229.871094 104.976562 227.472656 C 104.921875 227.449219 104.867188 227.433594 104.820312 227.421875 " fill-opacity="1" fill-rule="nonzero"/></g></g></g><g clip-path="url(#c676d03e81)"><g clip-path="url(#0c82fdba10)"><g clip-path="url(#d8a3dedfa3)"><path fill="#202020" d="M 333.261719 174.644531 C 332.554688 174.445312 331.765625 174.601562 331.183594 175.132812 C 330.285156 175.945312 330.222656 177.332031 331.035156 178.222656 C 338.507812 186.449219 344.496094 196.199219 348.878906 203.777344 C 351.222656 207.804688 353.511719 211.957031 355.730469 215.972656 C 357.671875 219.488281 359.675781 223.121094 361.683594 226.605469 C 363.195312 229.214844 364.464844 231.355469 365.6875 233.339844 C 366.453125 234.566406 367.210938 235.773438 368.003906 236.929688 C 377.296875 250.820312 388.933594 261.199219 405.71875 270.570312 C 416.894531 276.816406 428.707031 278.652344 441.878906 280.269531 C 450.6875 281.355469 460.976562 282.34375 471.566406 280.363281 C 475.433594 279.636719 479.132812 278.699219 482.71875 277.785156 C 486.867188 276.738281 490.789062 275.738281 494.78125 275.101562 C 495.976562 274.914062 496.792969 273.789062 496.601562 272.59375 C 496.40625 271.398438 495.28125 270.585938 494.089844 270.773438 C 489.898438 271.449219 485.890625 272.46875 481.640625 273.542969 C 478.125 274.4375 474.488281 275.355469 470.757812 276.0625 C 461.753906 277.746094 453.238281 277.257812 442.414062 275.921875 C 429.253906 274.308594 418.351562 272.609375 407.851562 266.746094 C 391.707031 257.730469 380.535156 247.78125 371.632812 234.476562 C 370.867188 233.359375 370.140625 232.203125 369.417969 231.039062 C 368.214844 229.089844 366.960938 226.984375 365.472656 224.417969 C 363.492188 220.972656 361.5 217.355469 359.566406 213.855469 C 357.335938 209.824219 355.035156 205.648438 352.667969 201.574219 C 348.179688 193.8125 342.023438 183.808594 334.277344 175.28125 C 333.992188 174.96875 333.640625 174.753906 333.261719 174.644531 " fill-opacity="1" fill-rule="nonzero"/></g></g></g><g clip-path="url(#1138f14888)"><g clip-path="url(#fe28b00ff7)"><g clip-path="url(#cfc7aa5c54)"><path fill="#202020" d="M 364.179688 223.410156 C 363.789062 223.296875 363.371094 223.292969 362.957031 223.417969 C 361.796875 223.757812 361.132812 224.976562 361.480469 226.136719 C 362.289062 228.867188 362.980469 231.601562 363.527344 234.277344 C 363.605469 234.636719 363.675781 235.007812 363.746094 235.382812 C 365.027344 242.390625 365.191406 249.804688 365.351562 256.964844 C 365.441406 261.035156 365.535156 265.25 365.832031 269.355469 C 366.65625 280.839844 370.039062 290.730469 373.234375 298.890625 C 373.679688 300.015625 374.949219 300.570312 376.070312 300.128906 C 377.199219 299.6875 377.753906 298.414062 377.3125 297.292969 C 374.234375 289.4375 370.980469 279.9375 370.199219 269.039062 C 369.910156 265.039062 369.820312 260.890625 369.730469 256.875 C 369.5625 249.53125 369.394531 241.945312 368.050781 234.582031 C 367.976562 234.175781 367.902344 233.773438 367.820312 233.390625 C 367.242188 230.597656 366.519531 227.734375 365.675781 224.890625 C 365.457031 224.148438 364.875 223.609375 364.179688 223.410156 " fill-opacity="1" fill-rule="nonzero"/></g></g></g><g clip-path="url(#d83f1d99bb)"><g clip-path="url(#851b1e4594)"><g clip-path="url(#b20f41a79e)"><path fill="#202020" d="M 302.234375 272.082031 C 301.730469 271.9375 301.175781 271.972656 300.667969 272.226562 C 299.585938 272.761719 299.136719 274.074219 299.667969 275.15625 C 300.363281 276.570312 301.089844 277.992188 301.855469 279.40625 C 308.871094 292.589844 317.808594 305.070312 326.449219 317.132812 C 327.941406 319.222656 329.421875 321.285156 330.878906 323.335938 C 332.402344 325.472656 333.894531 327.585938 335.332031 329.679688 C 339.28125 335.394531 343.570312 340.988281 347.722656 346.398438 C 353.457031 353.882812 359.386719 361.617188 364.414062 369.679688 C 367.589844 374.789062 370.523438 380.222656 373.363281 385.480469 C 375.230469 388.9375 377.164062 392.511719 379.160156 395.980469 C 384.019531 404.429688 387.875 413.589844 391.648438 425.683594 C 392.007812 426.839844 393.234375 427.484375 394.390625 427.125 C 395.542969 426.765625 396.191406 425.539062 395.828125 424.378906 C 391.953125 411.964844 387.984375 402.535156 382.953125 393.800781 C 380.992188 390.378906 379.074219 386.832031 377.21875 383.394531 C 374.347656 378.085938 371.375 372.589844 368.132812 367.367188 C 362.996094 359.117188 357 351.300781 351.195312 343.738281 C 347.082031 338.367188 342.824219 332.816406 338.941406 327.195312 C 337.496094 325.085938 335.980469 322.953125 334.441406 320.796875 C 332.992188 318.746094 331.507812 316.671875 330.011719 314.582031 C 321.449219 302.632812 312.605469 290.273438 305.710938 277.339844 C 304.972656 275.960938 304.273438 274.589844 303.601562 273.222656 C 303.316406 272.644531 302.8125 272.246094 302.234375 272.082031 " fill-opacity="1" fill-rule="nonzero"/></g></g></g><g clip-path="url(#2dba7c20e0)"><g clip-path="url(#0b6408aabc)"><g clip-path="url(#32a05e5fa8)"><path fill="#202020" d="M 300.480469 279.003906 C 299.882812 278.835938 299.222656 278.917969 298.667969 279.289062 C 288.449219 286.078125 276.226562 291.726562 261.304688 296.554688 C 254.226562 298.855469 246.574219 300.949219 237.90625 302.957031 C 230.628906 304.640625 223.011719 305.277344 215.640625 305.898438 C 209.109375 306.449219 202.355469 307.015625 195.757812 308.308594 C 178.429688 311.695312 164.367188 322.707031 151.507812 342.964844 C 147.363281 349.496094 143.921875 355.371094 140.992188 360.921875 C 140.433594 361.992188 140.835938 363.316406 141.910156 363.878906 C 142.980469 364.445312 144.304688 364.03125 144.867188 362.964844 C 147.746094 357.515625 151.121094 351.742188 155.203125 345.308594 C 167.378906 326.136719 180.527344 315.75 196.59375 312.601562 C 202.957031 311.363281 209.589844 310.804688 216.007812 310.261719 C 223.53125 309.632812 231.316406 308.976562 238.894531 307.222656 C 247.683594 305.1875 255.460938 303.0625 262.65625 300.722656 C 277.964844 295.765625 290.535156 289.949219 301.09375 282.933594 C 302.09375 282.265625 302.371094 280.90625 301.703125 279.898438 C 301.402344 279.453125 300.964844 279.140625 300.480469 279.003906 " fill-opacity="1" fill-rule="nonzero"/></g></g></g><g clip-path="url(#151d99a5af)"><g clip-path="url(#10ebe8d3bc)"><g clip-path="url(#23109aa296)"><path fill="#202020" d="M 293.625 316.417969 C 292.566406 316.113281 291.425781 316.65625 291.003906 317.695312 C 289.289062 321.917969 287.667969 325.296875 285.894531 328.351562 C 283.1875 333.023438 279.921875 337.089844 276.460938 341.394531 C 274.414062 343.941406 272.300781 346.578125 270.328125 349.332031 C 268.867188 351.378906 267.453125 353.414062 266.042969 355.4375 C 261.589844 361.847656 257.382812 367.902344 252.121094 373.613281 C 247.738281 378.371094 243.164062 382.773438 238.738281 387.023438 C 234.371094 391.226562 229.855469 395.566406 225.660156 400.121094 C 219.695312 406.597656 215.214844 412.585938 211.574219 418.957031 C 200.769531 437.882812 191.054688 464.894531 186.21875 489.457031 C 183.761719 501.878906 182.691406 514.757812 181.65625 527.207031 C 181.476562 529.410156 181.292969 531.601562 181.105469 533.789062 C 181.027344 534.667969 180.964844 535.652344 180.921875 536.714844 C 180.875 537.921875 181.816406 538.9375 183.027344 538.984375 C 184.234375 539.035156 185.25 538.09375 185.296875 536.886719 C 185.339844 535.910156 185.390625 535 185.464844 534.171875 C 185.65625 531.972656 185.835938 529.777344 186.019531 527.570312 C 187.042969 515.242188 188.105469 502.492188 190.511719 490.308594 C 195.269531 466.179688 204.796875 439.671875 215.378906 421.125 C 218.855469 415.054688 223.144531 409.320312 228.882812 403.085938 C 232.992188 398.628906 237.453125 394.332031 241.773438 390.1875 C 246.242188 385.886719 250.867188 381.441406 255.273438 376.660156 C 260.8125 370.648438 265.097656 364.472656 269.640625 357.941406 C 271.035156 355.929688 272.4375 353.910156 273.890625 351.882812 C 275.792969 349.226562 277.867188 346.640625 279.875 344.140625 C 283.285156 339.894531 286.808594 335.507812 289.683594 330.550781 C 291.5625 327.320312 293.269531 323.757812 295.058594 319.34375 C 295.511719 318.222656 294.976562 316.949219 293.855469 316.492188 C 293.78125 316.460938 293.703125 316.4375 293.625 316.417969 " fill-opacity="1" fill-rule="nonzero"/></g></g></g><g clip-path="url(#87f1275e7f)"><g clip-path="url(#db4dbf380d)"><g clip-path="url(#08b807e9c7)"><path fill="#202020" d="M 291.800781 380.851562 C 291.3125 380.714844 290.777344 380.746094 290.277344 380.96875 C 289.183594 381.484375 288.707031 382.78125 289.210938 383.878906 C 290.117188 385.824219 290.988281 387.785156 291.859375 389.734375 C 292.351562 390.855469 292.847656 391.96875 293.347656 393.078125 C 295.460938 397.773438 297.808594 402.769531 300.667969 407.546875 C 306.914062 417.953125 315.035156 428.125 324.828125 437.792969 L 325.550781 438.507812 C 331.269531 444.164062 337.179688 450.011719 343.84375 454.652344 C 347.652344 457.296875 351.828125 459.148438 355.859375 460.9375 C 356.707031 461.308594 357.554688 461.6875 358.394531 462.070312 C 359.492188 462.570312 360.792969 462.082031 361.289062 460.980469 C 361.792969 459.878906 361.304688 458.582031 360.203125 458.078125 C 359.351562 457.691406 358.492188 457.3125 357.636719 456.929688 C 353.613281 455.148438 349.8125 453.464844 346.347656 451.054688 C 339.992188 446.632812 334.214844 440.917969 328.632812 435.394531 L 327.90625 434.675781 C 318.378906 425.269531 310.480469 415.386719 304.425781 405.296875 C 301.679688 400.714844 299.402344 395.855469 297.34375 391.28125 C 296.847656 390.171875 296.351562 389.066406 295.859375 387.957031 C 294.976562 385.980469 294.097656 384.003906 293.1875 382.039062 C 292.910156 381.4375 292.394531 381.023438 291.800781 380.851562 " fill-opacity="1" fill-rule="nonzero"/></g></g></g><g clip-path="url(#23ff97e92e)"><g clip-path="url(#a482fec62b)"><g clip-path="url(#a56dd13439)"><path fill="#202020" d="M 327.839844 397.828125 C 324.3125 396.824219 320.707031 396.699219 316.808594 396.5625 C 315.890625 396.527344 314.945312 396.496094 313.976562 396.449219 C 306.636719 396.132812 301.871094 393.875 296.558594 390.359375 C 295.550781 389.683594 294.191406 389.960938 293.523438 390.96875 C 292.855469 391.976562 293.128906 393.335938 294.136719 394.003906 C 299.910156 397.835938 305.453125 400.460938 313.769531 400.828125 C 314.761719 400.875 315.714844 400.910156 316.65625 400.941406 C 323.339844 401.171875 328.164062 401.34375 333.367188 405.667969 C 343.167969 413.804688 346.132812 425.46875 349.269531 437.808594 C 351.28125 445.710938 353.355469 453.882812 357.386719 461.136719 C 357.96875 462.195312 359.300781 462.574219 360.363281 461.988281 C 361.417969 461.402344 361.800781 460.070312 361.21875 459.011719 C 357.460938 452.253906 355.460938 444.359375 353.515625 436.730469 C 350.34375 424.25 347.058594 411.347656 336.164062 402.296875 C 333.367188 399.96875 330.625 398.625 327.839844 397.828125 " fill-opacity="1" fill-rule="nonzero"/></g></g></g><g clip-path="url(#7eda4f5491)"><g clip-path="url(#acf0f911b2)"><g clip-path="url(#f3a71b8674)"><path fill="#202020" d="M 303.59375 447.214844 C 302.941406 447.027344 302.207031 447.144531 301.632812 447.597656 C 300.683594 448.347656 300.523438 449.726562 301.273438 450.675781 C 313.71875 466.445312 332.199219 478.855469 345.347656 485.214844 C 347.433594 486.230469 349.617188 487.21875 351.828125 488.140625 C 360.207031 491.691406 368.59375 494.308594 375.691406 496.410156 C 402.40625 504.304688 422.042969 521.765625 442.835938 540.253906 L 445.394531 542.53125 C 446.304688 543.335938 447.6875 543.25 448.492188 542.347656 C 449.292969 541.445312 449.207031 540.0625 448.304688 539.257812 L 445.75 536.980469 C 424.578125 518.160156 404.585938 500.382812 376.933594 492.210938 C 369.953125 490.148438 361.714844 487.574219 353.523438 484.105469 C 351.382812 483.210938 349.273438 482.257812 347.261719 481.277344 C 334.550781 475.125 316.699219 463.148438 304.707031 447.960938 C 304.414062 447.585938 304.019531 447.335938 303.59375 447.214844 " fill-opacity="1" fill-rule="nonzero"/></g></g></g><g clip-path="url(#9dc919fff5)"><g clip-path="url(#63a94c151b)"><g clip-path="url(#b5b08df39f)"><path fill="#202020" d="M 353.273438 484.015625 C 352.589844 483.820312 351.820312 483.964844 351.238281 484.460938 C 350.324219 485.25 350.222656 486.632812 351.011719 487.550781 C 354.023438 491.042969 356.484375 494.699219 358.328125 498.414062 L 358.386719 498.550781 C 363.164062 508.179688 367.28125 516.496094 374.113281 525.019531 C 381.496094 534.234375 387.675781 537.160156 399.628906 540.601562 C 399.652344 540.609375 399.679688 540.617188 399.707031 540.625 C 407.734375 542.914062 416.625 542.585938 425.226562 542.265625 C 432.40625 542 439.832031 541.730469 446.425781 543.039062 C 447.609375 543.277344 448.765625 542.507812 449.003906 541.324219 C 449.242188 540.136719 448.449219 538.972656 447.28125 538.746094 C 440.183594 537.328125 432.5 537.617188 425.0625 537.890625 C 416.808594 538.195312 408.269531 538.511719 400.90625 536.414062 C 400.886719 536.40625 400.863281 536.402344 400.84375 536.394531 C 389.992188 533.269531 384.503906 530.988281 377.527344 522.28125 C 370.992188 514.125 366.972656 506.011719 362.316406 496.605469 L 362.25 496.472656 C 360.246094 492.425781 357.582031 488.464844 354.328125 484.691406 C 354.039062 484.351562 353.671875 484.128906 353.273438 484.015625 " fill-opacity="1" fill-rule="nonzero"/></g></g></g><g clip-path="url(#14fbaaa64e)"><g clip-path="url(#7f91f79b49)"><g clip-path="url(#2b34f2b963)"><path fill="#202020" d="M 315.152344 479.660156 C 315.054688 479.628906 314.953125 479.609375 314.851562 479.589844 C 313.652344 479.425781 312.546875 480.261719 312.378906 481.460938 C 309.5625 501.609375 318.570312 524.140625 327.238281 543.671875 C 330.542969 551.101562 333.96875 558.621094 337.277344 565.894531 L 340.71875 573.445312 C 343.554688 579.632812 346 585.050781 348.203125 590.011719 C 352.617188 599.929688 357.515625 609.835938 362.253906 619.417969 C 364.917969 624.804688 367.664062 630.375 370.300781 635.875 C 378.59375 653.238281 381.359375 671.21875 383.679688 689.648438 C 383.828125 690.847656 384.925781 691.699219 386.125 691.550781 C 387.324219 691.398438 388.175781 690.300781 388.019531 689.101562 C 385.660156 670.304688 382.824219 651.941406 374.25 633.988281 C 371.609375 628.460938 368.847656 622.878906 366.175781 617.476562 C 361.460938 607.9375 356.585938 598.074219 352.210938 588.238281 C 350 583.261719 347.546875 577.824219 344.703125 571.628906 L 341.265625 564.074219 C 337.957031 556.816406 334.535156 549.304688 331.238281 541.894531 C 322.820312 522.914062 314.0625 501.070312 316.71875 482.066406 C 316.871094 480.972656 316.1875 479.953125 315.152344 479.660156 " fill-opacity="1" fill-rule="nonzero"/></g></g></g><g clip-path="url(#853df2d45c)"><g clip-path="url(#f475a0cff2)"><g clip-path="url(#8423933393)"><path fill="#202020" d="M 343.3125 570.429688 C 343.242188 570.410156 343.164062 570.394531 343.085938 570.382812 C 341.894531 570.171875 340.757812 570.976562 340.554688 572.167969 C 339.511719 578.21875 335.546875 585.234375 331.710938 592.019531 C 327.765625 599 324.039062 605.589844 323.886719 610.714844 C 323.441406 626.007812 333.660156 638.25 342.675781 649.050781 C 343.394531 649.914062 344.105469 650.765625 344.804688 651.609375 C 352.503906 660.933594 361.464844 669.242188 370.128906 677.28125 C 371.96875 678.984375 373.808594 680.691406 375.632812 682.410156 C 378.246094 684.863281 381 687.5625 384.289062 690.914062 C 385.128906 691.769531 386.519531 691.789062 387.386719 690.9375 C 388.25 690.09375 388.257812 688.703125 387.414062 687.84375 C 384.082031 684.449219 381.285156 681.707031 378.628906 679.210938 C 376.796875 677.492188 374.953125 675.78125 373.109375 674.070312 C 364.546875 666.128906 355.695312 657.917969 348.175781 648.824219 C 347.476562 647.972656 346.761719 647.109375 346.035156 646.246094 C 337.519531 636.042969 327.867188 624.476562 328.269531 610.84375 C 328.382812 606.804688 331.851562 600.667969 335.523438 594.171875 C 339.542969 587.0625 343.699219 579.707031 344.875 572.910156 C 345.066406 571.796875 344.378906 570.734375 343.3125 570.429688 " fill-opacity="1" fill-rule="nonzero"/></g></g></g><g clip-path="url(#0e81e5cf24)"><g clip-path="url(#c3e49f57f6)"><g clip-path="url(#319848819c)"><path fill="#202020" d="M 513.976562 538.175781 C 497.902344 533.59375 477.863281 534.515625 453.304688 540.902344 C 452.574219 541.09375 451.859375 541.292969 451.144531 541.484375 L 449.757812 541.859375 C 438.335938 545.015625 427.441406 548.8125 417.832031 552.15625 L 417.371094 552.316406 C 413.796875 553.566406 408.023438 555.347656 400.808594 556.746094 C 390.300781 558.789062 375.140625 560.3125 362.667969 556.003906 C 361.503906 555.597656 360.277344 556.21875 359.878906 557.363281 C 359.484375 558.5 360.09375 559.753906 361.234375 560.144531 C 374.625 564.78125 390.601562 563.191406 401.648438 561.046875 C 407.554688 559.902344 413.492188 558.308594 418.816406 556.453125 L 419.273438 556.296875 C 428.824219 552.964844 439.640625 549.195312 450.90625 546.089844 L 452.292969 545.710938 C 452.996094 545.519531 453.703125 545.328125 454.40625 545.144531 C 487.628906 536.496094 511.140625 537.914062 528.421875 549.589844 C 529.425781 550.265625 530.78125 550.003906 531.457031 549 C 532.136719 547.996094 531.871094 546.640625 530.875 545.957031 C 525.816406 542.542969 520.191406 539.949219 513.976562 538.175781 " fill-opacity="1" fill-rule="nonzero"/></g></g></g><g clip-path="url(#e72213cff0)"><g clip-path="url(#4b0b940006)"><g clip-path="url(#4ba606d32e)"><path fill="#202020" d="M 530.242188 545.671875 C 529.832031 545.554688 529.386719 545.550781 528.957031 545.695312 C 519.152344 548.960938 509.703125 553.542969 498.527344 559.414062 C 485.902344 566.066406 471.847656 569.730469 457.882812 570 C 448.539062 570.171875 439.730469 567.273438 430.398438 564.203125 C 427.316406 563.195312 424.136719 562.144531 420.960938 561.234375 C 414.34375 559.363281 407.8125 557.976562 401.65625 556.75 C 400.472656 556.511719 399.316406 557.28125 399.082031 558.464844 C 398.84375 559.652344 399.636719 560.8125 400.800781 561.042969 C 406.863281 562.253906 413.339844 563.613281 419.75 565.441406 C 422.847656 566.332031 425.992188 567.363281 429.035156 568.367188 C 438.300781 571.40625 447.875 574.558594 457.96875 574.375 C 472.609375 574.097656 487.339844 570.261719 500.574219 563.289062 C 511.554688 557.515625 520.816406 553.023438 530.335938 549.855469 C 531.484375 549.472656 532.105469 548.230469 531.71875 547.082031 C 531.484375 546.371094 530.917969 545.863281 530.242188 545.671875 " fill-opacity="1" fill-rule="nonzero"/></g></g></g><g clip-path="url(#aeb6023455)"><g clip-path="url(#56a522d283)"><g clip-path="url(#12ade20dce)"><path fill="#202020" d="M 403.714844 595.140625 C 403.121094 594.972656 402.464844 595.058594 401.910156 595.421875 C 400.902344 596.089844 400.621094 597.445312 401.289062 598.453125 C 412.101562 614.878906 419.980469 634.371094 426.886719 652.996094 L 428.101562 656.304688 C 428.71875 657.957031 429.320312 659.601562 429.910156 661.234375 C 443.648438 698.792969 447.582031 731.859375 442.296875 765.289062 C 442.109375 766.484375 442.933594 767.605469 444.121094 767.792969 C 445.3125 767.980469 446.433594 767.167969 446.625 765.96875 C 452.03125 731.773438 448.027344 698.019531 434.027344 659.734375 C 433.4375 658.101562 432.828125 656.449219 432.21875 654.789062 L 431.003906 651.480469 C 424 632.605469 416 612.835938 404.945312 596.050781 C 404.644531 595.589844 404.203125 595.28125 403.714844 595.140625 " fill-opacity="1" fill-rule="nonzero"/></g></g></g><g clip-path="url(#953a14abc6)"><g clip-path="url(#44750597af)"><g clip-path="url(#b755dace31)"><path fill="#202020" d="M 429.542969 650.128906 C 428.933594 649.957031 428.25 650.042969 427.6875 650.4375 C 412.148438 661.28125 406.949219 683.007812 408.703125 698.597656 C 410.445312 714.074219 419.050781 726.46875 428.097656 737.550781 C 436.425781 747.777344 440.9375 756.804688 442.296875 765.953125 C 442.472656 767.144531 443.582031 767.972656 444.785156 767.792969 C 445.980469 767.617188 446.804688 766.507812 446.625 765.304688 C 445.148438 755.347656 440.339844 745.652344 431.488281 734.785156 C 422.871094 724.214844 414.671875 712.457031 413.054688 698.105469 C 410.761719 677.644531 420.332031 660.917969 430.199219 654.035156 C 431.191406 653.339844 431.433594 651.972656 430.738281 650.980469 C 430.4375 650.550781 430.011719 650.261719 429.542969 650.128906 " fill-opacity="1" fill-rule="nonzero"/></g></g></g></svg>