<svg xmlns="http://www.w3.org/2000/svg" xmlns:xlink="http://www.w3.org/1999/xlink" width="1080" zoomAndPan="magnify" viewBox="0 0 810 809.999993" height="1080" preserveAspectRatio="xMidYMid meet" version="1.0"><defs><clipPath id="d0638ba5e4"><path d="M 312 483 L 553 483 L 553 647 L 312 647 Z M 312 483 " clip-rule="nonzero"/></clipPath><clipPath id="4619c04958"><path d="M -112.1875 562.550781 L 339.808594 -106.894531 L 1171.488281 454.636719 L 719.496094 1124.082031 Z M -112.1875 562.550781 " clip-rule="nonzero"/></clipPath><clipPath id="50203aec9f"><path d="M -112.1875 562.550781 L 339.808594 -106.894531 L 1171.488281 454.636719 L 719.496094 1124.082031 Z M -112.1875 562.550781 " clip-rule="nonzero"/></clipPath><clipPath id="300da94282"><path d="M 422 544 L 552 544 L 552 634 L 422 634 Z M 422 544 " clip-rule="nonzero"/></clipPath><clipPath id="2a98a659be"><path d="M -112.1875 562.550781 L 339.808594 -106.894531 L 1171.488281 454.636719 L 719.496094 1124.082031 Z M -112.1875 562.550781 " clip-rule="nonzero"/></clipPath><clipPath id="5cfddf1a83"><path d="M -112.1875 562.550781 L 339.808594 -106.894531 L 1171.488281 454.636719 L 719.496094 1124.082031 Z M -112.1875 562.550781 " clip-rule="nonzero"/></clipPath><clipPath id="b9792541bb"><path d="M 113 550 L 437 550 L 437 641 L 113 641 Z M 113 550 " clip-rule="nonzero"/></clipPath><clipPath id="e85d5f3dbb"><path d="M -112.1875 562.550781 L 339.808594 -106.894531 L 1171.488281 454.636719 L 719.496094 1124.082031 Z M -112.1875 562.550781 " clip-rule="nonzero"/></clipPath><clipPath id="f253e4ced6"><path d="M -112.1875 562.550781 L 339.808594 -106.894531 L 1171.488281 454.636719 L 719.496094 1124.082031 Z M -112.1875 562.550781 " clip-rule="nonzero"/></clipPath><clipPath id="2644189320"><path d="M 204 590 L 426 590 L 426 638 L 204 638 Z M 204 590 " clip-rule="nonzero"/></clipPath><clipPath id="bf64b40a12"><path d="M -112.1875 562.550781 L 339.808594 -106.894531 L 1171.488281 454.636719 L 719.496094 1124.082031 Z M -112.1875 562.550781 " clip-rule="nonzero"/></clipPath><clipPath id="6c23a57a03"><path d="M -112.1875 562.550781 L 339.808594 -106.894531 L 1171.488281 454.636719 L 719.496094 1124.082031 Z M -112.1875 562.550781 " clip-rule="nonzero"/></clipPath><clipPath id="096f7d8b03"><path d="M 312 483 L 497 483 L 497 641 L 312 641 Z M 312 483 " clip-rule="nonzero"/></clipPath><clipPath id="4be4473010"><path d="M -112.1875 562.550781 L 339.808594 -106.894531 L 1171.488281 454.636719 L 719.496094 1124.082031 Z M -112.1875 562.550781 " clip-rule="nonzero"/></clipPath><clipPath id="a7ab92c676"><path d="M -112.1875 562.550781 L 339.808594 -106.894531 L 1171.488281 454.636719 L 719.496094 1124.082031 Z M -112.1875 562.550781 " clip-rule="nonzero"/></clipPath><clipPath id="c28026d414"><path d="M 649 221 L 706 221 L 706 554 L 649 554 Z M 649 221 " clip-rule="nonzero"/></clipPath><clipPath id="59bb387d47"><path d="M -112.1875 562.550781 L 339.808594 -106.894531 L 1171.488281 454.636719 L 719.496094 1124.082031 Z M -112.1875 562.550781 " clip-rule="nonzero"/></clipPath><clipPath id="c0e6032d0f"><path d="M -112.1875 562.550781 L 339.808594 -106.894531 L 1171.488281 454.636719 L 719.496094 1124.082031 Z M -112.1875 562.550781 " clip-rule="nonzero"/></clipPath><clipPath id="b43ec8a535"><path d="M 627 141 L 684 141 L 684 449 L 627 449 Z M 627 141 " clip-rule="nonzero"/></clipPath><clipPath id="9ce2cfe4d6"><path d="M -112.1875 562.550781 L 339.808594 -106.894531 L 1171.488281 454.636719 L 719.496094 1124.082031 Z M -112.1875 562.550781 " clip-rule="nonzero"/></clipPath><clipPath id="87c3e9d720"><path d="M -112.1875 562.550781 L 339.808594 -106.894531 L 1171.488281 454.636719 L 719.496094 1124.082031 Z M -112.1875 562.550781 " clip-rule="nonzero"/></clipPath><clipPath id="7ab803e592"><path d="M 654 141 L 728 141 L 728 447 L 654 447 Z M 654 141 " clip-rule="nonzero"/></clipPath><clipPath id="cfb0b1e3cc"><path d="M -112.1875 562.550781 L 339.808594 -106.894531 L 1171.488281 454.636719 L 719.496094 1124.082031 Z M -112.1875 562.550781 " clip-rule="nonzero"/></clipPath><clipPath id="568f54e3ce"><path d="M -112.1875 562.550781 L 339.808594 -106.894531 L 1171.488281 454.636719 L 719.496094 1124.082031 Z M -112.1875 562.550781 " clip-rule="nonzero"/></clipPath><clipPath id="9bcac53e66"><path d="M 715 202 L 799 202 L 799 308 L 715 308 Z M 715 202 " clip-rule="nonzero"/></clipPath><clipPath id="667dbf71aa"><path d="M -112.1875 562.550781 L 339.808594 -106.894531 L 1171.488281 454.636719 L 719.496094 1124.082031 Z M -112.1875 562.550781 " clip-rule="nonzero"/></clipPath><clipPath id="7948584ad9"><path d="M -112.1875 562.550781 L 339.808594 -106.894531 L 1171.488281 454.636719 L 719.496094 1124.082031 Z M -112.1875 562.550781 " clip-rule="nonzero"/></clipPath><clipPath id="70fd52bf35"><path d="M 704.300781 300.390625 L 779.390625 189.175781 L 800.972656 203.746094 L 725.882812 314.960938 Z M 704.300781 300.390625 " clip-rule="nonzero"/></clipPath><clipPath id="ed98f388a8"><path d="M 704.300781 300.390625 L 778.605469 190.335938 L 800.1875 204.90625 L 725.882812 314.960938 Z M 704.300781 300.390625 " clip-rule="nonzero"/></clipPath><clipPath id="96f099f43b"><path d="M 653 202 L 799 202 L 799 472 L 653 472 Z M 653 202 " clip-rule="nonzero"/></clipPath><clipPath id="f7e6016092"><path d="M -112.1875 562.550781 L 339.808594 -106.894531 L 1171.488281 454.636719 L 719.496094 1124.082031 Z M -112.1875 562.550781 " clip-rule="nonzero"/></clipPath><clipPath id="c59f68f563"><path d="M -112.1875 562.550781 L 339.808594 -106.894531 L 1171.488281 454.636719 L 719.496094 1124.082031 Z M -112.1875 562.550781 " clip-rule="nonzero"/></clipPath><clipPath id="59faf94581"><path d="M 623.980469 451.570312 L 794.332031 199.265625 L 852.433594 238.492188 L 682.082031 490.800781 Z M 623.980469 451.570312 " clip-rule="nonzero"/></clipPath><clipPath id="8c8689eb22"><path d="M 623.980469 451.570312 L 793.546875 200.425781 L 851.648438 239.652344 L 682.082031 490.800781 Z M 623.980469 451.570312 " clip-rule="nonzero"/></clipPath><clipPath id="6c51182441"><path d="M 113 571 L 747 571 L 747 682 L 113 682 Z M 113 571 " clip-rule="nonzero"/></clipPath><clipPath id="2e51362adb"><path d="M -112.1875 562.550781 L 339.808594 -106.894531 L 1171.488281 454.636719 L 719.496094 1124.082031 Z M -112.1875 562.550781 " clip-rule="nonzero"/></clipPath><clipPath id="e1e448e74d"><path d="M -112.1875 562.550781 L 339.808594 -106.894531 L 1171.488281 454.636719 L 719.496094 1124.082031 Z M -112.1875 562.550781 " clip-rule="nonzero"/></clipPath><clipPath id="479720c888"><path d="M 549 220 L 616 220 L 616 449 L 549 449 Z M 549 220 " clip-rule="nonzero"/></clipPath><clipPath id="2413325ed5"><path d="M -112.1875 562.550781 L 339.808594 -106.894531 L 1171.488281 454.636719 L 719.496094 1124.082031 Z M -112.1875 562.550781 " clip-rule="nonzero"/></clipPath><clipPath id="33b9d20e58"><path d="M -112.1875 562.550781 L 339.808594 -106.894531 L 1171.488281 454.636719 L 719.496094 1124.082031 Z M -112.1875 562.550781 " clip-rule="nonzero"/></clipPath><clipPath id="afdb1bcbb8"><path d="M 609 442 L 732 442 L 732 678 L 609 678 Z M 609 442 " clip-rule="nonzero"/></clipPath><clipPath id="2fa6b903ea"><path d="M -112.1875 562.550781 L 339.808594 -106.894531 L 1171.488281 454.636719 L 719.496094 1124.082031 Z M -112.1875 562.550781 " clip-rule="nonzero"/></clipPath><clipPath id="bb9176b5c7"><path d="M -112.1875 562.550781 L 339.808594 -106.894531 L 1171.488281 454.636719 L 719.496094 1124.082031 Z M -112.1875 562.550781 " clip-rule="nonzero"/></clipPath><clipPath id="39afacf06c"><path d="M 280 269 L 324 269 L 324 340 L 280 340 Z M 280 269 " clip-rule="nonzero"/></clipPath><clipPath id="9063dd1338"><path d="M -112.1875 562.550781 L 339.808594 -106.894531 L 1171.488281 454.636719 L 719.496094 1124.082031 Z M -112.1875 562.550781 " clip-rule="nonzero"/></clipPath><clipPath id="3882d658fc"><path d="M -112.1875 562.550781 L 339.808594 -106.894531 L 1171.488281 454.636719 L 719.496094 1124.082031 Z M -112.1875 562.550781 " clip-rule="nonzero"/></clipPath><clipPath id="f2eba55226"><path d="M 247 305 L 322 305 L 322 345 L 247 345 Z M 247 305 " clip-rule="nonzero"/></clipPath><clipPath id="117aa69b4f"><path d="M -112.1875 562.550781 L 339.808594 -106.894531 L 1171.488281 454.636719 L 719.496094 1124.082031 Z M -112.1875 562.550781 " clip-rule="nonzero"/></clipPath><clipPath id="8fcdfef474"><path d="M -112.1875 562.550781 L 339.808594 -106.894531 L 1171.488281 454.636719 L 719.496094 1124.082031 Z M -112.1875 562.550781 " clip-rule="nonzero"/></clipPath><clipPath id="24b597e028"><path d="M 315 338 L 810 338 L 810 810 L 315 810 Z M 315 338 " clip-rule="nonzero"/></clipPath><clipPath id="ed7e5d875e"><path d="M -112.1875 562.550781 L 339.808594 -106.894531 L 1171.488281 454.636719 L 719.496094 1124.082031 Z M -112.1875 562.550781 " clip-rule="nonzero"/></clipPath><clipPath id="54397eca0c"><path d="M -112.1875 562.550781 L 339.808594 -106.894531 L 1171.488281 454.636719 L 719.496094 1124.082031 Z M -112.1875 562.550781 " clip-rule="nonzero"/></clipPath><clipPath id="d0a681e89e"><path d="M 277.097656 396.195312 L 317.445312 336.4375 L 959.882812 770.195312 L 919.535156 829.953125 Z M 277.097656 396.195312 " clip-rule="nonzero"/></clipPath><clipPath id="0c253d50d4"><path d="M 277.097656 396.195312 L 317.445312 336.4375 L 958.835938 769.492188 L 918.492188 829.246094 Z M 277.097656 396.195312 " clip-rule="nonzero"/></clipPath><clipPath id="639a4aad1c"><path d="M 126 129 L 304 129 L 304 302 L 126 302 Z M 126 129 " clip-rule="nonzero"/></clipPath><clipPath id="1caa486381"><path d="M -112.1875 562.550781 L 339.808594 -106.894531 L 1171.488281 454.636719 L 719.496094 1124.082031 Z M -112.1875 562.550781 " clip-rule="nonzero"/></clipPath><clipPath id="5013339068"><path d="M -112.1875 562.550781 L 339.808594 -106.894531 L 1171.488281 454.636719 L 719.496094 1124.082031 Z M -112.1875 562.550781 " clip-rule="nonzero"/></clipPath><clipPath id="905cf7dfc7"><path d="M 250 288 L 277 288 L 277 302 L 250 302 Z M 250 288 " clip-rule="nonzero"/></clipPath><clipPath id="04e27ed9bd"><path d="M -112.1875 562.550781 L 339.808594 -106.894531 L 1171.488281 454.636719 L 719.496094 1124.082031 Z M -112.1875 562.550781 " clip-rule="nonzero"/></clipPath><clipPath id="5c64629feb"><path d="M -112.1875 562.550781 L 339.808594 -106.894531 L 1171.488281 454.636719 L 719.496094 1124.082031 Z M -112.1875 562.550781 " clip-rule="nonzero"/></clipPath><clipPath id="6d22b39965"><path d="M 69 244 L 258 244 L 258 365 L 69 365 Z M 69 244 " clip-rule="nonzero"/></clipPath><clipPath id="62da3acfe9"><path d="M -112.1875 562.550781 L 339.808594 -106.894531 L 1171.488281 454.636719 L 719.496094 1124.082031 Z M -112.1875 562.550781 " clip-rule="nonzero"/></clipPath><clipPath id="eafeca533f"><path d="M -112.1875 562.550781 L 339.808594 -106.894531 L 1171.488281 454.636719 L 719.496094 1124.082031 Z M -112.1875 562.550781 " clip-rule="nonzero"/></clipPath><clipPath id="dff2bf47e1"><path d="M 286 101 L 395 101 L 395 288 L 286 288 Z M 286 101 " clip-rule="nonzero"/></clipPath><clipPath id="2b39a58e6c"><path d="M -112.1875 562.550781 L 339.808594 -106.894531 L 1171.488281 454.636719 L 719.496094 1124.082031 Z M -112.1875 562.550781 " clip-rule="nonzero"/></clipPath><clipPath id="0370998138"><path d="M -112.1875 562.550781 L 339.808594 -106.894531 L 1171.488281 454.636719 L 719.496094 1124.082031 Z M -112.1875 562.550781 " clip-rule="nonzero"/></clipPath><clipPath id="f45ece2967"><path d="M 212 255 L 273 255 L 273 295 L 212 295 Z M 212 255 " clip-rule="nonzero"/></clipPath><clipPath id="c6f9164beb"><path d="M -112.1875 562.550781 L 339.808594 -106.894531 L 1171.488281 454.636719 L 719.496094 1124.082031 Z M -112.1875 562.550781 " clip-rule="nonzero"/></clipPath><clipPath id="9f23053d1d"><path d="M -112.1875 562.550781 L 339.808594 -106.894531 L 1171.488281 454.636719 L 719.496094 1124.082031 Z M -112.1875 562.550781 " clip-rule="nonzero"/></clipPath><clipPath id="d14a83d4b9"><path d="M 266 288 L 277 288 L 277 295 L 266 295 Z M 266 288 " clip-rule="nonzero"/></clipPath><clipPath id="57d4ca17de"><path d="M -112.1875 562.550781 L 339.808594 -106.894531 L 1171.488281 454.636719 L 719.496094 1124.082031 Z M -112.1875 562.550781 " clip-rule="nonzero"/></clipPath><clipPath id="0862f10ab1"><path d="M -112.1875 562.550781 L 339.808594 -106.894531 L 1171.488281 454.636719 L 719.496094 1124.082031 Z M -112.1875 562.550781 " clip-rule="nonzero"/></clipPath><clipPath id="94b8450573"><path d="M 251 207 L 278 207 L 278 293 L 251 293 Z M 251 207 " clip-rule="nonzero"/></clipPath><clipPath id="6e75e31bfe"><path d="M -112.1875 562.550781 L 339.808594 -106.894531 L 1171.488281 454.636719 L 719.496094 1124.082031 Z M -112.1875 562.550781 " clip-rule="nonzero"/></clipPath><clipPath id="e8dc00b924"><path d="M -112.1875 562.550781 L 339.808594 -106.894531 L 1171.488281 454.636719 L 719.496094 1124.082031 Z M -112.1875 562.550781 " clip-rule="nonzero"/></clipPath><clipPath id="2bef470631"><path d="M 269 286 L 277 286 L 277 295 L 269 295 Z M 269 286 " clip-rule="nonzero"/></clipPath><clipPath id="1ee36df08b"><path d="M -112.1875 562.550781 L 339.808594 -106.894531 L 1171.488281 454.636719 L 719.496094 1124.082031 Z M -112.1875 562.550781 " clip-rule="nonzero"/></clipPath><clipPath id="76ead7a2cf"><path d="M -112.1875 562.550781 L 339.808594 -106.894531 L 1171.488281 454.636719 L 719.496094 1124.082031 Z M -112.1875 562.550781 " clip-rule="nonzero"/></clipPath><clipPath id="640b3fc512"><path d="M 127 293 L 257 293 L 257 312 L 127 312 Z M 127 293 " clip-rule="nonzero"/></clipPath><clipPath id="d60f64c6f0"><path d="M -112.1875 562.550781 L 339.808594 -106.894531 L 1171.488281 454.636719 L 719.496094 1124.082031 Z M -112.1875 562.550781 " clip-rule="nonzero"/></clipPath><clipPath id="3d928c47ec"><path d="M -112.1875 562.550781 L 339.808594 -106.894531 L 1171.488281 454.636719 L 719.496094 1124.082031 Z M -112.1875 562.550781 " clip-rule="nonzero"/></clipPath><clipPath id="c23c1ceeca"><path d="M 153 295 L 257 295 L 257 338 L 153 338 Z M 153 295 " clip-rule="nonzero"/></clipPath><clipPath id="d4dd7ae802"><path d="M -112.1875 562.550781 L 339.808594 -106.894531 L 1171.488281 454.636719 L 719.496094 1124.082031 Z M -112.1875 562.550781 " clip-rule="nonzero"/></clipPath><clipPath id="51b84c151f"><path d="M -112.1875 562.550781 L 339.808594 -106.894531 L 1171.488281 454.636719 L 719.496094 1124.082031 Z M -112.1875 562.550781 " clip-rule="nonzero"/></clipPath><clipPath id="5637ee1842"><path d="M 481 367 L 616 367 L 616 449 L 481 449 Z M 481 367 " clip-rule="nonzero"/></clipPath><clipPath id="552d41abd0"><path d="M -112.1875 562.550781 L 339.808594 -106.894531 L 1171.488281 454.636719 L 719.496094 1124.082031 Z M -112.1875 562.550781 " clip-rule="nonzero"/></clipPath><clipPath id="7a19a22b22"><path d="M -112.1875 562.550781 L 339.808594 -106.894531 L 1171.488281 454.636719 L 719.496094 1124.082031 Z M -112.1875 562.550781 " clip-rule="nonzero"/></clipPath><clipPath id="c32055e8ee"><path d="M 383 292 L 636 292 L 636 508 L 383 508 Z M 383 292 " clip-rule="nonzero"/></clipPath><clipPath id="df0afbaaff"><path d="M -112.1875 562.550781 L 339.808594 -106.894531 L 1171.488281 454.636719 L 719.496094 1124.082031 Z M -112.1875 562.550781 " clip-rule="nonzero"/></clipPath><clipPath id="8d7fe8716c"><path d="M -112.1875 562.550781 L 339.808594 -106.894531 L 1171.488281 454.636719 L 719.496094 1124.082031 Z M -112.1875 562.550781 " clip-rule="nonzero"/></clipPath><clipPath id="8917ff30b0"><path d="M 383 292 L 600 292 L 600 389 L 383 389 Z M 383 292 " clip-rule="nonzero"/></clipPath><clipPath id="fa75782d79"><path d="M -112.1875 562.550781 L 339.808594 -106.894531 L 1171.488281 454.636719 L 719.496094 1124.082031 Z M -112.1875 562.550781 " clip-rule="nonzero"/></clipPath><clipPath id="5d1f56ac17"><path d="M -112.1875 562.550781 L 339.808594 -106.894531 L 1171.488281 454.636719 L 719.496094 1124.082031 Z M -112.1875 562.550781 " clip-rule="nonzero"/></clipPath><clipPath id="5e04db415a"><path d="M 189 649 L 622 649 L 622 798 L 189 798 Z M 189 649 " clip-rule="nonzero"/></clipPath><clipPath id="f4f7d3f33b"><path d="M -112.1875 562.550781 L 339.808594 -106.894531 L 1171.488281 454.636719 L 719.496094 1124.082031 Z M -112.1875 562.550781 " clip-rule="nonzero"/></clipPath><clipPath id="738f81c828"><path d="M -112.1875 562.550781 L 339.808594 -106.894531 L 1171.488281 454.636719 L 719.496094 1124.082031 Z M -112.1875 562.550781 " clip-rule="nonzero"/></clipPath><clipPath id="550e03f4b0"><path d="M 189 653 L 560 653 L 560 766 L 189 766 Z M 189 653 " clip-rule="nonzero"/></clipPath><clipPath id="133a5ffc48"><path d="M -112.1875 562.550781 L 339.808594 -106.894531 L 1171.488281 454.636719 L 719.496094 1124.082031 Z M -112.1875 562.550781 " clip-rule="nonzero"/></clipPath><clipPath id="9620f1f5d2"><path d="M -112.1875 562.550781 L 339.808594 -106.894531 L 1171.488281 454.636719 L 719.496094 1124.082031 Z M -112.1875 562.550781 " clip-rule="nonzero"/></clipPath><clipPath id="285a06375b"><path d="M 296 680 L 530 680 L 530 753 L 296 753 Z M 296 680 " clip-rule="nonzero"/></clipPath><clipPath id="37b23ef92c"><path d="M -112.1875 562.550781 L 339.808594 -106.894531 L 1171.488281 454.636719 L 719.496094 1124.082031 Z M -112.1875 562.550781 " clip-rule="nonzero"/></clipPath><clipPath id="1d4d7427cd"><path d="M -112.1875 562.550781 L 339.808594 -106.894531 L 1171.488281 454.636719 L 719.496094 1124.082031 Z M -112.1875 562.550781 " clip-rule="nonzero"/></clipPath><clipPath id="e3a2762600"><path d="M 483 90 L 541 90 L 541 191 L 483 191 Z M 483 90 " clip-rule="nonzero"/></clipPath><clipPath id="cc3fdd12bf"><path d="M -112.1875 562.550781 L 339.808594 -106.894531 L 1171.488281 454.636719 L 719.496094 1124.082031 Z M -112.1875 562.550781 " clip-rule="nonzero"/></clipPath><clipPath id="f8291aff35"><path d="M -112.1875 562.550781 L 339.808594 -106.894531 L 1171.488281 454.636719 L 719.496094 1124.082031 Z M -112.1875 562.550781 " clip-rule="nonzero"/></clipPath><clipPath id="d81b6e0c5a"><path d="M 510 174 L 562 174 L 562 227 L 510 227 Z M 510 174 " clip-rule="nonzero"/></clipPath><clipPath id="fafabf9c5f"><path d="M -112.1875 562.550781 L 339.808594 -106.894531 L 1171.488281 454.636719 L 719.496094 1124.082031 Z M -112.1875 562.550781 " clip-rule="nonzero"/></clipPath><clipPath id="14461331a6"><path d="M -112.1875 562.550781 L 339.808594 -106.894531 L 1171.488281 454.636719 L 719.496094 1124.082031 Z M -112.1875 562.550781 " clip-rule="nonzero"/></clipPath><clipPath id="5fba77ba49"><path d="M 470 88 L 478 88 L 478 107 L 470 107 Z M 470 88 " clip-rule="nonzero"/></clipPath><clipPath id="41fdae3b95"><path d="M -112.1875 562.550781 L 339.808594 -106.894531 L 1171.488281 454.636719 L 719.496094 1124.082031 Z M -112.1875 562.550781 " clip-rule="nonzero"/></clipPath><clipPath id="7671eac813"><path d="M -112.1875 562.550781 L 339.808594 -106.894531 L 1171.488281 454.636719 L 719.496094 1124.082031 Z M -112.1875 562.550781 " clip-rule="nonzero"/></clipPath><clipPath id="3f93ef4084"><path d="M 464 100 L 535 100 L 535 194 L 464 194 Z M 464 100 " clip-rule="nonzero"/></clipPath><clipPath id="f85a60f6ce"><path d="M -112.1875 562.550781 L 339.808594 -106.894531 L 1171.488281 454.636719 L 719.496094 1124.082031 Z M -112.1875 562.550781 " clip-rule="nonzero"/></clipPath><clipPath id="9d8e4f5eee"><path d="M -112.1875 562.550781 L 339.808594 -106.894531 L 1171.488281 454.636719 L 719.496094 1124.082031 Z M -112.1875 562.550781 " clip-rule="nonzero"/></clipPath><clipPath id="8711a39d57"><path d="M 470 100 L 531 100 L 531 190 L 470 190 Z M 470 100 " clip-rule="nonzero"/></clipPath><clipPath id="dbb3f8da23"><path d="M -112.1875 562.550781 L 339.808594 -106.894531 L 1171.488281 454.636719 L 719.496094 1124.082031 Z M -112.1875 562.550781 " clip-rule="nonzero"/></clipPath><clipPath id="65a1d56ce8"><path d="M -112.1875 562.550781 L 339.808594 -106.894531 L 1171.488281 454.636719 L 719.496094 1124.082031 Z M -112.1875 562.550781 " clip-rule="nonzero"/></clipPath><clipPath id="9f4cb04b18"><path d="M 475 89 L 535 89 L 535 190 L 475 190 Z M 475 89 " clip-rule="nonzero"/></clipPath><clipPath id="ab12784334"><path d="M -112.1875 562.550781 L 339.808594 -106.894531 L 1171.488281 454.636719 L 719.496094 1124.082031 Z M -112.1875 562.550781 " clip-rule="nonzero"/></clipPath><clipPath id="0455cedced"><path d="M -112.1875 562.550781 L 339.808594 -106.894531 L 1171.488281 454.636719 L 719.496094 1124.082031 Z M -112.1875 562.550781 " clip-rule="nonzero"/></clipPath><clipPath id="e379c934f4"><path d="M 471 88 L 566 88 L 566 189 L 471 189 Z M 471 88 " clip-rule="nonzero"/></clipPath><clipPath id="308d60f9e0"><path d="M -112.1875 562.550781 L 339.808594 -106.894531 L 1171.488281 454.636719 L 719.496094 1124.082031 Z M -112.1875 562.550781 " clip-rule="nonzero"/></clipPath><clipPath id="1c5e83c0dd"><path d="M -112.1875 562.550781 L 339.808594 -106.894531 L 1171.488281 454.636719 L 719.496094 1124.082031 Z M -112.1875 562.550781 " clip-rule="nonzero"/></clipPath><clipPath id="094babd276"><path d="M 655 343 L 746 343 L 746 451 L 655 451 Z M 655 343 " clip-rule="nonzero"/></clipPath><clipPath id="dfa23c0f67"><path d="M -112.1875 562.550781 L 339.808594 -106.894531 L 1171.488281 454.636719 L 719.496094 1124.082031 Z M -112.1875 562.550781 " clip-rule="nonzero"/></clipPath><clipPath id="68f47ad051"><path d="M -112.1875 562.550781 L 339.808594 -106.894531 L 1171.488281 454.636719 L 719.496094 1124.082031 Z M -112.1875 562.550781 " clip-rule="nonzero"/></clipPath><clipPath id="863aa734bc"><path d="M 532 171 L 557 171 L 557 225 L 532 225 Z M 532 171 " clip-rule="nonzero"/></clipPath><clipPath id="3904aeddc5"><path d="M -112.1875 562.550781 L 339.808594 -106.894531 L 1171.488281 454.636719 L 719.496094 1124.082031 Z M -112.1875 562.550781 " clip-rule="nonzero"/></clipPath><clipPath id="a1b6a46f08"><path d="M -112.1875 562.550781 L 339.808594 -106.894531 L 1171.488281 454.636719 L 719.496094 1124.082031 Z M -112.1875 562.550781 " clip-rule="nonzero"/></clipPath><clipPath id="7d68b9c166"><path d="M 289 169 L 343 169 L 343 280 L 289 280 Z M 289 169 " clip-rule="nonzero"/></clipPath><clipPath id="628ac7ab47"><path d="M -112.1875 562.550781 L 339.808594 -106.894531 L 1171.488281 454.636719 L 719.496094 1124.082031 Z M -112.1875 562.550781 " clip-rule="nonzero"/></clipPath><clipPath id="c302977a2e"><path d="M -112.1875 562.550781 L 339.808594 -106.894531 L 1171.488281 454.636719 L 719.496094 1124.082031 Z M -112.1875 562.550781 " clip-rule="nonzero"/></clipPath><clipPath id="da4d8731ad"><path d="M 315 333 L 324 333 L 324 345 L 315 345 Z M 315 333 " clip-rule="nonzero"/></clipPath><clipPath id="b7ce307609"><path d="M -112.1875 562.550781 L 339.808594 -106.894531 L 1171.488281 454.636719 L 719.496094 1124.082031 Z M -112.1875 562.550781 " clip-rule="nonzero"/></clipPath><clipPath id="1a0294897d"><path d="M -112.1875 562.550781 L 339.808594 -106.894531 L 1171.488281 454.636719 L 719.496094 1124.082031 Z M -112.1875 562.550781 " clip-rule="nonzero"/></clipPath></defs><g clip-path="url(#d0638ba5e4)"><g clip-path="url(#4619c04958)"><g clip-path="url(#50203aec9f)"><path fill="#000000" d="M 552.117188 644.824219 C 551.59375 645.597656 550.726562 646.125 549.734375 646.15625 C 548.105469 646.207031 546.730469 644.984375 546.640625 643.355469 C 546.636719 643.289062 546.632812 643.03125 546.636719 642.96875 C 546.675781 639.054688 546.339844 635.328125 545.609375 631.378906 C 542.0625 612.023438 529.671875 594.339844 519.273438 581.089844 C 488.605469 542.15625 457.125 517.527344 423.035156 505.8125 C 400.910156 498.199219 376.605469 495.871094 353.097656 493.621094 C 340.589844 492.429688 327.667969 491.199219 315.230469 489.171875 C 313.597656 488.910156 312.480469 487.363281 312.75 485.734375 C 313.011719 484.085938 314.554688 482.976562 316.195312 483.246094 C 328.429688 485.226562 341.265625 486.453125 353.667969 487.644531 C 377.523438 489.921875 402.191406 492.285156 424.988281 500.125 C 460.207031 512.238281 492.585938 537.507812 523.992188 577.375 C 534.824219 591.171875 547.738281 609.640625 551.515625 630.289062 C 552.316406 634.613281 552.683594 638.726562 552.640625 642.847656 L 549.640625 643.109375 L 552.644531 643.078125 C 552.65625 643.71875 552.457031 644.320312 552.117188 644.824219 " fill-opacity="1" fill-rule="nonzero"/></g></g></g><g clip-path="url(#300da94282)"><g clip-path="url(#2a98a659be)"><g clip-path="url(#5cfddf1a83)"><path fill="#000000" d="M 551.050781 632.515625 C 550.335938 633.578125 548.980469 634.101562 547.683594 633.703125 C 499.078125 618.863281 454.757812 589.058594 422.894531 549.773438 C 421.847656 548.480469 422.039062 546.589844 423.332031 545.546875 C 424.621094 544.5 426.511719 544.691406 427.558594 545.980469 C 458.679688 584.355469 501.964844 613.46875 549.4375 627.960938 C 551.023438 628.445312 551.917969 630.128906 551.4375 631.707031 C 551.339844 632.003906 551.214844 632.277344 551.050781 632.515625 " fill-opacity="1" fill-rule="nonzero"/></g></g></g><g clip-path="url(#b9792541bb)"><g clip-path="url(#e85d5f3dbb)"><g clip-path="url(#f253e4ced6)"><path fill="#000000" d="M 435.601562 638.722656 C 434.679688 640.09375 432.820312 640.453125 431.445312 639.542969 C 427.625 636.992188 424.257812 634.820312 421.144531 632.898438 C 367.363281 599.058594 308.703125 575.171875 246.777344 561.910156 C 228.488281 558 207 554.410156 186.320312 557.367188 C 172.820312 559.296875 159.003906 563.976562 145.640625 568.507812 C 136.449219 571.621094 126.945312 574.832031 117.652344 577.121094 C 116.039062 577.523438 114.410156 576.535156 114.011719 574.917969 C 113.621094 573.3125 114.601562 571.679688 116.214844 571.289062 C 125.261719 569.0625 134.640625 565.886719 143.707031 562.816406 C 157.335938 558.195312 171.417969 553.429688 185.464844 551.417969 C 207.082031 548.332031 229.222656 552.019531 248.035156 556.035156 C 310.652344 569.445312 369.96875 593.597656 424.320312 627.804688 C 427.46875 629.742188 430.898438 631.949219 434.773438 634.539062 C 436.160156 635.457031 436.539062 637.324219 435.617188 638.703125 C 435.613281 638.710938 435.609375 638.71875 435.601562 638.722656 " fill-opacity="1" fill-rule="nonzero"/></g></g></g><g clip-path="url(#2644189320)"><g clip-path="url(#bf64b40a12)"><g clip-path="url(#6c23a57a03)"><path fill="#000000" d="M 425.214844 632.019531 C 424.792969 632.644531 424.148438 633.105469 423.359375 633.28125 C 394.265625 639.625 360.683594 638.851562 323.535156 630.988281 C 296.609375 625.257812 270.082031 616.515625 244.441406 608.058594 C 232.214844 604.03125 219.566406 599.863281 207.0625 596.082031 C 205.46875 595.601562 204.574219 593.921875 205.054688 592.339844 C 205.53125 590.753906 207.210938 589.851562 208.804688 590.328125 C 221.378906 594.128906 234.058594 598.308594 246.320312 602.351562 C 271.8125 610.765625 298.175781 619.457031 324.777344 625.105469 C 361.085938 632.796875 393.824219 633.570312 422.085938 627.410156 C 423.703125 627.054688 425.304688 628.082031 425.652344 629.703125 C 425.839844 630.535156 425.65625 631.367188 425.214844 632.019531 " fill-opacity="1" fill-rule="nonzero"/></g></g></g><g clip-path="url(#096f7d8b03)"><g clip-path="url(#4be4473010)"><g clip-path="url(#a7ab92c676)"><path fill="#000000" d="M 496.074219 639.347656 C 495.269531 640.542969 493.695312 641.007812 492.34375 640.398438 C 473.453125 631.816406 455.496094 621.203125 438.976562 608.851562 C 412.484375 589.054688 389.207031 564.511719 366.695312 540.789062 C 349.78125 522.972656 332.292969 504.535156 313.746094 488.480469 C 312.484375 487.394531 312.355469 485.492188 313.441406 484.246094 C 314.527344 482.988281 316.421875 482.851562 317.683594 483.9375 C 336.449219 500.1875 354.042969 518.730469 371.054688 536.65625 C 393.390625 560.203125 416.492188 584.550781 442.570312 604.035156 C 458.75 616.128906 476.324219 626.523438 494.828125 634.929688 C 496.339844 635.609375 497.007812 637.390625 496.324219 638.90625 C 496.25 639.058594 496.164062 639.210938 496.074219 639.347656 " fill-opacity="1" fill-rule="nonzero"/></g></g></g><g clip-path="url(#c28026d414)"><g clip-path="url(#59bb387d47)"><g clip-path="url(#c0e6032d0f)"><path fill="#000000" d="M 654.871094 552.601562 C 654.339844 553.394531 653.4375 553.917969 652.402344 553.925781 C 650.742188 553.941406 649.390625 552.601562 649.375 550.941406 C 649.1875 523.410156 650.476562 495.496094 653.207031 467.972656 C 653.902344 460.84375 654.6875 453.867188 655.515625 447.253906 L 655.59375 446.695312 C 655.636719 446.28125 655.695312 445.875 655.753906 445.480469 C 655.949219 443.835938 656.1875 442.082031 656.421875 440.335938 C 661.558594 402.050781 669.503906 364.054688 680.066406 327.265625 C 681.285156 323.042969 682.535156 318.800781 683.785156 314.558594 C 692.40625 285.347656 701.324219 255.136719 698.46875 225.011719 C 698.308594 223.355469 699.523438 221.890625 701.179688 221.734375 C 702.824219 221.578125 704.292969 222.789062 704.449219 224.441406 C 707.410156 255.726562 698.332031 286.496094 689.550781 316.25 C 688.300781 320.484375 687.050781 324.710938 685.847656 328.929688 C 675.359375 365.433594 667.46875 403.140625 662.394531 440.996094 C 662.148438 442.859375 661.90625 444.574219 661.707031 446.28125 C 661.640625 446.726562 661.59375 447.082031 661.554688 447.433594 L 661.484375 448.027344 C 660.65625 454.566406 659.882812 461.484375 659.1875 468.566406 C 656.472656 495.882812 655.199219 523.578125 655.386719 550.902344 C 655.386719 551.535156 655.199219 552.117188 654.871094 552.601562 " fill-opacity="1" fill-rule="nonzero"/></g></g></g><g clip-path="url(#b43ec8a535)"><g clip-path="url(#9ce2cfe4d6)"><g clip-path="url(#87c3e9d720)"><path fill="#000000" d="M 661.148438 447.582031 C 660.867188 448 660.484375 448.34375 660 448.574219 C 658.511719 449.296875 656.738281 448.730469 656.019531 447.238281 L 655.957031 447.117188 C 655.558594 446.273438 655.144531 445.429688 654.726562 444.597656 L 652.445312 439.960938 C 643.152344 421.074219 633.542969 401.558594 629.652344 380.402344 C 621.671875 337.160156 638.035156 294.675781 653.871094 253.589844 C 656.042969 247.9375 658.210938 242.3125 660.304688 236.71875 C 673.824219 200.480469 679.488281 170.386719 677.636719 144.714844 C 677.519531 143.058594 678.765625 141.617188 680.417969 141.507812 C 682.074219 141.378906 683.515625 142.625 683.632812 144.28125 C 685.546875 170.835938 679.761719 201.75 665.929688 238.820312 C 663.835938 244.4375 661.660156 250.078125 659.476562 255.75 C 643.945312 296.058594 627.886719 337.742188 635.566406 379.304688 C 639.304688 399.652344 648.722656 418.796875 657.839844 437.316406 L 660.101562 441.921875 C 660.519531 442.742188 660.945312 443.621094 661.367188 444.503906 C 661.863281 445.519531 661.746094 446.703125 661.148438 447.582031 " fill-opacity="1" fill-rule="nonzero"/></g></g></g><g clip-path="url(#7ab803e592)"><g clip-path="url(#cfb0b1e3cc)"><g clip-path="url(#568f54e3ce)"><path fill="#000000" d="M 672.253906 427.847656 C 668.910156 432.800781 665.429688 437.664062 661.816406 442.417969 C 661.167969 443.292969 660.46875 444.1875 659.777344 445.082031 C 658.761719 446.394531 656.871094 446.632812 655.566406 445.617188 C 654.253906 444.597656 654.03125 442.703125 655.03125 441.402344 C 655.699219 440.542969 656.359375 439.6875 657.007812 438.8125 C 687.328125 398.933594 708.015625 351.785156 716.898438 302.382812 C 718.375 294.203125 719.542969 285.761719 720.378906 277.28125 C 723.710938 242.894531 720.339844 214.886719 710.089844 191.644531 C 703.449219 176.605469 693.101562 161.871094 678.464844 146.578125 C 677.3125 145.375 677.351562 143.476562 678.554688 142.324219 C 679.75 141.179688 681.660156 141.21875 682.804688 142.417969 C 697.933594 158.222656 708.660156 173.535156 715.582031 189.214844 C 726.273438 213.425781 729.796875 242.425781 726.351562 277.867188 C 725.507812 286.503906 724.320312 295.113281 722.816406 303.453125 C 714.824219 347.878906 697.445312 390.539062 672.253906 427.847656 " fill-opacity="1" fill-rule="nonzero"/></g></g></g><g clip-path="url(#9bcac53e66)"><g clip-path="url(#667dbf71aa)"><g clip-path="url(#7948584ad9)"><g clip-path="url(#70fd52bf35)"><g clip-path="url(#ed98f388a8)"><path fill="#000000" d="M 797.785156 206.910156 C 797.675781 207.074219 797.558594 207.21875 797.417969 207.359375 C 790.128906 214.636719 782.085938 221.457031 773.503906 227.632812 C 771.773438 228.882812 770.019531 230.097656 768.265625 231.308594 C 762.40625 235.375 756.339844 239.578125 751.410156 244.671875 C 740.667969 255.742188 735.375 270.28125 729.777344 285.6875 C 727.558594 291.785156 725.265625 298.101562 722.613281 304.128906 C 722.351562 304.742188 722.058594 305.394531 721.757812 306.050781 C 721.0625 307.574219 719.261719 308.28125 717.753906 307.59375 C 716.242188 306.90625 715.542969 305.1875 716.234375 303.679688 C 716.238281 303.671875 716.289062 303.554688 716.289062 303.554688 C 716.558594 302.957031 716.835938 302.367188 717.085938 301.753906 C 719.6875 295.863281 721.941406 289.644531 724.132812 283.628906 C 729.695312 268.316406 735.453125 252.476562 747.097656 240.484375 C 752.433594 234.976562 758.746094 230.601562 764.839844 226.371094 C 766.574219 225.175781 768.296875 223.976562 770.003906 222.75 C 778.3125 216.769531 786.109375 210.15625 793.171875 203.105469 C 794.347656 201.9375 796.253906 201.941406 797.425781 203.109375 C 798.457031 204.144531 798.574219 205.746094 797.785156 206.910156 " fill-opacity="1" fill-rule="nonzero"/></g></g></g></g></g><g clip-path="url(#96f099f43b)"><g clip-path="url(#f7e6016092)"><g clip-path="url(#c59f68f563)"><g clip-path="url(#59faf94581)"><g clip-path="url(#8c8689eb22)"><path fill="#000000" d="M 745.136719 394.136719 C 724.296875 425 697.8125 449.871094 668.105469 465.734375 C 664.523438 467.65625 660.929688 469.429688 657.4375 471.007812 C 655.925781 471.695312 654.140625 471.019531 653.460938 469.511719 C 652.777344 467.996094 653.457031 466.21875 654.960938 465.53125 C 658.335938 464.015625 661.796875 462.296875 665.269531 460.4375 C 711.636719 435.671875 750.015625 388.199219 770.554688 330.191406 C 783.21875 294.371094 790.332031 253.46875 792.296875 205.113281 C 792.367188 203.460938 793.761719 202.164062 795.421875 202.238281 C 797.078125 202.296875 798.371094 203.699219 798.296875 205.359375 C 796.3125 254.316406 789.085938 295.804688 776.21875 332.191406 C 768.289062 354.589844 757.746094 375.460938 745.136719 394.136719 " fill-opacity="1" fill-rule="nonzero"/></g></g></g></g></g><g clip-path="url(#6c51182441)"><g clip-path="url(#2e51362adb)"><g clip-path="url(#e1e448e74d)"><path fill="#000000" d="M 745.546875 680.460938 C 744.808594 681.558594 743.398438 682.066406 742.082031 681.625 C 737.320312 679.992188 732.382812 678.445312 727.410156 677.023438 C 704.160156 670.320312 680.222656 665.800781 651.453125 661.070312 C 647.929688 660.484375 644.425781 659.925781 640.921875 659.351562 C 633.238281 658.109375 625.519531 656.871094 617.824219 655.640625 C 597.339844 652.382812 573.179688 648.664062 549.277344 645.796875 C 529.238281 643.359375 510.964844 641.679688 493.410156 640.664062 C 472.09375 639.421875 452.414062 639.21875 433.242188 640.039062 C 433.125 640.042969 433.011719 640.042969 432.898438 640.03125 C 432.875 640.035156 432.632812 640.050781 432.609375 640.054688 C 416.667969 640.75 400.378906 642.234375 384.628906 643.664062 C 352.8125 646.546875 319.90625 649.535156 287.5 646.34375 C 232.746094 640.960938 178.015625 618.828125 115.253906 576.699219 C 113.878906 575.769531 113.511719 573.910156 114.433594 572.53125 C 114.4375 572.523438 114.4375 572.523438 114.4375 572.523438 C 115.367188 571.148438 117.234375 570.789062 118.601562 571.710938 C 180.507812 613.261719 234.363281 635.078125 288.089844 640.367188 C 319.933594 643.5 352.546875 640.539062 384.085938 637.679688 C 399.90625 636.238281 416.265625 634.757812 432.398438 634.046875 C 432.699219 634.035156 432.910156 634.027344 433.109375 634.027344 C 452.441406 633.207031 472.28125 633.410156 493.761719 634.664062 C 511.441406 635.6875 529.84375 637.378906 550.003906 639.832031 C 574 642.714844 598.226562 646.441406 618.765625 649.707031 C 626.46875 650.933594 634.195312 652.175781 641.886719 653.421875 C 645.394531 653.988281 648.898438 654.5625 652.425781 655.140625 C 681.414062 659.898438 705.539062 664.464844 729.0625 671.246094 C 734.128906 672.695312 739.164062 674.273438 744.027344 675.933594 C 745.597656 676.472656 746.4375 678.179688 745.894531 679.75 C 745.808594 680.003906 745.691406 680.246094 745.546875 680.460938 " fill-opacity="1" fill-rule="nonzero"/></g></g></g><g clip-path="url(#479720c888)"><g clip-path="url(#2413325ed5)"><g clip-path="url(#33b9d20e58)"><path fill="#000000" d="M 615.023438 446.800781 C 614.652344 447.351562 614.09375 447.785156 613.402344 448 C 611.816406 448.476562 610.140625 447.570312 609.65625 445.980469 C 603.917969 426.933594 598.574219 406.816406 593.773438 386.195312 C 588.007812 361.414062 582.921875 335.476562 578.667969 309.097656 C 573.949219 280.027344 568.601562 247.078125 549.851562 225.335938 C 548.761719 224.082031 548.90625 222.175781 550.164062 221.101562 C 551.417969 220.011719 553.3125 220.152344 554.398438 221.410156 C 574.265625 244.433594 579.753906 278.28125 584.59375 308.140625 C 588.835938 334.378906 593.890625 360.183594 599.625 384.832031 C 604.398438 405.332031 609.707031 425.320312 615.414062 444.25 C 615.683594 445.148438 615.507812 446.078125 615.023438 446.800781 " fill-opacity="1" fill-rule="nonzero"/></g></g></g><g clip-path="url(#afdb1bcbb8)"><g clip-path="url(#2fa6b903ea)"><g clip-path="url(#bb9176b5c7)"><path fill="#000000" d="M 730.722656 675.8125 C 730.558594 676.050781 730.363281 676.269531 730.136719 676.457031 C 728.855469 677.515625 726.960938 677.324219 725.90625 676.035156 C 724.363281 674.152344 722.332031 671.65625 720.347656 669.054688 C 693.601562 634.898438 669.808594 595.566406 649.660156 552.1875 C 642.878906 537.652344 636.257812 522.003906 629.980469 505.703125 C 622.613281 486.453125 615.769531 466.371094 609.644531 446 C 609.167969 444.414062 610.0625 442.734375 611.65625 442.261719 C 613.25 441.777344 614.921875 442.683594 615.398438 444.269531 C 621.480469 464.5 628.273438 484.445312 635.585938 503.550781 C 641.824219 519.71875 648.386719 535.234375 655.105469 549.65625 C 675.066406 592.621094 698.617188 631.554688 725.101562 665.382812 C 727.050781 667.933594 729.042969 670.382812 730.550781 672.234375 C 731.417969 673.28125 731.445312 674.742188 730.722656 675.8125 " fill-opacity="1" fill-rule="nonzero"/></g></g></g><g clip-path="url(#39afacf06c)"><g clip-path="url(#9063dd1338)"><g clip-path="url(#3882d658fc)"><path fill="#000000" d="M 322.671875 338.441406 C 322.417969 338.816406 322.078125 339.140625 321.652344 339.375 C 320.207031 340.191406 318.375 339.671875 317.566406 338.230469 C 315.085938 333.808594 314.9375 328.070312 314.808594 323.019531 L 314.765625 321.613281 C 314.375 308.867188 308.566406 295.980469 298.847656 286.253906 C 296.308594 283.738281 293.53125 281.457031 290.601562 279.480469 C 288.050781 277.757812 285.367188 276.285156 282.625 275.101562 C 281.097656 274.441406 280.394531 272.671875 281.050781 271.152344 C 281.695312 269.640625 283.476562 268.929688 285 269.582031 C 288.089844 270.910156 291.105469 272.566406 293.964844 274.5 C 297.207031 276.6875 300.273438 279.203125 303.085938 282 C 313.894531 292.800781 320.328125 307.167969 320.769531 321.429688 L 320.8125 322.863281 C 320.921875 327.222656 321.054688 332.164062 322.804688 335.292969 C 323.382812 336.3125 323.289062 337.523438 322.671875 338.441406 " fill-opacity="1" fill-rule="nonzero"/></g></g></g><g clip-path="url(#f2eba55226)"><g clip-path="url(#117aa69b4f)"><g clip-path="url(#8fcdfef474)"><path fill="#000000" d="M 321.457031 342.894531 C 320.980469 343.601562 320.207031 344.089844 319.300781 344.1875 C 319.058594 344.210938 318.839844 344.214844 318.597656 344.222656 C 303.550781 344.738281 289.457031 336.207031 277.648438 327.789062 L 276.007812 326.625 C 267.527344 320.558594 258.757812 314.28125 249.429688 310.898438 C 247.878906 310.332031 247.070312 308.605469 247.640625 307.046875 C 248.199219 305.480469 249.925781 304.683594 251.488281 305.246094 C 261.578125 308.914062 270.699219 315.429688 279.507812 321.738281 L 281.128906 322.898438 C 292.128906 330.730469 305.136719 338.671875 318.320312 338.21875 L 318.671875 338.210938 C 320.320312 338.066406 321.796875 339.273438 321.953125 340.917969 C 322.019531 341.644531 321.835938 342.339844 321.457031 342.894531 " fill-opacity="1" fill-rule="nonzero"/></g></g></g><g clip-path="url(#24b597e028)"><g clip-path="url(#ed7e5d875e)"><g clip-path="url(#54397eca0c)"><g clip-path="url(#d0a681e89e)"><g clip-path="url(#0c253d50d4)"><path fill="#000000" d="M 920.777344 825.863281 C 920.566406 826.175781 920.296875 826.445312 919.972656 826.660156 C 918.605469 827.597656 916.738281 827.242188 915.800781 825.875 C 872.128906 761.78125 806.246094 718.554688 741.554688 681.382812 C 734.820312 677.503906 728.035156 673.679688 721.265625 669.851562 C 713.472656 665.480469 705.652344 661.125 697.820312 656.769531 C 658.765625 635.039062 618.382812 612.566406 581.683594 586.9375 C 519.699219 543.644531 465.457031 489.179688 412.996094 436.503906 C 382.070312 405.4375 350.082031 373.324219 316.863281 343.855469 L 316.425781 343.472656 C 315.183594 342.371094 315.054688 340.480469 316.171875 339.230469 C 317.277344 337.988281 319.175781 337.871094 320.414062 338.972656 L 320.828125 339.335938 C 354.210938 368.957031 386.261719 401.140625 417.257812 432.261719 C 469.535156 484.75 523.582031 539.027344 585.125 582.011719 C 621.566406 607.46875 661.820312 629.859375 700.742188 651.519531 C 708.574219 655.875 716.402344 660.234375 724.203125 664.617188 C 731.007812 668.453125 737.804688 672.285156 744.554688 676.175781 C 809.863281 713.699219 876.410156 757.394531 920.769531 822.488281 C 921.480469 823.535156 921.441406 824.878906 920.777344 825.863281 " fill-opacity="1" fill-rule="nonzero"/></g></g></g></g></g><g clip-path="url(#639a4aad1c)"><g clip-path="url(#1caa486381)"><g clip-path="url(#5013339068)"><path fill="#000000" d="M 279.183594 287.230469 C 278.105469 288.828125 276.890625 290.347656 275.453125 291.652344 C 274.230469 292.78125 272.328125 292.6875 271.207031 291.464844 C 270.089844 290.238281 270.175781 288.335938 271.402344 287.21875 C 273.410156 285.390625 274.996094 282.761719 276.40625 280.203125 C 278.117188 277.09375 279.695312 274.011719 281.09375 271.058594 C 298.117188 235.191406 302.253906 192.710938 292.449219 154.496094 C 291.3125 150.105469 289.53125 145.949219 287.449219 142.785156 C 284.171875 137.835938 280.4375 135.550781 276.355469 135.992188 C 274.25 136.214844 272.179688 137.195312 269.988281 138.246094 C 268.496094 138.964844 266.953125 139.699219 265.273438 140.253906 C 257.964844 142.703125 250.53125 141.183594 243.335938 139.714844 L 241.90625 139.417969 C 222.925781 135.554688 208.375 135.625 196.109375 139.640625 C 183.289062 143.851562 169.46875 155.0625 167.5 170.621094 C 166.941406 175.066406 167.34375 179.589844 167.773438 184.378906 C 168.101562 188.03125 168.441406 191.816406 168.324219 195.628906 C 168.046875 204.359375 164.160156 215.667969 154.058594 218.800781 C 151.324219 219.644531 148.605469 219.714844 145.976562 219.78125 C 143.390625 219.847656 140.949219 219.914062 138.875 220.734375 C 133.75 222.757812 131.722656 229.148438 132.410156 234.125 C 132.949219 238 134.765625 241.949219 137.972656 246.1875 C 138.832031 247.335938 139.808594 248.503906 141.046875 249.886719 C 165 276.617188 201.265625 285.714844 242.730469 294.085938 C 246.589844 294.859375 250 295.289062 253.15625 295.410156 C 254.808594 295.480469 256.097656 296.871094 256.035156 298.527344 C 255.976562 300.183594 254.582031 301.480469 252.921875 301.417969 C 249.449219 301.28125 245.726562 300.808594 241.546875 299.976562 C 208.730469 293.351562 163.804688 284.285156 136.570312 253.898438 C 135.207031 252.382812 134.132812 251.082031 133.171875 249.800781 C 129.339844 244.730469 127.136719 239.863281 126.460938 234.953125 C 125.425781 227.523438 128.597656 218.335938 136.667969 215.148438 C 139.71875 213.933594 142.820312 213.855469 145.820312 213.773438 C 148.140625 213.71875 150.34375 213.660156 152.285156 213.0625 C 158.898438 211.015625 162.09375 202.730469 162.320312 195.433594 C 162.425781 191.992188 162.113281 188.554688 161.796875 184.914062 C 161.347656 180.023438 160.890625 174.957031 161.542969 169.863281 C 163.527344 154.148438 176.667969 139.703125 194.234375 133.929688 C 211.710938 128.210938 230.492188 130.957031 243.101562 133.535156 L 244.539062 133.824219 C 250.953125 135.136719 257.589844 136.492188 263.371094 134.554688 C 264.695312 134.117188 266.007812 133.488281 267.398438 132.824219 C 269.953125 131.605469 272.601562 130.335938 275.726562 130.015625 C 282.121094 129.324219 287.910156 132.589844 292.460938 139.476562 C 294.90625 143.164062 296.964844 147.972656 298.265625 152.996094 C 308.421875 192.554688 304.140625 236.523438 286.523438 273.628906 C 285.078125 276.695312 283.445312 279.886719 281.667969 283.105469 C 280.910156 284.480469 280.09375 285.882812 279.183594 287.230469 " fill-opacity="1" fill-rule="nonzero"/></g></g></g><g clip-path="url(#905cf7dfc7)"><g clip-path="url(#04e27ed9bd)"><g clip-path="url(#5c64629feb)"><path fill="#000000" d="M 275.558594 293.28125 L 275.410156 293.503906 C 271.1875 299.003906 264.097656 301.617188 254.242188 301.449219 C 254.019531 301.460938 253.664062 301.457031 253.316406 301.4375 L 253 301.433594 C 251.335938 301.394531 250.019531 300.027344 250.054688 298.367188 C 250.089844 296.710938 251.460938 295.390625 253.117188 295.425781 L 253.492188 295.429688 C 253.730469 295.441406 253.96875 295.449219 254.210938 295.445312 C 262.199219 295.578125 267.648438 293.746094 270.542969 289.988281 L 270.582031 289.917969 C 271.507812 288.546875 273.375 288.183594 274.75 289.109375 C 276.125 290.039062 276.488281 291.90625 275.558594 293.28125 " fill-opacity="1" fill-rule="nonzero"/></g></g></g><g clip-path="url(#6d22b39965)"><g clip-path="url(#62da3acfe9)"><g clip-path="url(#eafeca533f)"><path fill="#000000" d="M 250.023438 314.632812 C 246.472656 319.890625 241.933594 324.753906 236.6875 328.90625 C 224.550781 338.542969 209.878906 343.988281 197.140625 348.035156 C 173.488281 355.589844 148.863281 360.695312 123.960938 363.214844 C 111.136719 364.515625 97.683594 364.910156 86.21875 359 C 74.261719 352.804688 65.527344 337.476562 71.574219 324.523438 C 74.035156 319.253906 78.328125 315.554688 82.464844 311.984375 C 85.996094 308.949219 89.328125 306.085938 91.390625 302.433594 C 94.296875 297.269531 94.5 290.921875 94.714844 284.195312 C 94.96875 276.117188 95.238281 267.761719 100.460938 261.058594 C 105.730469 254.289062 113.921875 251.972656 121.84375 249.734375 C 126.320312 248.46875 130.542969 247.28125 134.167969 245.347656 C 135.628906 244.570312 137.453125 245.128906 138.230469 246.589844 C 139.011719 248.050781 138.457031 249.875 136.988281 250.652344 C 132.800781 252.882812 128.058594 254.21875 123.480469 255.519531 C 116.164062 257.585938 109.257812 259.539062 105.203125 264.75 C 101.179688 269.925781 100.960938 276.941406 100.722656 284.386719 C 100.492188 291.539062 100.261719 298.9375 96.617188 305.386719 C 94.046875 309.949219 90.152344 313.296875 86.394531 316.542969 C 82.558594 319.84375 78.941406 322.953125 77.015625 327.0625 C 72.5 336.746094 79.691406 348.855469 88.976562 353.660156 C 99.050781 358.84375 111.449219 358.449219 123.359375 357.238281 C 147.847656 354.761719 172.058594 349.734375 195.3125 342.308594 C 207.539062 338.421875 221.574219 333.238281 232.957031 324.195312 C 239.234375 319.230469 244.371094 313.175781 247.804688 306.664062 C 249.074219 304.292969 250.097656 301.871094 250.859375 299.457031 L 250.960938 299.121094 C 251.105469 298.644531 251.257812 298.152344 251.390625 297.664062 C 251.816406 296.066406 253.46875 295.113281 255.070312 295.542969 C 256.675781 295.972656 257.625 297.617188 257.191406 299.222656 C 257.042969 299.773438 256.875 300.332031 256.710938 300.882812 L 256.601562 301.230469 C 255.722656 304.027344 254.550781 306.792969 253.113281 309.484375 C 252.183594 311.238281 251.160156 312.953125 250.023438 314.632812 " fill-opacity="1" fill-rule="nonzero"/></g></g></g><g clip-path="url(#dff2bf47e1)"><g clip-path="url(#2b39a58e6c)"><g clip-path="url(#0370998138)"><path fill="#000000" d="M 332.675781 248.132812 C 323.675781 261.464844 313.917969 274.265625 303.210938 286.140625 C 302.09375 287.371094 300.195312 287.476562 298.964844 286.363281 C 297.726562 285.253906 297.625 283.363281 298.742188 282.117188 C 337.105469 239.558594 363.246094 184.625 386.304688 136.152344 C 387.949219 132.683594 389.410156 128.8125 387.8125 126.398438 C 386.332031 124.183594 383.304688 124.234375 378.488281 124.503906 C 375.019531 124.691406 371.441406 124.890625 368.0625 123.742188 C 363.285156 122.121094 359.988281 118.035156 357.082031 114.441406 C 353.46875 109.980469 351.042969 107.277344 347.679688 107.441406 C 345.019531 107.570312 342.5625 109.6875 339.964844 111.925781 L 339.144531 112.628906 C 332 118.734375 323.742188 123.289062 315.757812 127.707031 C 312.050781 129.753906 308.21875 131.867188 304.589844 134.089844 C 299.617188 137.152344 295.492188 140.183594 291.96875 143.363281 C 290.734375 144.476562 288.839844 144.375 287.71875 143.136719 C 286.613281 141.910156 286.710938 140.019531 287.9375 138.902344 C 291.738281 135.46875 296.15625 132.222656 301.445312 128.976562 C 305.191406 126.671875 309.085938 124.523438 312.851562 122.441406 C 320.574219 118.175781 328.554688 113.769531 335.246094 108.050781 L 336.042969 107.375 C 339.144531 104.699219 342.660156 101.671875 347.386719 101.4375 C 354.042969 101.117188 358.144531 106.1875 361.753906 110.667969 C 364.382812 113.921875 366.859375 116.992188 369.996094 118.050781 C 372.265625 118.828125 375.257812 118.660156 378.152344 118.5 C 383.398438 118.210938 389.34375 117.878906 392.816406 123.066406 C 396.507812 128.648438 393.167969 135.707031 391.738281 138.726562 C 374.882812 174.140625 356.410156 212.980469 332.675781 248.132812 " fill-opacity="1" fill-rule="nonzero"/></g></g></g><g clip-path="url(#f45ece2967)"><g clip-path="url(#c6f9164beb)"><g clip-path="url(#9f23053d1d)"><path fill="#000000" d="M 272.375 293.484375 C 271.816406 294.3125 270.859375 294.847656 269.789062 294.8125 C 264.777344 294.640625 260.050781 292.695312 255.679688 290.609375 C 240.078125 283.109375 225.984375 273.027344 213.789062 260.648438 C 212.625 259.464844 212.632812 257.5625 213.828125 256.398438 C 215.011719 255.234375 216.90625 255.25 218.078125 256.425781 C 229.777344 268.316406 243.308594 277.992188 258.273438 285.1875 C 262.042969 286.988281 266.078125 288.671875 269.984375 288.800781 C 271.648438 288.855469 272.949219 290.242188 272.894531 291.90625 C 272.867188 292.492188 272.683594 293.027344 272.375 293.484375 " fill-opacity="1" fill-rule="nonzero"/></g></g></g><g clip-path="url(#d14a83d4b9)"><g clip-path="url(#57d4ca17de)"><g clip-path="url(#0862f10ab1)"><path fill="#000000" d="M 275.554688 293.289062 C 275.304688 293.660156 274.964844 293.984375 274.542969 294.21875 C 274.207031 294.40625 273.804688 294.542969 273.410156 294.59375 C 272.308594 294.785156 271.113281 294.847656 269.757812 294.785156 C 268.105469 294.707031 266.824219 293.300781 266.902344 291.648438 C 266.976562 289.988281 268.382812 288.699219 270.039062 288.78125 C 270.960938 288.828125 271.742188 288.789062 272.425781 288.664062 C 273.679688 288.390625 275.023438 288.945312 275.6875 290.128906 C 276.261719 291.152344 276.171875 292.375 275.554688 293.289062 " fill-opacity="1" fill-rule="nonzero"/></g></g></g><g clip-path="url(#94b8450573)"><g clip-path="url(#6e75e31bfe)"><g clip-path="url(#e8dc00b924)"><path fill="#000000" d="M 275.917969 291.117188 C 275.269531 292.078125 274.105469 292.613281 272.898438 292.402344 C 271.269531 292.101562 270.175781 290.542969 270.46875 288.910156 C 271.363281 283.953125 271.390625 278.089844 270.570312 270.988281 L 270.507812 270.464844 C 270.46875 270.132812 270.429688 269.796875 270.378906 269.46875 C 267.859375 249.5 261.328125 229.753906 251.484375 212.242188 C 250.667969 210.792969 251.1875 208.964844 252.632812 208.152344 C 254.078125 207.335938 255.902344 207.851562 256.71875 209.300781 C 266.945312 227.476562 273.722656 247.988281 276.320312 268.609375 C 276.375 268.921875 276.425781 269.332031 276.472656 269.753906 L 276.542969 270.25 C 277.429688 277.984375 277.375 284.425781 276.382812 289.96875 C 276.3125 290.390625 276.144531 290.78125 275.917969 291.117188 " fill-opacity="1" fill-rule="nonzero"/></g></g></g><g clip-path="url(#2bef470631)"><g clip-path="url(#1ee36df08b)"><g clip-path="url(#76ead7a2cf)"><path fill="#000000" d="M 270.425781 290.148438 Z M 275.410156 293.503906 C 274.484375 294.878906 272.613281 295.238281 271.242188 294.3125 C 270.136719 293.566406 269.691406 292.226562 270.027344 291.019531 C 270.035156 290.96875 270.046875 290.917969 270.054688 290.878906 C 270.210938 290.273438 270.347656 289.621094 270.449219 288.980469 C 270.710938 287.335938 272.253906 286.226562 273.894531 286.492188 C 275.527344 286.757812 276.644531 288.292969 276.382812 289.9375 C 276.261719 290.679688 276.105469 291.441406 275.933594 292.15625 C 275.859375 292.644531 275.683594 293.101562 275.410156 293.503906 " fill-opacity="1" fill-rule="nonzero"/></g></g></g><g clip-path="url(#640b3fc512)"><g clip-path="url(#d60f64c6f0)"><g clip-path="url(#3d928c47ec)"><path fill="#000000" d="M 256.214844 302.035156 C 255.820312 302.621094 255.226562 303.066406 254.503906 303.257812 C 253.523438 303.523438 252.511719 303.734375 251.507812 303.945312 C 230.285156 308.742188 212.824219 311.199219 196.523438 311.699219 C 171.046875 312.472656 148.269531 308.308594 128.8125 299.316406 C 127.308594 298.621094 126.648438 296.824219 127.351562 295.328125 C 128.054688 293.820312 129.828125 293.167969 131.332031 293.859375 C 149.933594 302.457031 171.804688 306.441406 196.339844 305.695312 C 212.242188 305.207031 229.347656 302.792969 250.144531 298.097656 C 251.167969 297.882812 252.070312 297.691406 252.953125 297.457031 C 254.554688 297.027344 256.199219 297.976562 256.625 299.585938 C 256.863281 300.464844 256.683594 301.34375 256.214844 302.035156 " fill-opacity="1" fill-rule="nonzero"/></g></g></g><g clip-path="url(#c23c1ceeca)"><g clip-path="url(#d4dd7ae802)"><g clip-path="url(#51b84c151f)"><path fill="#000000" d="M 255.535156 300.105469 C 255.4375 300.253906 255.328125 300.390625 255.203125 300.515625 C 254.488281 301.390625 253.773438 302.238281 253.027344 303.054688 C 251.367188 304.925781 249.507812 306.84375 247.535156 308.710938 C 223.175781 331.855469 188.132812 341.9375 156.101562 335.015625 C 154.480469 334.664062 153.445312 333.0625 153.804688 331.441406 C 154.148438 329.828125 155.746094 328.789062 157.367188 329.140625 C 187.488281 335.648438 220.453125 326.15625 243.398438 304.351562 C 245.246094 302.597656 246.984375 300.804688 248.558594 299.03125 C 249.324219 298.207031 250.011719 297.382812 250.691406 296.53125 C 251.671875 295.316406 253.417969 295.050781 254.714844 295.925781 C 256.089844 296.855469 256.464844 298.730469 255.535156 300.105469 " fill-opacity="1" fill-rule="nonzero"/></g></g></g><g clip-path="url(#5637ee1842)"><g clip-path="url(#552d41abd0)"><g clip-path="url(#7a19a22b22)"><path fill="#000000" d="M 615.023438 446.800781 C 614.84375 447.066406 614.621094 447.3125 614.34375 447.511719 C 613.023438 448.515625 611.132812 448.25 610.140625 446.929688 C 579.695312 406.65625 532.679688 379.128906 484.378906 373.300781 C 482.730469 373.101562 481.554688 371.609375 481.753906 369.960938 C 481.953125 368.308594 483.445312 367.136719 485.09375 367.335938 C 535.734375 373.441406 583.054688 401.132812 614.929688 443.300781 C 615.726562 444.359375 615.722656 445.761719 615.023438 446.800781 " fill-opacity="1" fill-rule="nonzero"/></g></g></g><g clip-path="url(#c32055e8ee)"><g clip-path="url(#df0afbaaff)"><g clip-path="url(#8d7fe8716c)"><path fill="#000000" d="M 635.277344 506.304688 C 635.078125 506.597656 634.824219 506.859375 634.519531 507.078125 C 633.160156 508.039062 631.289062 507.707031 630.332031 506.355469 C 617.40625 488.027344 596.875 473.398438 565.726562 460.316406 C 557.4375 456.847656 548.847656 453.605469 540.535156 450.464844 C 523.019531 443.871094 504.90625 437.039062 488.324219 427.523438 C 444.898438 402.621094 410.757812 359.785156 383.949219 296.582031 C 383.304688 295.046875 384.019531 293.285156 385.542969 292.640625 C 387.074219 291.996094 388.839844 292.707031 389.484375 294.238281 C 415.761719 356.1875 449.066406 398.082031 491.3125 422.320312 C 507.476562 431.582031 525.367188 438.324219 542.65625 444.847656 C 551.015625 448 559.664062 451.257812 568.050781 454.777344 C 600.289062 468.3125 621.636719 483.605469 635.238281 502.890625 C 635.984375 503.941406 635.953125 505.300781 635.277344 506.304688 " fill-opacity="1" fill-rule="nonzero"/></g></g></g><g clip-path="url(#8917ff30b0)"><g clip-path="url(#fa75782d79)"><g clip-path="url(#5d1f56ac17)"><path fill="#000000" d="M 599.191406 387.191406 C 599.078125 387.359375 598.945312 387.515625 598.796875 387.664062 C 597.613281 388.828125 595.707031 388.804688 594.550781 387.617188 C 564.125 356.503906 524.710938 334.453125 483.566406 325.523438 C 474.761719 323.601562 465.65625 322.199219 456.847656 320.839844 C 444.585938 318.953125 431.898438 316.992188 419.652344 313.597656 C 406.234375 309.910156 394.574219 304.613281 384.988281 297.867188 C 383.652344 296.917969 383.300781 295.078125 384.21875 293.722656 C 384.226562 293.707031 384.230469 293.703125 384.234375 293.695312 C 385.171875 292.335938 387.015625 291.984375 388.375 292.902344 L 388.394531 292.917969 C 397.464844 299.296875 408.5 304.300781 421.257812 307.808594 C 433.164062 311.109375 445.671875 313.039062 457.769531 314.902344 C 466.664062 316.273438 475.859375 317.695312 484.847656 319.65625 C 527.121094 328.828125 567.609375 351.472656 598.847656 383.410156 C 599.859375 384.453125 599.96875 386.039062 599.191406 387.191406 " fill-opacity="1" fill-rule="nonzero"/></g></g></g><g clip-path="url(#5e04db415a)"><g clip-path="url(#f4f7d3f33b)"><g clip-path="url(#738f81c828)"><path fill="#000000" d="M 620.78125 654.355469 C 620.242188 655.152344 619.339844 655.683594 618.300781 655.679688 C 606.386719 655.726562 594.058594 657.652344 581.648438 661.40625 C 573.921875 663.757812 565.9375 666.863281 557.914062 670.621094 C 548.671875 674.925781 538.847656 680.320312 527.871094 687.125 C 523.28125 689.964844 518.398438 693.097656 512.9375 696.726562 C 502.839844 703.40625 492.671875 710.398438 482.84375 717.167969 C 457.277344 734.769531 430.847656 752.972656 402.773438 767.511719 C 357.347656 791.035156 314.519531 800.765625 275.457031 796.425781 C 247.992188 793.351562 220.195312 783.222656 190.480469 765.445312 C 189.050781 764.59375 188.589844 762.75 189.4375 761.324219 C 190.257812 759.902344 192.136719 759.4375 193.5625 760.292969 C 222.527344 777.613281 249.535156 787.476562 276.125 790.445312 C 313.976562 794.660156 355.660156 785.148438 400.011719 762.175781 C 427.753906 747.808594 454.023438 729.71875 479.433594 712.222656 C 489.285156 705.441406 499.472656 698.421875 509.617188 691.71875 C 515.128906 688.058594 520.066406 684.886719 524.710938 682.019531 C 535.886719 675.082031 545.921875 669.578125 555.363281 665.183594 C 563.640625 661.300781 571.898438 658.089844 579.902344 655.65625 C 592.875 651.726562 605.789062 649.714844 618.28125 649.671875 C 619.941406 649.671875 621.292969 651.007812 621.300781 652.664062 C 621.296875 653.296875 621.105469 653.875 620.78125 654.355469 " fill-opacity="1" fill-rule="nonzero"/></g></g></g><g clip-path="url(#550e03f4b0)"><g clip-path="url(#133a5ffc48)"><g clip-path="url(#9620f1f5d2)"><path fill="#000000" d="M 559.121094 669.585938 C 558.332031 670.753906 556.808594 671.234375 555.464844 670.667969 C 538.503906 663.503906 519 659.671875 499.054688 659.570312 C 461.402344 659.335938 425.152344 671.261719 397.785156 681.675781 C 374.167969 690.679688 350.921875 701.039062 328.710938 712.464844 C 321.289062 716.28125 313.789062 720.316406 306.535156 724.207031 C 285.167969 735.691406 263.070312 747.574219 239.707031 755.75 C 223.378906 761.460938 207.402344 764.863281 192.21875 765.863281 C 190.566406 765.972656 189.128906 764.71875 189.019531 763.0625 C 188.910156 761.410156 190.167969 759.976562 191.816406 759.871094 C 206.46875 758.90625 221.910156 755.609375 237.722656 750.074219 C 260.636719 742.0625 282.523438 730.292969 303.6875 718.914062 C 310.964844 715.003906 318.488281 710.964844 325.953125 707.121094 C 348.367188 695.597656 371.8125 685.144531 395.648438 676.0625 C 423.511719 665.457031 460.441406 653.324219 499.089844 653.5625 C 519.808594 653.664062 540.117188 657.660156 557.800781 665.136719 C 559.332031 665.78125 560.050781 667.542969 559.402344 669.070312 C 559.328125 669.253906 559.230469 669.425781 559.121094 669.585938 " fill-opacity="1" fill-rule="nonzero"/></g></g></g><g clip-path="url(#285a06375b)"><g clip-path="url(#37b23ef92c)"><g clip-path="url(#1d4d7427cd)"><path fill="#000000" d="M 528.777344 686.257812 C 528.179688 687.144531 527.117188 687.683594 525.972656 687.5625 C 501.292969 684.972656 476.328125 688.15625 453.78125 696.761719 C 437.851562 702.820312 422.753906 711.601562 408.160156 720.089844 C 399.261719 725.265625 390.0625 730.617188 380.695312 735.347656 C 349.628906 751.058594 322.007812 755.820312 298.601562 749.492188 C 296.996094 749.0625 296.050781 747.414062 296.484375 745.808594 C 296.914062 744.203125 298.5625 743.257812 300.167969 743.6875 C 322.101562 749.613281 348.28125 745 377.980469 729.984375 C 387.1875 725.335938 396.3125 720.027344 405.140625 714.898438 C 419.941406 706.285156 435.253906 697.382812 451.636719 691.152344 C 475.066406 682.207031 500.984375 678.902344 526.597656 681.585938 C 528.25 681.753906 529.449219 683.234375 529.273438 684.890625 C 529.21875 685.394531 529.046875 685.859375 528.777344 686.257812 " fill-opacity="1" fill-rule="nonzero"/></g></g></g><g clip-path="url(#e3a2762600)"><g clip-path="url(#cc3fdd12bf)"><g clip-path="url(#f8291aff35)"><path fill="#000000" d="M 532.835938 189.03125 C 532.035156 190.214844 530.472656 190.699219 529.117188 190.089844 C 527.613281 189.410156 526.929688 187.640625 527.605469 186.121094 L 527.726562 185.855469 C 527.902344 185.453125 528.089844 185.042969 528.261719 184.621094 C 529.863281 181.085938 531.132812 177.441406 532.105469 173.679688 C 534.441406 164.699219 534.886719 155.355469 533.386719 146.65625 C 530.527344 130 520.519531 115.210938 506.601562 107.078125 C 503.351562 105.175781 499.949219 103.644531 496.347656 102.015625 C 494.480469 101.171875 492.613281 100.332031 490.765625 99.433594 C 488.367188 98.261719 486.414062 97.234375 484.609375 96.203125 C 483.171875 95.382812 482.675781 93.546875 483.492188 92.109375 C 484.320312 90.675781 486.148438 90.164062 487.59375 90.988281 C 489.285156 91.949219 491.128906 92.921875 493.402344 94.03125 C 495.1875 94.898438 497.003906 95.71875 498.820312 96.539062 C 502.40625 98.160156 506.113281 99.839844 509.628906 101.890625 C 525.058594 110.902344 536.15625 127.257812 539.3125 145.636719 C 540.949219 155.171875 540.46875 165.390625 537.914062 175.183594 C 536.875 179.269531 535.484375 183.246094 533.78125 186.996094 C 533.625 187.382812 533.414062 187.851562 533.203125 188.316406 L 533.097656 188.574219 C 533.019531 188.738281 532.929688 188.886719 532.835938 189.03125 " fill-opacity="1" fill-rule="nonzero"/></g></g></g><g clip-path="url(#d81b6e0c5a)"><g clip-path="url(#fafabf9c5f)"><g clip-path="url(#14461331a6)"><path fill="#000000" d="M 556.167969 223.796875 C 555.722656 224.457031 555.125 225.0625 554.394531 225.554688 C 554.03125 225.789062 553.644531 226.007812 553.175781 226.183594 C 551.484375 226.917969 549.601562 226.753906 548.226562 226.636719 C 539.675781 225.753906 528.828125 223.90625 520.460938 217.328125 C 512.71875 211.234375 507.210938 199.671875 511.632812 189.320312 C 511.738281 189.050781 511.875 188.753906 512 188.566406 C 512.929688 187.191406 514.796875 186.828125 516.171875 187.757812 C 517.378906 188.570312 517.804688 190.105469 517.269531 191.40625 C 517.246094 191.484375 517.214844 191.558594 517.1875 191.625 C 513.941406 199.128906 518.363281 208.03125 524.175781 212.609375 C 531.332031 218.230469 541.097656 219.859375 548.796875 220.660156 C 549.445312 220.710938 550.5 220.796875 550.933594 220.613281 C 551.148438 220.492188 551.195312 220.421875 551.222656 220.371094 C 551.640625 219.605469 551.679688 218.085938 551.707031 216.855469 C 551.71875 216.429688 551.734375 216.003906 551.75 215.601562 C 551.910156 212.527344 552.84375 209.761719 553.753906 207.082031 C 554.546875 204.746094 555.292969 202.539062 555.4375 200.363281 C 555.71875 196.078125 553.789062 191.765625 549.535156 187.183594 C 546.988281 184.386719 543.898438 181.859375 541.203125 179.753906 C 539.890625 178.734375 539.664062 176.828125 540.683594 175.535156 C 541.703125 174.230469 543.597656 174 544.898438 175.019531 C 547.789062 177.28125 551.125 180.007812 553.960938 183.121094 C 559.371094 188.945312 561.832031 194.730469 561.4375 200.761719 C 561.238281 203.730469 560.320312 206.417969 559.449219 209.007812 C 558.632812 211.40625 557.867188 213.671875 557.75 215.90625 C 557.730469 216.25 557.726562 216.625 557.714844 217.003906 C 557.664062 218.980469 557.613281 221.222656 556.527344 223.179688 C 556.425781 223.386719 556.304688 223.59375 556.167969 223.796875 " fill-opacity="1" fill-rule="nonzero"/></g></g></g><g clip-path="url(#5fba77ba49)"><g clip-path="url(#41fdae3b95)"><g clip-path="url(#7671eac813)"><path fill="#000000" d="M 475.59375 104.863281 C 474.976562 105.777344 473.875 106.316406 472.707031 106.160156 C 471.0625 105.9375 469.90625 104.429688 470.121094 102.785156 C 470.644531 98.894531 470.949219 95.070312 471.039062 91.414062 C 471.074219 89.757812 472.453125 88.441406 474.105469 88.480469 C 475.769531 88.519531 477.078125 89.894531 477.046875 91.550781 C 476.957031 95.429688 476.632812 99.476562 476.082031 103.578125 C 476.015625 104.054688 475.847656 104.484375 475.59375 104.863281 " fill-opacity="1" fill-rule="nonzero"/></g></g></g><g clip-path="url(#3f93ef4084)"><g clip-path="url(#f85a60f6ce)"><g clip-path="url(#9d8e4f5eee)"><path fill="#000000" d="M 534.089844 188.515625 C 533.808594 188.929688 533.425781 189.277344 532.941406 189.515625 C 532.441406 189.765625 531.898438 189.984375 531.371094 190.175781 C 529.941406 190.738281 528.417969 191.25 526.917969 191.671875 C 522.789062 192.808594 518.601562 193.402344 514.449219 193.4375 C 507.707031 193.570312 500.988281 192.316406 495.03125 189.832031 C 481.59375 184.273438 471.109375 172.589844 467 158.597656 C 462.8125 144.21875 465.507812 129.308594 468.109375 114.882812 C 468.601562 112.140625 469.089844 109.402344 469.542969 106.675781 C 469.753906 105.386719 469.945312 104.078125 470.136719 102.773438 C 470.382812 101.136719 471.90625 100.003906 473.546875 100.242188 C 475.1875 100.484375 476.324219 102.015625 476.078125 103.652344 C 475.882812 104.992188 475.691406 106.324219 475.472656 107.652344 C 475.023438 110.40625 474.523438 113.171875 474.023438 115.953125 C 471.542969 129.691406 468.976562 143.894531 472.765625 156.910156 C 476.320312 168.988281 485.734375 179.480469 497.339844 184.285156 C 502.542969 186.457031 508.425781 187.539062 514.375 187.429688 C 518.023438 187.394531 521.695312 186.878906 525.304688 185.878906 C 526.605469 185.519531 527.933594 185.078125 529.246094 184.558594 C 529.640625 184.410156 529.964844 184.289062 530.253906 184.144531 C 531.738281 183.398438 533.539062 184 534.285156 185.484375 C 534.789062 186.488281 534.679688 187.640625 534.089844 188.515625 " fill-opacity="1" fill-rule="nonzero"/></g></g></g><g clip-path="url(#8711a39d57)"><g clip-path="url(#dbb3f8da23)"><g clip-path="url(#65a1d56ce8)"><path fill="#000000" d="M 530.128906 187.890625 C 529.449219 188.898438 528.207031 189.425781 526.960938 189.144531 C 512.683594 185.875 499.625 176.078125 490.210938 161.554688 C 481.164062 147.535156 476.847656 131.375 474.089844 118.859375 L 473.976562 118.355469 C 472.945312 113.621094 471.871094 108.722656 470.277344 104.21875 C 470.21875 104.054688 470.171875 103.882812 470.148438 103.707031 C 470.011719 102.972656 470.15625 102.171875 470.613281 101.5 C 471.539062 100.125 473.410156 99.761719 474.785156 100.691406 C 475.386719 101.097656 475.792969 101.683594 475.988281 102.332031 C 477.6875 107.15625 478.785156 112.199219 479.847656 117.070312 L 479.960938 117.574219 C 482.601562 129.589844 486.734375 145.085938 495.257812 158.289062 C 503.691406 171.296875 515.734375 180.410156 528.304688 183.28125 C 529.921875 183.65625 530.933594 185.261719 530.566406 186.882812 C 530.476562 187.25 530.332031 187.59375 530.128906 187.890625 " fill-opacity="1" fill-rule="nonzero"/></g></g></g><g clip-path="url(#9f4cb04b18)"><g clip-path="url(#ab12784334)"><g clip-path="url(#0455cedced)"><path fill="#000000" d="M 534.089844 188.515625 C 533.824219 188.90625 533.457031 189.242188 533.007812 189.488281 C 531.542969 190.261719 529.726562 189.707031 528.941406 188.242188 L 528.386719 187.171875 C 525.164062 180.761719 521.976562 174.410156 518.789062 168.066406 C 515.765625 162.058594 512.75 156.050781 509.726562 150.042969 C 499.210938 129.191406 489.460938 110.621094 476.582031 94.488281 C 475.550781 93.195312 475.757812 91.304688 477.054688 90.265625 C 478.359375 89.226562 480.242188 89.445312 481.285156 90.742188 C 494.5 107.300781 504.816406 126.960938 515.09375 147.335938 C 518.117188 153.347656 521.140625 159.355469 524.152344 165.363281 C 527.347656 171.710938 530.535156 178.0625 533.730469 184.40625 L 534.253906 185.417969 C 534.792969 186.433594 534.691406 187.621094 534.089844 188.515625 " fill-opacity="1" fill-rule="nonzero"/></g></g></g><g clip-path="url(#e379c934f4)"><g clip-path="url(#308d60f9e0)"><g clip-path="url(#1c5e83c0dd)"><path fill="#000000" d="M 555.0625 185.628906 C 554.777344 186.050781 554.484375 186.46875 554.1875 186.878906 C 553.226562 188.230469 551.351562 188.550781 549.996094 187.589844 C 548.664062 186.644531 548.335938 184.808594 549.246094 183.457031 C 549.261719 183.4375 549.273438 183.417969 549.292969 183.40625 C 557.96875 171.195312 561.554688 156.320312 559.304688 142.398438 C 556.109375 122.636719 540.632812 105.246094 521.664062 100.117188 C 514.207031 98.101562 506.003906 97.726562 498.066406 97.359375 C 494.035156 97.179688 489.859375 96.984375 485.804688 96.585938 C 483.394531 96.367188 480.890625 96.023438 478.394531 95.566406 C 476.660156 95.253906 474.929688 94.851562 473.230469 94.375 C 471.636719 93.929688 470.699219 92.269531 471.144531 90.671875 C 471.589844 89.074219 473.246094 88.144531 474.851562 88.597656 C 476.367188 89.015625 477.925781 89.378906 479.472656 89.660156 C 481.792969 90.085938 484.113281 90.394531 486.378906 90.605469 C 490.292969 90.988281 494.382812 91.183594 498.339844 91.363281 C 506.601562 91.738281 515.140625 92.125 523.230469 94.320312 C 544.40625 100.046875 561.675781 119.425781 565.234375 141.4375 C 567.65625 156.429688 563.957031 172.453125 555.0625 185.628906 " fill-opacity="1" fill-rule="nonzero"/></g></g></g><g clip-path="url(#094babd276)"><g clip-path="url(#dfa23c0f67)"><g clip-path="url(#68f47ad051)"><path fill="#000000" d="M 725.699219 391.394531 C 720.816406 398.625 715.164062 405.628906 708.792969 412.292969 C 696.101562 425.558594 680.429688 437.792969 660.890625 449.714844 L 660.472656 449.957031 C 660.308594 450.058594 660.148438 450.15625 659.976562 450.257812 C 658.527344 451.074219 656.699219 450.554688 655.882812 449.105469 C 655.074219 447.664062 655.578125 445.835938 657.027344 445.019531 L 657.347656 444.828125 C 657.507812 444.726562 657.679688 444.628906 657.851562 444.527344 C 676.851562 432.941406 692.121094 421.019531 704.453125 408.136719 C 722.578125 389.164062 734.636719 367.488281 739.300781 345.449219 C 739.652344 343.839844 741.242188 342.796875 742.863281 343.136719 C 744.492188 343.480469 745.53125 345.078125 745.179688 346.699219 C 741.9375 362.03125 735.304688 377.167969 725.699219 391.394531 " fill-opacity="1" fill-rule="nonzero"/></g></g></g><g clip-path="url(#863aa734bc)"><g clip-path="url(#3904aeddc5)"><g clip-path="url(#a1b6a46f08)"><path fill="#000000" d="M 556.386719 223.414062 C 555.519531 224.699219 553.792969 225.117188 552.417969 224.34375 C 547.902344 221.773438 544.050781 218.199219 541.261719 213.996094 C 538.683594 210.082031 536.828125 205.5 535.59375 199.964844 C 534.507812 195.207031 533.953125 190.238281 533.429688 185.4375 C 533.046875 181.949219 532.652344 178.351562 532.054688 174.945312 C 531.769531 173.3125 532.859375 171.753906 534.496094 171.46875 C 536.128906 171.175781 537.691406 172.277344 537.972656 173.910156 C 538.597656 177.503906 539.007812 181.199219 539.398438 184.777344 C 539.910156 189.417969 540.4375 194.210938 541.453125 198.636719 C 542.53125 203.457031 544.105469 207.390625 546.277344 210.679688 C 548.539062 214.09375 551.6875 217.023438 555.378906 219.121094 C 556.828125 219.9375 557.335938 221.773438 556.515625 223.210938 C 556.46875 223.28125 556.429688 223.351562 556.386719 223.414062 " fill-opacity="1" fill-rule="nonzero"/></g></g></g><g clip-path="url(#7d68b9c166)"><g clip-path="url(#628ac7ab47)"><g clip-path="url(#c302977a2e)"><path fill="#000000" d="M 306 263.398438 C 302.421875 268.695312 298.632812 273.859375 294.625 278.863281 C 293.589844 280.15625 291.699219 280.371094 290.398438 279.332031 C 289.109375 278.292969 288.910156 276.375 289.933594 275.109375 C 313.886719 245.171875 330.132812 209.542969 336.902344 172.085938 C 337.195312 170.453125 338.757812 169.367188 340.386719 169.664062 C 342.023438 169.957031 343.109375 171.519531 342.8125 173.152344 C 337.003906 205.328125 324.378906 236.175781 306 263.398438 " fill-opacity="1" fill-rule="nonzero"/></g></g></g><g clip-path="url(#da4d8731ad)"><g clip-path="url(#b7ce307609)"><g clip-path="url(#1a0294897d)"><path fill="#000000" d="M 316.125 340.363281 C 316.125 340.363281 316.125 340.363281 316.121094 340.367188 C 316.125 340.363281 316.125 340.363281 316.125 340.363281 Z M 316.121094 340.367188 Z M 321.34375 343.289062 C 320.539062 344.484375 318.972656 344.957031 317.613281 344.339844 C 316.148438 343.671875 315.476562 341.980469 316.0625 340.5 C 316.089844 340.414062 316.125 340.277344 316.136719 340.246094 C 316.578125 338.941406 316.945312 337.554688 317.25 336.136719 C 317.582031 334.511719 319.179688 333.476562 320.808594 333.820312 C 322.429688 334.160156 323.464844 335.753906 323.125 337.375 C 322.78125 339.023438 322.347656 340.628906 321.835938 342.152344 C 321.796875 342.339844 321.714844 342.585938 321.59375 342.847656 C 321.519531 343.003906 321.4375 343.148438 321.34375 343.289062 " fill-opacity="1" fill-rule="nonzero"/></g></g></g></svg>