<svg xmlns="http://www.w3.org/2000/svg" xmlns:xlink="http://www.w3.org/1999/xlink" width="40" zoomAndPan="magnify" viewBox="0 0 30 30.000001" height="40" preserveAspectRatio="xMidYMid meet" version="1.0"><defs><clipPath id="36eb5b97b0"><path d="M 1.503906 1.019531 L 27.632812 1.019531 L 27.632812 27.148438 L 1.503906 27.148438 Z M 1.503906 1.019531 " clip-rule="nonzero"/></clipPath></defs><g clip-path="url(#36eb5b97b0)"><path fill="#000000" d="M 27.632812 23.175781 C 27.632812 25.367188 25.851562 27.148438 23.660156 27.148438 L 5.472656 27.148438 C 3.285156 27.148438 1.503906 25.367188 1.503906 23.175781 L 1.503906 4.988281 C 1.503906 2.800781 3.285156 1.019531 5.472656 1.019531 L 23.660156 1.019531 C 25.851562 1.019531 27.632812 2.800781 27.632812 4.988281 Z M 27.632812 23.175781 " fill-opacity="1" fill-rule="nonzero"/></g><path fill="#ffffff" d="M 9.105469 6.8125 L 20.398438 6.8125 C 21.472656 6.8125 22.351562 7.6875 22.351562 8.765625 L 22.351562 20.058594 C 22.351562 21.132812 21.476562 22.007812 20.398438 22.007812 L 9.105469 22.007812 C 8.03125 22.007812 7.152344 21.132812 7.152344 20.058594 L 7.152344 8.765625 C 7.152344 7.6875 8.027344 6.8125 9.105469 6.8125 Z M 18.21875 8.503906 C 17.839844 8.503906 17.535156 8.8125 17.535156 9.1875 L 17.535156 10.828125 C 17.535156 11.207031 17.84375 11.515625 18.21875 11.515625 L 19.929688 11.515625 C 20.308594 11.515625 20.613281 11.207031 20.613281 10.828125 L 20.613281 9.1875 C 20.613281 8.8125 20.304688 8.503906 19.929688 8.503906 Z M 20.628906 13.242188 L 19.292969 13.242188 C 19.417969 13.660156 19.492188 14.089844 19.492188 14.542969 C 19.492188 17.070312 17.371094 19.121094 14.769531 19.121094 C 12.167969 19.121094 10.050781 17.070312 10.050781 14.542969 C 10.050781 14.089844 10.117188 13.652344 10.246094 13.242188 L 8.851562 13.242188 L 8.851562 19.660156 C 8.851562 19.992188 9.121094 20.261719 9.453125 20.261719 L 20.035156 20.261719 C 20.367188 20.261719 20.640625 19.988281 20.640625 19.660156 Z M 14.761719 11.421875 C 13.078125 11.421875 11.710938 12.75 11.710938 14.382812 C 11.710938 16.011719 13.078125 17.339844 14.761719 17.339844 C 16.445312 17.339844 17.808594 16.011719 17.808594 14.382812 C 17.8125 12.742188 16.449219 11.421875 14.761719 11.421875 Z M 14.761719 11.421875 " fill-opacity="1" fill-rule="nonzero"/></svg>