<svg xmlns="http://www.w3.org/2000/svg" xmlns:xlink="http://www.w3.org/1999/xlink" width="320" zoomAndPan="magnify" viewBox="0 0 240 203.999996" height="272" preserveAspectRatio="xMidYMid meet" version="1.0"><defs><clipPath id="6cdac5cb06"><path d="M 5 30 L 235.179688 30 L 235.179688 173.9375 L 5 173.9375 Z M 5 30 " clip-rule="nonzero"/></clipPath></defs><g clip-path="url(#6cdac5cb06)"><path fill="#ba5a87" d="M 157.675781 37.316406 C 165.5 40.027344 173.046875 43.242188 180.273438 47.195312 C 188.648438 51.746094 196.199219 57.492188 203.332031 63.835938 C 209.589844 69.394531 215.574219 75.277344 220.679688 81.941406 C 228.644531 92.375 233.292969 104.097656 234.394531 117.148438 C 234.808594 122.066406 235.179688 126.984375 235.085938 131.902344 C 234.949219 137.96875 233.613281 143.898438 231.359375 149.597656 C 228.875 155.804688 225.101562 160.949219 219.578125 164.8125 C 215.574219 167.617188 211.0625 168.671875 206.277344 168.625 C 196.65625 168.582031 187.867188 165.640625 179.90625 160.308594 C 174.015625 156.355469 169.644531 150.929688 166.46875 144.589844 C 163.199219 138.109375 161.265625 131.167969 159.472656 124.136719 C 157.402344 116.230469 155.421875 108.324219 153.121094 100.464844 C 150.222656 90.628906 144.558594 82.3125 138.300781 74.3125 C 131.765625 65.996094 124.035156 58.917969 115.519531 52.757812 C 111.378906 49.722656 106.867188 47.195312 102.679688 44.207031 C 99.6875 42.09375 96.972656 39.566406 94.164062 37.222656 C 93.9375 37.039062 93.796875 36.761719 93.613281 36.53125 C 91.542969 33.683594 92.507812 31.246094 96.054688 30.972656 C 100.058594 30.648438 104.0625 30.511719 108.109375 30.375 C 117.175781 30.007812 126.058594 31.617188 134.988281 32.949219 C 138.070312 33.40625 141.15625 33.730469 144.238281 34.328125 C 148.703125 35.246094 153.210938 36.304688 157.675781 37.316406 Z M 14.960938 38.96875 C 12.566406 38.96875 10.128906 39.566406 7.78125 40.210938 C 5.941406 40.714844 4.929688 42.507812 5.066406 44.207031 C 5.296875 46.964844 6.445312 49.171875 8.976562 50.550781 C 12.660156 52.574219 16.296875 54.640625 19.933594 56.710938 C 26.28125 60.296875 32.679688 63.742188 38.894531 67.511719 C 44.140625 70.730469 48.878906 74.636719 53.023438 79.230469 C 61.121094 88.332031 67.195312 98.765625 72.121094 109.84375 C 76.585938 119.816406 80.453125 130.066406 84.777344 140.128906 C 87.585938 146.703125 91.082031 152.90625 95.5 158.5625 C 100.929688 165.457031 107.695312 170.234375 116.257812 172.304688 C 119.25 173.039062 122.378906 173.542969 125.460938 173.683594 C 131.121094 173.867188 136.414062 172.441406 140.050781 167.800781 C 142.488281 164.675781 144.515625 161.089844 146.308594 157.550781 C 149.992188 150.242188 149.898438 142.335938 148.839844 134.523438 C 147.964844 128.132812 145.804688 122.066406 143.457031 116.046875 C 141.476562 110.945312 139.3125 105.890625 136.046875 101.429688 C 133.46875 97.984375 130.660156 94.71875 127.945312 91.367188 C 121.410156 83.230469 113.585938 76.566406 104.84375 70.914062 C 96.742188 65.71875 88.273438 61.261719 79.300781 57.8125 C 76.355469 56.664062 73.410156 55.515625 70.554688 54.183594 C 62.320312 50.367188 53.988281 46.921875 44.875 43.796875 C 35.394531 41.265625 25.363281 38.921875 14.960938 38.96875 Z M 14.960938 38.96875 " fill-opacity="1" fill-rule="nonzero"/></g></svg>