<svg xmlns="http://www.w3.org/2000/svg" xmlns:xlink="http://www.w3.org/1999/xlink" width="500" zoomAndPan="magnify" viewBox="0 0 375 112.499997" height="150" preserveAspectRatio="xMidYMid meet" version="1.0"><defs><g/><clipPath id="b7fa330f05"><path d="M 309.203125 34.855469 L 348.777344 34.855469 L 348.777344 90.109375 L 309.203125 90.109375 Z M 309.203125 34.855469 " clip-rule="nonzero"/></clipPath><clipPath id="532cd7416a"><path d="M 316.332031 50 L 370.839844 50 L 370.839844 81.988281 L 316.332031 81.988281 Z M 316.332031 50 " clip-rule="nonzero"/></clipPath></defs><g fill="#202020" fill-opacity="1"><g transform="translate(-1.598662, 92.133135)"><g><path d="M 6.125 -73.875 C 6.882812 -74.101562 8.09375 -74.347656 9.75 -74.609375 C 11.414062 -74.878906 13.117188 -75.015625 14.859375 -75.015625 C 16.523438 -75.015625 18.019531 -74.898438 19.34375 -74.671875 C 20.664062 -74.441406 21.78125 -73.988281 22.6875 -73.3125 C 23.601562 -72.632812 24.285156 -71.707031 24.734375 -70.53125 C 25.191406 -69.351562 25.421875 -67.820312 25.421875 -65.9375 L 25.421875 -54.8125 C 27.304688 -55.570312 29.097656 -56.101562 30.796875 -56.40625 C 32.503906 -56.707031 34.378906 -56.859375 36.421875 -56.859375 C 40.054688 -56.859375 43.5 -56.210938 46.75 -54.921875 C 50.007812 -53.640625 52.882812 -51.769531 55.375 -49.3125 C 57.875 -46.851562 59.84375 -43.804688 61.28125 -40.171875 C 62.71875 -36.535156 63.4375 -32.335938 63.4375 -27.578125 C 63.4375 -22.660156 62.695312 -18.363281 61.21875 -14.6875 C 59.75 -11.019531 57.6875 -7.972656 55.03125 -5.546875 C 52.382812 -3.128906 49.148438 -1.296875 45.328125 -0.046875 C 41.515625 1.191406 37.300781 1.8125 32.6875 1.8125 C 27.6875 1.8125 23.445312 1.222656 19.96875 0.046875 C 16.488281 -1.117188 13.539062 -2.570312 11.125 -4.3125 C 7.789062 -6.65625 6.125 -9.679688 6.125 -13.390625 Z M 32.6875 -13.390625 C 36.164062 -13.390625 38.867188 -14.582031 40.796875 -16.96875 C 42.722656 -19.351562 43.6875 -22.890625 43.6875 -27.578125 C 43.6875 -32.335938 42.703125 -35.890625 40.734375 -38.234375 C 38.773438 -40.585938 36.128906 -41.765625 32.796875 -41.765625 C 31.285156 -41.765625 29.976562 -41.613281 28.875 -41.3125 C 27.78125 -41.007812 26.59375 -40.554688 25.3125 -39.953125 L 25.3125 -15.203125 C 26.144531 -14.671875 27.144531 -14.234375 28.3125 -13.890625 C 29.488281 -13.554688 30.945312 -13.390625 32.6875 -13.390625 Z M 32.6875 -13.390625 "/></g></g></g><g fill="#202020" fill-opacity="1"><g transform="translate(54.455672, 92.133135)"><g><path d="M 35.0625 1.8125 C 30.601562 1.8125 26.460938 1.191406 22.640625 -0.046875 C 18.816406 -1.296875 15.484375 -3.171875 12.640625 -5.671875 C 9.804688 -8.171875 7.578125 -11.3125 5.953125 -15.09375 C 4.328125 -18.875 3.515625 -23.300781 3.515625 -28.375 C 3.515625 -33.363281 4.328125 -37.65625 5.953125 -41.25 C 7.578125 -44.84375 9.710938 -47.789062 12.359375 -50.09375 C 15.015625 -52.40625 18.046875 -54.109375 21.453125 -55.203125 C 24.859375 -56.304688 28.335938 -56.859375 31.890625 -56.859375 C 35.898438 -56.859375 39.550781 -56.25 42.84375 -55.03125 C 46.132812 -53.820312 48.96875 -52.160156 51.34375 -50.046875 C 53.726562 -47.929688 55.582031 -45.394531 56.90625 -42.4375 C 58.226562 -39.488281 58.890625 -36.273438 58.890625 -32.796875 C 58.890625 -30.222656 58.171875 -28.253906 56.734375 -26.890625 C 55.304688 -25.535156 53.304688 -24.664062 50.734375 -24.28125 L 22.703125 -20.09375 C 23.523438 -17.59375 25.222656 -15.71875 27.796875 -14.46875 C 30.367188 -13.21875 33.320312 -12.59375 36.65625 -12.59375 C 39.757812 -12.59375 42.691406 -12.988281 45.453125 -13.78125 C 48.210938 -14.582031 50.460938 -15.507812 52.203125 -16.5625 C 53.410156 -15.8125 54.429688 -14.753906 55.265625 -13.390625 C 56.097656 -12.023438 56.515625 -10.585938 56.515625 -9.078125 C 56.515625 -5.671875 54.925781 -3.132812 51.75 -1.46875 C 49.332031 -0.1875 46.609375 0.675781 43.578125 1.125 C 40.546875 1.582031 37.707031 1.8125 35.0625 1.8125 Z M 31.890625 -42.78125 C 30.078125 -42.78125 28.503906 -42.476562 27.171875 -41.875 C 25.847656 -41.269531 24.769531 -40.492188 23.9375 -39.546875 C 23.113281 -38.597656 22.492188 -37.535156 22.078125 -36.359375 C 21.660156 -35.191406 21.410156 -34.003906 21.328125 -32.796875 L 40.734375 -35.96875 C 40.515625 -37.488281 39.6875 -39.003906 38.25 -40.515625 C 36.8125 -42.023438 34.691406 -42.78125 31.890625 -42.78125 Z M 31.890625 -42.78125 "/></g></g></g><g fill="#202020" fill-opacity="1"><g transform="translate(105.857663, 92.133135)"><g><path d="M 29.5 -12.25 C 30.789062 -12.25 32.210938 -12.378906 33.765625 -12.640625 C 35.316406 -12.910156 36.46875 -13.273438 37.21875 -13.734375 L 37.21875 -22.8125 L 29.046875 -22.125 C 26.929688 -21.976562 25.191406 -21.523438 23.828125 -20.765625 C 22.460938 -20.003906 21.78125 -18.867188 21.78125 -17.359375 C 21.78125 -15.847656 22.367188 -14.617188 23.546875 -13.671875 C 24.722656 -12.722656 26.707031 -12.25 29.5 -12.25 Z M 28.59375 -56.859375 C 32.675781 -56.859375 36.398438 -56.441406 39.765625 -55.609375 C 43.140625 -54.773438 46.015625 -53.503906 48.390625 -51.796875 C 50.773438 -50.097656 52.609375 -47.941406 53.890625 -45.328125 C 55.179688 -42.722656 55.828125 -39.644531 55.828125 -36.09375 L 55.828125 -10.671875 C 55.828125 -8.703125 55.28125 -7.09375 54.1875 -5.84375 C 53.09375 -4.59375 51.789062 -3.515625 50.28125 -2.609375 C 45.351562 0.335938 38.425781 1.8125 29.5 1.8125 C 25.488281 1.8125 21.875 1.429688 18.65625 0.671875 C 15.445312 -0.078125 12.6875 -1.207031 10.375 -2.71875 C 8.070312 -4.238281 6.296875 -6.171875 5.046875 -8.515625 C 3.796875 -10.859375 3.171875 -13.582031 3.171875 -16.6875 C 3.171875 -21.90625 4.722656 -25.910156 7.828125 -28.703125 C 10.929688 -31.503906 15.738281 -33.25 22.25 -33.9375 L 37.109375 -35.515625 L 37.109375 -36.3125 C 37.109375 -38.507812 36.144531 -40.078125 34.21875 -41.015625 C 32.289062 -41.960938 29.507812 -42.4375 25.875 -42.4375 C 23 -42.4375 20.195312 -42.132812 17.46875 -41.53125 C 14.75 -40.925781 12.289062 -40.171875 10.09375 -39.265625 C 9.113281 -39.941406 8.28125 -40.976562 7.59375 -42.375 C 6.914062 -43.78125 6.578125 -45.238281 6.578125 -46.75 C 6.578125 -48.71875 7.050781 -50.285156 8 -51.453125 C 8.945312 -52.628906 10.40625 -53.632812 12.375 -54.46875 C 14.5625 -55.300781 17.148438 -55.90625 20.140625 -56.28125 C 23.128906 -56.664062 25.945312 -56.859375 28.59375 -56.859375 Z M 28.59375 -56.859375 "/></g></g></g><g fill="#202020" fill-opacity="1"><g transform="translate(156.692302, 92.133135)"><g><path d="M 25.1875 -18.953125 C 25.1875 -16.984375 25.8125 -15.582031 27.0625 -14.75 C 28.3125 -13.914062 30.070312 -13.5 32.34375 -13.5 C 33.476562 -13.5 34.648438 -13.59375 35.859375 -13.78125 C 37.066406 -13.976562 38.125 -14.226562 39.03125 -14.53125 C 39.71875 -13.695312 40.304688 -12.769531 40.796875 -11.75 C 41.285156 -10.726562 41.53125 -9.5 41.53125 -8.0625 C 41.53125 -5.1875 40.453125 -2.835938 38.296875 -1.015625 C 36.140625 0.796875 32.335938 1.703125 26.890625 1.703125 C 20.234375 1.703125 15.109375 0.191406 11.515625 -2.828125 C 7.921875 -5.859375 6.125 -10.78125 6.125 -17.59375 L 6.125 -66.15625 C 6.957031 -66.382812 8.148438 -66.628906 9.703125 -66.890625 C 11.253906 -67.160156 12.898438 -67.296875 14.640625 -67.296875 C 17.960938 -67.296875 20.550781 -66.707031 22.40625 -65.53125 C 24.257812 -64.363281 25.1875 -61.890625 25.1875 -58.109375 L 25.1875 -50.84375 L 40.0625 -50.84375 C 40.507812 -50.007812 40.941406 -48.96875 41.359375 -47.71875 C 41.773438 -46.46875 41.984375 -45.085938 41.984375 -43.578125 C 41.984375 -40.929688 41.394531 -39.019531 40.21875 -37.84375 C 39.050781 -36.675781 37.484375 -36.09375 35.515625 -36.09375 L 25.1875 -36.09375 Z M 25.1875 -18.953125 "/></g></g></g><g fill="#202020" fill-opacity="1"><g transform="translate(191.186984, 92.133135)"><g><path d="M 25.1875 -0.109375 C 24.4375 0.117188 23.242188 0.34375 21.609375 0.5625 C 19.984375 0.789062 18.300781 0.90625 16.5625 0.90625 C 14.90625 0.90625 13.410156 0.789062 12.078125 0.5625 C 10.753906 0.34375 9.640625 -0.101562 8.734375 -0.78125 C 7.828125 -1.46875 7.128906 -2.394531 6.640625 -3.5625 C 6.148438 -4.738281 5.90625 -6.273438 5.90625 -8.171875 L 5.90625 -42.21875 C 5.90625 -43.957031 6.222656 -45.453125 6.859375 -46.703125 C 7.503906 -47.953125 8.429688 -49.066406 9.640625 -50.046875 C 10.859375 -51.023438 12.351562 -51.910156 14.125 -52.703125 C 15.90625 -53.503906 17.816406 -54.207031 19.859375 -54.8125 C 21.898438 -55.414062 24.015625 -55.890625 26.203125 -56.234375 C 28.398438 -56.578125 30.597656 -56.75 32.796875 -56.75 C 36.429688 -56.75 39.304688 -56.046875 41.421875 -54.640625 C 43.535156 -53.242188 44.59375 -50.957031 44.59375 -47.78125 C 44.59375 -46.71875 44.441406 -45.675781 44.140625 -44.65625 C 43.835938 -43.632812 43.460938 -42.707031 43.015625 -41.875 C 41.421875 -41.875 39.789062 -41.796875 38.125 -41.640625 C 36.46875 -41.492188 34.84375 -41.269531 33.25 -40.96875 C 31.664062 -40.664062 30.171875 -40.34375 28.765625 -40 C 27.367188 -39.664062 26.175781 -39.269531 25.1875 -38.8125 Z M 25.1875 -0.109375 "/></g></g></g><g fill="#202020" fill-opacity="1"><g transform="translate(226.929862, 92.133135)"><g><path d="M 5.453125 -70.46875 C 5.453125 -73.34375 6.414062 -75.765625 8.34375 -77.734375 C 10.269531 -79.703125 12.820312 -80.6875 16 -80.6875 C 19.175781 -80.6875 21.726562 -79.703125 23.65625 -77.734375 C 25.59375 -75.765625 26.5625 -73.34375 26.5625 -70.46875 C 26.5625 -67.59375 25.59375 -65.171875 23.65625 -63.203125 C 21.726562 -61.242188 19.175781 -60.265625 16 -60.265625 C 12.820312 -60.265625 10.269531 -61.242188 8.34375 -63.203125 C 6.414062 -65.171875 5.453125 -67.59375 5.453125 -70.46875 Z M 25.640625 -0.109375 C 24.816406 0.0351562 23.585938 0.238281 21.953125 0.5 C 20.328125 0.769531 18.679688 0.90625 17.015625 0.90625 C 15.359375 0.90625 13.863281 0.789062 12.53125 0.5625 C 11.207031 0.34375 10.09375 -0.101562 9.1875 -0.78125 C 8.28125 -1.46875 7.582031 -2.394531 7.09375 -3.5625 C 6.601562 -4.738281 6.359375 -6.273438 6.359375 -8.171875 L 6.359375 -54.359375 C 7.191406 -54.515625 8.421875 -54.722656 10.046875 -54.984375 C 11.671875 -55.242188 13.316406 -55.375 14.984375 -55.375 C 16.648438 -55.375 18.144531 -55.257812 19.46875 -55.03125 C 20.789062 -54.8125 21.90625 -54.359375 22.8125 -53.671875 C 23.71875 -52.992188 24.414062 -52.066406 24.90625 -50.890625 C 25.394531 -49.722656 25.640625 -48.191406 25.640625 -46.296875 Z M 25.640625 -0.109375 "/></g></g></g><g fill="#202020" fill-opacity="1"><g transform="translate(248.034874, 92.133135)"><g><path d="M 7.828125 0 C 6.617188 -1.0625 5.65625 -2.3125 4.9375 -3.75 C 4.21875 -5.1875 3.859375 -6.8125 3.859375 -8.625 C 3.859375 -10.132812 4.21875 -11.628906 4.9375 -13.109375 C 5.65625 -14.585938 6.546875 -15.96875 7.609375 -17.25 L 27.125 -40.171875 L 6.234375 -40.171875 C 5.785156 -41.003906 5.351562 -42.0625 4.9375 -43.34375 C 4.519531 -44.632812 4.3125 -46.035156 4.3125 -47.546875 C 4.3125 -50.191406 4.894531 -52.101562 6.0625 -53.28125 C 7.238281 -54.457031 8.8125 -55.046875 10.78125 -55.046875 L 46.53125 -55.046875 C 47.738281 -53.984375 48.703125 -52.734375 49.421875 -51.296875 C 50.140625 -49.859375 50.5 -48.234375 50.5 -46.421875 C 50.5 -44.898438 50.140625 -43.398438 49.421875 -41.921875 C 48.703125 -40.453125 47.8125 -39.078125 46.75 -37.796875 L 27.6875 -14.859375 L 49.9375 -14.859375 C 50.382812 -14.035156 50.816406 -12.976562 51.234375 -11.6875 C 51.648438 -10.40625 51.859375 -9.003906 51.859375 -7.484375 C 51.859375 -4.835938 51.269531 -2.925781 50.09375 -1.75 C 48.925781 -0.582031 47.359375 0 45.390625 0 Z M 7.828125 0 "/></g></g></g><g clip-path="url(#b7fa330f05)"><path fill="#ba5a87" d="M 309.203125 34.855469 L 348.777344 34.855469 L 348.777344 90.109375 L 309.203125 90.109375 Z M 309.203125 34.855469 " fill-opacity="1" fill-rule="nonzero"/></g><path fill="#000000" d="M 330.351562 40.644531 C 330.09375 42.03125 330.257812 43.585938 330.277344 45.007812 C 330.296875 46.507812 330.351562 47.96875 330.480469 49.449219 C 330.609375 50.875 333.027344 51.078125 333.324219 49.652344 C 333.671875 48.042969 333.839844 46.542969 333.804688 44.917969 C 333.746094 43.324219 333.691406 41.605469 333.082031 40.125 C 332.84375 39.550781 332.105469 39.238281 331.53125 39.347656 C 330.847656 39.476562 330.480469 40.015625 330.351562 40.644531 Z M 330.351562 40.644531 " fill-opacity="1" fill-rule="nonzero"/><path fill="#000000" d="M 350.414062 40.164062 C 349.859375 41.273438 350.082031 42.917969 350.136719 44.140625 C 350.191406 45.5625 350.359375 46.878906 350.730469 48.246094 C 351.226562 50.113281 353.589844 49.835938 353.957031 48.0625 C 354.273438 46.582031 354.289062 45.230469 354.125 43.734375 C 353.976562 42.382812 353.847656 40.773438 352.980469 39.664062 C 352.207031 38.683594 350.875 39.21875 350.414062 40.164062 Z M 350.414062 40.164062 " fill-opacity="1" fill-rule="nonzero"/><g clip-path="url(#532cd7416a)"><path fill="#000000" d="M 316.433594 63.636719 C 316.378906 66.429688 317.78125 69.058594 319.332031 71.296875 C 320.863281 73.5 322.820312 75.421875 325.015625 76.957031 C 329.207031 79.878906 334.339844 81.546875 339.433594 81.769531 C 344.601562 81.988281 349.898438 80.917969 354.4375 78.402344 C 358.960938 75.902344 362.78125 72.222656 365.570312 67.855469 C 367.101562 65.449219 368.335938 62.824219 369.203125 60.105469 C 369.667969 58.699219 370.035156 57.238281 370.273438 55.777344 C 370.496094 54.332031 370.792969 52.6875 370.332031 51.28125 C 369.886719 49.949219 368.261719 49.761719 367.636719 51.078125 C 367.136719 52.132812 367.082031 53.296875 366.84375 54.445312 C 366.601562 55.574219 366.34375 56.699219 366.011719 57.8125 C 365.382812 59.9375 364.535156 62.011719 363.445312 63.933594 C 361.25 67.835938 358.222656 71.332031 354.457031 73.8125 C 347 78.695312 336.921875 79.363281 328.949219 75.257812 C 326.621094 74.054688 324.464844 72.445312 322.691406 70.539062 C 320.679688 68.375 319.535156 65.859375 318.152344 63.285156 C 317.746094 62.566406 316.453125 62.695312 316.433594 63.636719 Z M 316.433594 63.636719 " fill-opacity="1" fill-rule="nonzero"/></g><g fill="#ba5a87" fill-opacity="1"><g transform="translate(228.981064, 31.233616)"><g><path d="M 2.5 -9.1875 C 2.5 -12.363281 3.476562 -15.007812 5.4375 -17.125 C 7.40625 -19.25 10.09375 -20.3125 13.5 -20.3125 C 16.90625 -20.3125 19.59375 -19.25 21.5625 -17.125 C 23.53125 -15.007812 24.515625 -12.363281 24.515625 -9.1875 C 24.515625 -6.007812 23.53125 -3.363281 21.5625 -1.25 C 19.59375 0.863281 16.90625 1.921875 13.5 1.921875 C 10.09375 1.921875 7.40625 0.863281 5.4375 -1.25 C 3.476562 -3.363281 2.5 -6.007812 2.5 -9.1875 Z M 2.5 -9.1875 "/></g></g></g></svg>