<svg xmlns="http://www.w3.org/2000/svg" xmlns:xlink="http://www.w3.org/1999/xlink" width="1080" zoomAndPan="magnify" viewBox="0 0 810 809.999993" height="1080" preserveAspectRatio="xMidYMid meet" version="1.0"><defs><g/><clipPath id="df2b8178fb"><path d="M 218.527344 760.609375 L 223.777344 760.609375 L 223.777344 765.859375 L 218.527344 765.859375 Z M 218.527344 760.609375 " clip-rule="nonzero"/></clipPath><clipPath id="7b5913feb8"><path d="M 529.121094 744.257812 L 534.371094 744.257812 L 534.371094 749.507812 L 529.121094 749.507812 Z M 529.121094 744.257812 " clip-rule="nonzero"/></clipPath><clipPath id="f8806d566c"><path d="M 741.375 726.785156 L 746.625 726.785156 L 746.625 732 L 741.375 732 Z M 741.375 726.785156 " clip-rule="nonzero"/></clipPath><clipPath id="eeda2995cc"><path d="M 10.203125 176.304688 L 16.203125 176.304688 L 16.203125 182.304688 L 10.203125 182.304688 Z M 10.203125 176.304688 " clip-rule="nonzero"/></clipPath><clipPath id="b46b18ebb5"><path d="M 397.644531 125 L 402.894531 125 L 402.894531 130.1875 L 397.644531 130.1875 Z M 397.644531 125 " clip-rule="nonzero"/></clipPath><clipPath id="6bb11504e6"><path d="M 557 379 L 701 379 L 701 508 L 557 508 Z M 557 379 " clip-rule="nonzero"/></clipPath><clipPath id="573a0ba528"><path d="M 542.953125 291.074219 L 761.410156 326.117188 L 730.523438 518.65625 L 512.066406 483.613281 Z M 542.953125 291.074219 " clip-rule="nonzero"/></clipPath><clipPath id="2b24f92132"><path d="M 542.953125 291.074219 L 761.410156 326.117188 L 730.523438 518.65625 L 512.066406 483.613281 Z M 542.953125 291.074219 " clip-rule="nonzero"/></clipPath><clipPath id="99cfd31edd"><path d="M 530 352 L 587 352 L 587 421 L 530 421 Z M 530 352 " clip-rule="nonzero"/></clipPath><clipPath id="2f0e377f46"><path d="M 542.953125 291.074219 L 761.410156 326.117188 L 730.523438 518.65625 L 512.066406 483.613281 Z M 542.953125 291.074219 " clip-rule="nonzero"/></clipPath><clipPath id="b9546deca0"><path d="M 542.953125 291.074219 L 761.410156 326.117188 L 730.523438 518.65625 L 512.066406 483.613281 Z M 542.953125 291.074219 " clip-rule="nonzero"/></clipPath><clipPath id="dcefd949ab"><path d="M 584 302 L 641 302 L 641 370 L 584 370 Z M 584 302 " clip-rule="nonzero"/></clipPath><clipPath id="fecc8fa6ef"><path d="M 542.953125 291.074219 L 761.410156 326.117188 L 730.523438 518.65625 L 512.066406 483.613281 Z M 542.953125 291.074219 " clip-rule="nonzero"/></clipPath><clipPath id="a4a95b5ad4"><path d="M 542.953125 291.074219 L 761.410156 326.117188 L 730.523438 518.65625 L 512.066406 483.613281 Z M 542.953125 291.074219 " clip-rule="nonzero"/></clipPath><clipPath id="be0ffa3504"><path d="M 690 378 L 748 378 L 748 446 L 690 446 Z M 690 378 " clip-rule="nonzero"/></clipPath><clipPath id="ebb42a838b"><path d="M 542.953125 291.074219 L 761.410156 326.117188 L 730.523438 518.65625 L 512.066406 483.613281 Z M 542.953125 291.074219 " clip-rule="nonzero"/></clipPath><clipPath id="e18d2bdfb9"><path d="M 542.953125 291.074219 L 761.410156 326.117188 L 730.523438 518.65625 L 512.066406 483.613281 Z M 542.953125 291.074219 " clip-rule="nonzero"/></clipPath><clipPath id="d82c8393c7"><path d="M 654 314 L 711 314 L 711 381 L 654 381 Z M 654 314 " clip-rule="nonzero"/></clipPath><clipPath id="4780239d40"><path d="M 542.953125 291.074219 L 761.410156 326.117188 L 730.523438 518.65625 L 512.066406 483.613281 Z M 542.953125 291.074219 " clip-rule="nonzero"/></clipPath><clipPath id="e209e8c776"><path d="M 542.953125 291.074219 L 761.410156 326.117188 L 730.523438 518.65625 L 512.066406 483.613281 Z M 542.953125 291.074219 " clip-rule="nonzero"/></clipPath></defs><g clip-path="url(#df2b8178fb)"><path fill="#fff5ee" d="M 223.082031 764.808594 C 223.152344 764.730469 223.199219 764.628906 223.265625 764.546875 C 223.335938 764.464844 223.398438 764.378906 223.453125 764.285156 C 223.554688 764.121094 223.636719 763.941406 223.691406 763.753906 C 223.714844 763.65625 223.730469 763.558594 223.734375 763.457031 C 223.742188 763.339844 223.753906 763.222656 223.773438 763.105469 C 223.785156 762.945312 223.777344 762.785156 223.757812 762.625 C 223.730469 762.023438 223.144531 761.40625 222.703125 761.054688 C 222.589844 760.96875 222.460938 760.90625 222.324219 760.867188 C 221.667969 760.632812 221.011719 760.625 220.351562 760.84375 C 220.007812 760.960938 219.683594 761.121094 219.390625 761.335938 C 219.230469 761.453125 219.085938 761.582031 218.953125 761.726562 C 218.832031 761.882812 218.734375 762.054688 218.667969 762.238281 C 218.570312 762.527344 218.523438 762.828125 218.535156 763.132812 C 218.523438 763.367188 218.558594 763.597656 218.632812 763.824219 C 218.738281 764.070312 218.863281 764.304688 219.003906 764.535156 C 219.066406 764.644531 219.140625 764.75 219.222656 764.847656 C 219.320312 764.992188 219.4375 765.117188 219.578125 765.21875 C 219.71875 765.328125 219.871094 765.414062 220.03125 765.484375 C 220.199219 765.554688 220.371094 765.613281 220.539062 765.679688 C 220.773438 765.785156 221.023438 765.824219 221.28125 765.804688 C 222 765.738281 222.601562 765.324219 223.082031 764.808594 Z M 223.082031 764.808594 " fill-opacity="1" fill-rule="nonzero"/></g><g clip-path="url(#7b5913feb8)"><path fill="#fff5ee" d="M 533.671875 748.457031 C 533.742188 748.378906 533.789062 748.277344 533.859375 748.195312 C 533.925781 748.113281 533.988281 748.027344 534.042969 747.933594 C 534.148438 747.769531 534.226562 747.59375 534.28125 747.402344 C 534.304688 747.304688 534.320312 747.207031 534.328125 747.105469 C 534.332031 746.988281 534.34375 746.871094 534.367188 746.753906 C 534.375 746.59375 534.367188 746.433594 534.347656 746.273438 C 534.320312 745.671875 533.738281 745.054688 533.296875 744.703125 C 533.179688 744.617188 533.050781 744.554688 532.914062 744.515625 C 532.257812 744.28125 531.601562 744.273438 530.945312 744.496094 C 530.597656 744.609375 530.277344 744.769531 529.980469 744.984375 C 529.820312 745.101562 529.675781 745.230469 529.546875 745.375 C 529.421875 745.53125 529.328125 745.703125 529.257812 745.890625 C 529.160156 746.179688 529.117188 746.476562 529.125 746.78125 C 529.117188 747.015625 529.148438 747.246094 529.222656 747.472656 C 529.332031 747.71875 529.453125 747.957031 529.59375 748.183594 C 529.65625 748.292969 529.730469 748.398438 529.8125 748.496094 C 529.910156 748.640625 530.027344 748.765625 530.167969 748.871094 C 530.3125 748.976562 530.460938 749.0625 530.625 749.132812 C 530.792969 749.203125 530.960938 749.261719 531.128906 749.328125 C 531.367188 749.433594 531.613281 749.472656 531.871094 749.453125 C 532.589844 749.386719 533.191406 748.972656 533.671875 748.457031 Z M 533.671875 748.457031 " fill-opacity="1" fill-rule="nonzero"/></g><g clip-path="url(#f8806d566c)"><path fill="#fff5ee" d="M 745.925781 730.984375 C 746 730.90625 746.046875 730.804688 746.113281 730.722656 C 746.183594 730.640625 746.246094 730.554688 746.300781 730.460938 C 746.402344 730.296875 746.484375 730.117188 746.539062 729.929688 C 746.5625 729.832031 746.578125 729.734375 746.582031 729.632812 C 746.585938 729.515625 746.601562 729.398438 746.621094 729.28125 C 746.628906 729.121094 746.625 728.960938 746.601562 728.800781 C 746.578125 728.199219 745.992188 727.582031 745.550781 727.230469 C 745.4375 727.144531 745.308594 727.082031 745.171875 727.042969 C 744.515625 726.808594 743.859375 726.800781 743.199219 727.019531 C 742.855469 727.136719 742.53125 727.296875 742.234375 727.511719 C 742.078125 727.628906 741.933594 727.757812 741.800781 727.902344 C 741.679688 728.058594 741.582031 728.230469 741.511719 728.414062 C 741.414062 728.707031 741.371094 729.003906 741.382812 729.308594 C 741.371094 729.542969 741.40625 729.773438 741.476562 730 C 741.585938 730.246094 741.710938 730.480469 741.851562 730.710938 C 741.914062 730.820312 741.988281 730.925781 742.070312 731.023438 C 742.167969 731.167969 742.285156 731.292969 742.425781 731.394531 C 742.566406 731.503906 742.71875 731.589844 742.878906 731.660156 C 743.046875 731.730469 743.21875 731.789062 743.382812 731.855469 C 743.621094 731.960938 743.871094 732 744.128906 731.980469 C 744.847656 731.914062 745.449219 731.5 745.925781 730.984375 Z M 745.925781 730.984375 " fill-opacity="1" fill-rule="nonzero"/></g><g clip-path="url(#eeda2995cc)"><path fill="#fff5ee" d="M 15.40625 181.101562 C 15.488281 181.011719 15.539062 180.898438 15.617188 180.804688 C 15.699219 180.710938 15.769531 180.613281 15.832031 180.507812 C 15.949219 180.316406 16.039062 180.113281 16.105469 179.898438 C 16.132812 179.789062 16.148438 179.675781 16.15625 179.558594 C 16.160156 179.425781 16.175781 179.289062 16.199219 179.15625 C 16.210938 178.972656 16.203125 178.789062 16.179688 178.609375 C 16.148438 177.921875 15.480469 177.214844 14.976562 176.8125 C 14.84375 176.714844 14.699219 176.644531 14.539062 176.601562 C 13.792969 176.328125 13.042969 176.320312 12.289062 176.574219 C 11.890625 176.703125 11.523438 176.890625 11.1875 177.132812 C 11.007812 177.265625 10.839844 177.417969 10.691406 177.582031 C 10.550781 177.761719 10.441406 177.957031 10.359375 178.167969 C 10.25 178.5 10.199219 178.839844 10.210938 179.1875 C 10.199219 179.457031 10.238281 179.722656 10.320312 179.980469 C 10.445312 180.257812 10.585938 180.53125 10.746094 180.792969 C 10.820312 180.917969 10.902344 181.035156 10.996094 181.148438 C 11.105469 181.3125 11.242188 181.457031 11.402344 181.574219 C 11.566406 181.695312 11.738281 181.796875 11.921875 181.875 C 12.113281 181.957031 12.308594 182.019531 12.5 182.101562 C 12.769531 182.21875 13.054688 182.265625 13.351562 182.242188 C 14.171875 182.164062 14.859375 181.691406 15.40625 181.101562 Z M 15.40625 181.101562 " fill-opacity="1" fill-rule="nonzero"/></g><g clip-path="url(#b46b18ebb5)"><path fill="#fff5ee" d="M 402.199219 129.132812 C 402.269531 129.054688 402.316406 128.957031 402.382812 128.875 C 402.453125 128.792969 402.515625 128.707031 402.570312 128.613281 C 402.671875 128.445312 402.753906 128.269531 402.808594 128.082031 C 402.832031 127.984375 402.847656 127.886719 402.851562 127.785156 C 402.859375 127.667969 402.871094 127.550781 402.890625 127.433594 C 402.902344 127.273438 402.894531 127.113281 402.875 126.953125 C 402.847656 126.351562 402.261719 125.734375 401.820312 125.382812 C 401.707031 125.296875 401.578125 125.234375 401.441406 125.195312 C 400.785156 124.957031 400.128906 124.953125 399.46875 125.171875 C 399.125 125.285156 398.800781 125.449219 398.507812 125.664062 C 398.347656 125.777344 398.203125 125.910156 398.074219 126.054688 C 397.949219 126.210938 397.851562 126.382812 397.785156 126.566406 C 397.6875 126.855469 397.640625 127.152344 397.652344 127.460938 C 397.644531 127.695312 397.675781 127.925781 397.75 128.152344 C 397.855469 128.398438 397.980469 128.632812 398.121094 128.863281 C 398.183594 128.972656 398.257812 129.078125 398.339844 129.175781 C 398.4375 129.320312 398.554688 129.445312 398.695312 129.546875 C 398.835938 129.652344 398.988281 129.742188 399.148438 129.8125 C 399.316406 129.882812 399.488281 129.9375 399.65625 130.007812 C 399.894531 130.109375 400.140625 130.152344 400.398438 130.132812 C 401.117188 130.066406 401.71875 129.648438 402.199219 129.132812 Z M 402.199219 129.132812 " fill-opacity="1" fill-rule="nonzero"/></g><g clip-path="url(#6bb11504e6)"><g clip-path="url(#573a0ba528)"><g clip-path="url(#2b24f92132)"><path fill="#ededed" d="M 680.585938 433.140625 C 676.875 430.769531 672.710938 421.984375 670.464844 411.789062 C 668.957031 404.929688 664.429688 384.644531 644.105469 379.894531 C 643.710938 379.738281 643.292969 379.617188 642.859375 379.546875 C 642.648438 379.515625 642.457031 379.515625 642.246094 379.484375 C 642.042969 379.449219 641.859375 379.386719 641.648438 379.355469 C 641.210938 379.285156 640.777344 379.269531 640.355469 379.292969 C 619.566406 377.449219 608.921875 395.300781 605.34375 401.339844 C 600.019531 410.324219 593.316406 417.363281 589.046875 418.460938 C 570.808594 423.144531 557.699219 439.460938 557.171875 458.136719 C 556.6875 475.261719 566.9375 489.257812 583.925781 494.660156 C 585.914062 495.292969 587.941406 495.773438 589.996094 496.101562 C 595.589844 497 601.367188 496.769531 606.988281 495.398438 C 609.449219 494.800781 611.710938 494.011719 613.898438 493.25 C 617.679688 491.929688 620.988281 490.789062 624.367188 490.945312 C 627.625 491.855469 630.414062 493.96875 633.59375 496.40625 C 635.429688 497.816406 637.332031 499.277344 639.480469 500.613281 C 644.390625 503.671875 649.808594 505.699219 655.402344 506.59375 C 657.453125 506.925781 659.53125 507.101562 661.617188 507.125 C 679.441406 507.304688 693.558594 497.21875 698.453125 480.800781 C 703.792969 462.898438 696.449219 443.296875 680.585938 433.140625 Z M 680.585938 433.140625 " fill-opacity="1" fill-rule="nonzero"/></g></g></g><g clip-path="url(#99cfd31edd)"><g clip-path="url(#2f0e377f46)"><g clip-path="url(#b9546deca0)"><path fill="#ededed" d="M 586.460938 386.917969 C 586.722656 369.964844 576.378906 355.488281 562.398438 353.246094 C 561.277344 353.066406 560.132812 352.96875 558.996094 352.949219 C 543.566406 352.710938 530.777344 367.5625 530.492188 386.054688 C 530.230469 403.007812 540.574219 417.484375 554.554688 419.726562 C 555.675781 419.90625 556.820312 420.003906 557.960938 420.023438 C 573.390625 420.257812 586.175781 405.40625 586.460938 386.917969 Z M 586.460938 386.917969 " fill-opacity="1" fill-rule="nonzero"/></g></g></g><g clip-path="url(#dcefd949ab)"><g clip-path="url(#fecc8fa6ef)"><g clip-path="url(#a4a95b5ad4)"><path fill="#ededed" d="M 607.484375 369.363281 C 622.71875 371.808594 637.5 358.941406 640.429688 340.679688 C 643.359375 322.417969 633.34375 305.574219 618.109375 303.128906 C 602.871094 300.6875 588.089844 313.554688 585.160156 331.8125 C 582.230469 350.074219 592.246094 366.917969 607.484375 369.363281 Z M 607.484375 369.363281 " fill-opacity="1" fill-rule="nonzero"/></g></g></g><g clip-path="url(#be0ffa3504)"><g clip-path="url(#ebb42a838b)"><g clip-path="url(#e18d2bdfb9)"><path fill="#ededed" d="M 743.660156 394.128906 C 739.980469 386.445312 733.800781 381.25 726.261719 379.511719 C 711.183594 376.015625 695.585938 387.949219 691.445312 405.894531 C 689.488281 414.378906 690.3125 423.03125 693.769531 430.25 C 697.449219 437.9375 703.628906 443.128906 711.167969 444.871094 C 711.699219 444.992188 712.226562 445.09375 712.757812 445.179688 C 727.390625 447.527344 741.988281 435.804688 745.984375 418.488281 C 747.941406 410 747.117188 401.351562 743.660156 394.128906 Z M 743.660156 394.128906 " fill-opacity="1" fill-rule="nonzero"/></g></g></g><g clip-path="url(#d82c8393c7)"><g clip-path="url(#4780239d40)"><g clip-path="url(#e209e8c776)"><path fill="#ededed" d="M 677.523438 380.597656 C 692.757812 383.042969 707.539062 370.175781 710.46875 351.914062 C 713.398438 333.65625 703.382812 316.808594 688.148438 314.367188 C 672.910156 311.921875 658.132812 324.789062 655.203125 343.050781 C 652.273438 361.308594 662.285156 378.15625 677.523438 380.597656 Z M 677.523438 380.597656 " fill-opacity="1" fill-rule="nonzero"/></g></g></g><g fill="#ff738e" fill-opacity="1"><g transform="translate(147.637106, 467.351308)"><g><path d="M 58.027344 -30.589844 C 53.925781 -30.589844 51.246094 -33.269531 51.246094 -37.371094 L 51.246094 -58.65625 L 69.539062 -58.65625 L 69.539062 -85.148438 L 50.140625 -85.148438 L 50.140625 -112.585938 L 42.574219 -112.585938 L 0.15625 -67.328125 L 0.15625 -58.65625 L 15.925781 -58.65625 L 15.925781 -30.433594 C 15.925781 -11.511719 27.277344 0 46.199219 0 L 70.011719 0 L 70.011719 -30.589844 Z M 58.027344 -30.589844 "/></g></g></g><g fill="#ff738e" fill-opacity="1"><g transform="translate(221.904765, 467.351308)"><g><path d="M 62.285156 -88.300781 C 55.1875 -88.300781 48.40625 -85.777344 42.730469 -81.679688 L 42.730469 -115.894531 L 7.410156 -115.894531 L 7.410156 0 L 42.730469 0 L 42.730469 -46.832031 C 42.730469 -54.398438 46.359375 -58.972656 52.507812 -58.972656 C 57.710938 -58.972656 60.707031 -54.871094 60.707031 -47.777344 L 60.707031 0 L 96.027344 0 L 96.027344 -50.457031 C 96.027344 -73.164062 82.46875 -88.300781 62.285156 -88.300781 Z M 62.285156 -88.300781 "/></g></g></g><g fill="#ff738e" fill-opacity="1"><g transform="translate(324.397284, 467.351308)"><g><path d="M 76.003906 -85.148438 L 72.691406 -79.3125 C 65.753906 -84.832031 57.238281 -87.984375 47.621094 -87.984375 C 21.128906 -87.984375 3.152344 -69.851562 3.152344 -42.574219 C 3.152344 -15.296875 21.128906 3.152344 47.621094 3.152344 C 57.082031 3.152344 65.59375 0.15625 72.535156 -5.203125 L 75.371094 0 L 102.492188 0 L 102.492188 -85.148438 Z M 38.472656 -42.417969 C 38.472656 -51.5625 44.9375 -58.5 54.085938 -58.5 C 63.074219 -58.5 69.695312 -51.5625 69.695312 -42.417969 C 69.695312 -33.113281 63.074219 -26.175781 54.085938 -26.175781 C 45.097656 -26.175781 38.472656 -33.113281 38.472656 -42.417969 Z M 38.472656 -42.417969 "/></g></g></g><g fill="#ff738e" fill-opacity="1"><g transform="translate(434.300806, 467.351308)"><g><path d="M 10.878906 -94.765625 L 36.898438 -94.765625 L 51.71875 -123.78125 L 16.242188 -123.78125 Z M 7.410156 0 L 42.730469 0 L 42.730469 -85.148438 L 7.410156 -85.148438 Z M 7.410156 0 "/></g></g></g><g fill="#ff738e" fill-opacity="1"><g transform="translate(484.443298, 467.351308)"><g><path d="M 42.890625 3.152344 C 66.699219 3.152344 82.625 -8.671875 82.625 -26.648438 C 82.625 -49.511719 64.648438 -52.035156 51.5625 -54.242188 C 43.835938 -55.503906 37.6875 -56.449219 37.6875 -61.023438 C 37.6875 -64.332031 40.207031 -65.753906 42.730469 -65.753906 C 45.410156 -65.753906 48.25 -63.859375 48.25 -59.601562 L 80.890625 -59.601562 C 80.101562 -76.949219 65.59375 -88.300781 42.730469 -88.300781 C 19.550781 -88.300781 4.101562 -77.738281 4.101562 -59.761719 C 4.101562 -38.472656 21.601562 -34.214844 34.53125 -32.167969 C 42.257812 -30.90625 48.25 -29.960938 48.25 -25.230469 C 48.25 -21.917969 45.726562 -20.183594 42.890625 -20.183594 C 40.050781 -20.183594 36.898438 -22.234375 36.898438 -27.277344 L 3.3125 -27.277344 C 3.941406 -8.832031 17.503906 3.152344 42.890625 3.152344 Z M 42.890625 3.152344 "/></g></g></g></svg>